STARTFONT 2.1
COMMENT
COMMENT Converted from OpenType font "Patriot-Regular.otf" by "otf2bdf 3.0".
COMMENT
FONT -FreeType-Patriot-Medium-R-Normal--66-480-100-100-P-314-ISO10646-1
SIZE 48 100 100
FONTBOUNDINGBOX 106 88 -24 -18
STARTPROPERTIES 19
FOUNDRY "FreeType"
FAMILY_NAME "Patriot"
WEIGHT_NAME "Medium"
SLANT "R"
SETWIDTH_NAME "Normal"
ADD_STYLE_NAME ""
PIXEL_SIZE 66
POINT_SIZE 480
RESOLUTION_X 100
RESOLUTION_Y 100
SPACING "P"
AVERAGE_WIDTH 314
CHARSET_REGISTRY "ISO10646"
CHARSET_ENCODING "1"
FONT_ASCENT 67
FONT_DESCENT 13
COPYRIGHT "Copyright © 2020 by Behalf Studio. All rights reserved."
_OTF_FONTFILE "Patriot-Regular.otf"
_OTF_PSNAME "Patriot-Regular"
ENDPROPERTIES
CHARS 426
STARTCHAR 0020
ENCODING 32
SWIDTH 360 0
DWIDTH 24 0
BBX 0 0 0 0
BITMAP
ENDCHAR
STARTCHAR 0021
ENCODING 33
SWIDTH 240 0
DWIDTH 16 0
BBX 9 48 4 -1
BITMAP
7E00
7E00
7E00
7E00
7E00
7E00
7E00
7E00
7E00
7E00
7E00
7E00
7E00
7E00
7E00
7E00
7E00
7E00
7E00
7E00
7E00
7E00
7E00
7E00
7E00
7E00
7E00
7E00
7E00
7E00
7E00
0000
0000
0000
0000
0000
0000
0000
1C00
7F00
FF80
FF80
FF80
FF80
FF80
FF80
7F00
1C00
ENDCHAR
STARTCHAR 0022
ENCODING 34
SWIDTH 300 0
DWIDTH 20 0
BBX 13 15 4 32
BITMAP
F078
F078
F078
F078
F078
F078
F078
F078
F078
F078
F078
F078
F078
F078
F078
ENDCHAR
STARTCHAR 0023
ENCODING 35
SWIDTH 630 0
DWIDTH 42 0
BBX 35 47 4 0
BITMAP
003F007E00
003E007E00
003E007C00
003E007C00
003E007C00
003E007C00
003E007C00
007E007C00
007C00FC00
007C00F800
007C00F800
007C00F800
007C00F800
007C00F800
00FC00F800
7FFFFFFFE0
7FFFFFFFE0
7FFFFFFFE0
7FFFFFFFE0
00F801F000
00F801F000
01F801F000
01F003F000
01F003E000
01F003E000
01F003E000
01F003E000
01F003E000
03F003E000
FFFFFFFF80
FFFFFFFF80
FFFFFFFF80
FFFFFFFF80
FFFFFFFF80
03E007C000
07E007C000
07C00FC000
07C00F8000
07C00F8000
07C00F8000
07C00F8000
07C00F8000
0FC00F8000
0FC01F8000
0F801F0000
0F801F0000
0F801F0000
ENDCHAR
STARTCHAR 0024
ENCODING 36
SWIDTH 540 0
DWIDTH 36 0
BBX 29 59 4 -6
BITMAP
000F8000
000F8000
000F8000
000F8000
000F8000
001F8000
00FFF000
03FFFC00
07FFFE00
0FFFFF00
1FFFFF80
1FFFFFC0
3FCFBFC0
3F8F8FE0
3F0F8FE0
3F0F87E0
3F0F87F0
3F0F87C0
3F0F8000
3F8F8000
3F8F8000
1FCF8000
1FEF8000
0FFF8000
07FF8000
03FF8000
01FFC000
00FFE000
007FF800
001FFC00
000FFF00
000FFF80
000FFFC0
000FFFC0
000F9FE0
000F8FF0
000F87F0
000F87F0
000F83F0
000F83F8
1C0F83F8
FC0F83F8
FC0F83F8
FE0F83F0
FE0F87F0
7F0F87F0
7F8F8FF0
3FEFBFE0
1FFFFFC0
1FFFFFC0
07FFFF80
03FFFE00
00FFFC00
003FE000
000F8000
000F8000
000F8000
000F8000
000F8000
ENDCHAR
STARTCHAR 0025
ENCODING 37
SWIDTH 870 0
DWIDTH 58 0
BBX 51 49 4 -1
BITMAP
00FC0000000000
03FF800001F000
0FFFC00003E000
1FFFE00007E000
3FFFF00007C000
7F03F8000F8000
7E01F8001F8000
FC00FC001F0000
FC007C003E0000
F8007C007C0000
F8007E00FC0000
F8007E00F80000
F8007E01F00000
F8007C03F00000
F8007C03E00000
FC00FC07C00000
7E01FC0FC00000
7F03F80F800000
3FFFF01F000000
1FFFE03E000000
0FFFC07E000000
03FF007C000000
007800F8000000
000001F8000000
000001F0000000
000003E0000000
000007E0030000
000007C03FF000
00000F80FFFC00
00001F01FFFE00
00003F03FFFF00
00003E03F87F80
00007C07F01FC0
0000FC07E00FC0
0000F80FC007C0
0001F00F8007E0
0003F00F8007E0
0003E00F8003E0
0007C00F8003E0
000F800F8007E0
001F800FC007E0
001F000FC00FC0
003E0007E00FC0
007E0007F03F80
007C0003FFFF80
00F80001FFFF00
01F80000FFFE00
01F000003FF800
000000000FE000
ENDCHAR
STARTCHAR 0026
ENCODING 38
SWIDTH 645 0
DWIDTH 43 0
BBX 36 48 4 -1
BITMAP
003FF00000
01FFFC0000
03FFFF0000
07FFFF8000
0FFFFFC000
1FFCFFE000
1FE01FF000
3F800FF000
3F8007E000
3F0003C000
7F00018000
7F00000000
7F00000000
7F00000000
7F00000000
3F00000000
3F80000000
3FC0000000
1FE0000000
0FFE000000
0FFFFFFFF0
07FFFFFFF0
07FFFFFFF0
0FFFFFFFF0
1FFFFFFFF0
3FF8003F80
7FC0003F80
7F00003F80
FF00003F80
FE00003F80
FC00003F00
FC00003F00
FC00007F00
FC00007F00
FC00007F00
FC0000FE00
FE0000FE00
FE0001FE00
FF0001FC00
7F8003FC00
7FC00FF800
3FF83FF000
1FFFFFE000
0FFFFFE000
07FFFF8000
03FFFF0000
007FFC0000
0007C00000
ENDCHAR
STARTCHAR 0027
ENCODING 39
SWIDTH 165 0
DWIDTH 11 0
BBX 4 15 4 32
BITMAP
F0
F0
F0
F0
F0
F0
F0
F0
F0
F0
F0
F0
F0
F0
F0
ENDCHAR
STARTCHAR 0028
ENCODING 40
SWIDTH 315 0
DWIDTH 21 0
BBX 14 62 4 -9
BITMAP
0030
0078
00FC
00FC
01F8
01F0
03F0
03E0
07E0
07C0
0F80
0F80
1F00
1F00
3F00
3E00
3E00
7C00
7C00
7C00
7C00
F800
F800
F800
F800
F800
F800
F800
F000
F000
F000
F000
F000
F000
F800
F800
F800
F800
F800
F800
F800
7C00
7C00
7C00
7C00
3E00
3E00
3F00
1F00
1F00
0F80
0F80
07C0
07C0
03E0
03F0
01F0
01F8
00FC
007C
0078
0020
ENDCHAR
STARTCHAR 0029
ENCODING 41
SWIDTH 315 0
DWIDTH 21 0
BBX 14 62 4 -9
BITMAP
3000
7800
F800
FC00
7E00
3E00
3F00
1F00
1F80
0F80
0FC0
07C0
07E0
03E0
03E0
01F0
01F0
01F0
00F8
00F8
00F8
00F8
007C
007C
007C
007C
007C
007C
007C
007C
003C
003C
007C
007C
007C
007C
007C
007C
007C
007C
00F8
00F8
00F8
00F8
01F0
01F0
01F0
03E0
03E0
07E0
07C0
0FC0
0F80
1F80
1F00
3F00
7E00
7E00
FC00
F800
7800
3000
ENDCHAR
STARTCHAR 002A
ENCODING 42
SWIDTH 450 0
DWIDTH 30 0
BBX 24 23 3 25
BITMAP
001800
003C00
007E00
007E00
007E00
007E00
007E00
7C3E3E
7F3CFF
FF9DFF
7FFFFF
7FFFFE
1FFFF8
003E00
00FF00
01F7C0
03E7E0
07E7E0
0FE7F0
0FC3F0
0FC3F0
0F81F0
020060
ENDCHAR
STARTCHAR 002B
ENCODING 43
SWIDTH 555 0
DWIDTH 37 0
BBX 30 30 4 7
BITMAP
000F8000
000F8000
000F8000
000F8000
000F8000
000F8000
000F8000
000F8000
000F8000
000F8000
000F8000
000F8000
FFFFFFFC
FFFFFFFC
FFFFFFFC
FFFFFFFC
FFFFFFFC
000F8000
000F8000
000F8000
000F8000
000F8000
000F8000
000F8000
000F8000
000F8000
000F8000
000F8000
000F8000
000F8000
ENDCHAR
STARTCHAR 002C
ENCODING 44
SWIDTH 255 0
DWIDTH 17 0
BBX 10 13 4 -8
BITMAP
0FC0
0F80
1F80
1F00
1F00
3E00
3E00
7C00
7C00
7800
F800
F000
F000
ENDCHAR
STARTCHAR 002D
ENCODING 45
SWIDTH 435 0
DWIDTH 29 0
BBX 22 5 4 13
BITMAP
FFFFFC
FFFFFC
FFFFFC
FFFFFC
FFFFFC
ENDCHAR
STARTCHAR 002E
ENCODING 46
SWIDTH 240 0
DWIDTH 16 0
BBX 9 10 4 -1
BITMAP
1C00
7F00
FF80
FF80
FF80
FF80
FF80
FF80
7F00
1C00
ENDCHAR
STARTCHAR 002F
ENCODING 47
SWIDTH 390 0
DWIDTH 26 0
BBX 19 49 4 -1
BITMAP
0007E0
0007C0
0007C0
0007C0
000F80
000F80
000F80
001F80
001F00
001F00
001F00
003E00
003E00
003E00
007E00
007C00
007C00
007C00
00F800
00F800
00F800
01F800
01F000
01F000
01F000
03E000
03E000
03E000
07E000
07C000
07C000
07C000
0F8000
0F8000
0F8000
1F8000
1F0000
1F0000
1F0000
3E0000
3E0000
3E0000
7E0000
7C0000
7C0000
7C0000
F80000
F80000
F80000
ENDCHAR
STARTCHAR 0030
ENCODING 48
SWIDTH 705 0
DWIDTH 47 0
BBX 43 49 2 -1
BITMAP
00001F000000
0001FFF80000
000FFFFE0000
003FFFFF8000
007FFFFFC000
00FFFFFFF000
01FFC07FF800
03FE000FFC00
07FC0003FC00
0FF00001FE00
0FE00000FF00
1FC000007F00
3F8000003F80
3F8000003F80
3F0000001FC0
7F0000001FC0
7E0000000FC0
7E0000000FC0
7E0000000FE0
7E00000007E0
FC00000007E0
FC00000007E0
FC00000007E0
FC00000007E0
FC00000007E0
FC00000007E0
FC00000007E0
FC00000007E0
FC00000007E0
FE00000007E0
7E00000007E0
7E0000000FC0
7E0000000FC0
7F0000000FC0
3F0000001FC0
3F8000001F80
3F8000003F80
1FC000007F00
1FE00000FF00
0FF00001FE00
07F80003FE00
07FE0007FC00
03FF803FF800
01FFFFFFF000
00FFFFFFE000
003FFFFF8000
000FFFFF0000
0003FFFC0000
00007FC00000
ENDCHAR
STARTCHAR 0031
ENCODING 49
SWIDTH 285 0
DWIDTH 19 0
BBX 13 47 3 0
BITMAP
01F8
01F8
01F8
01F8
FFF8
FFF8
FFF8
FFF8
FFF8
FFF8
01F8
01F8
01F8
01F8
01F8
01F8
01F8
01F8
01F8
01F8
01F8
01F8
01F8
01F8
01F8
01F8
01F8
01F8
01F8
01F8
01F8
01F8
01F8
01F8
01F8
01F8
01F8
01F8
01F8
01F8
01F8
01F8
01F8
01F8
01F8
01F8
01F8
ENDCHAR
STARTCHAR 0032
ENCODING 50
SWIDTH 540 0
DWIDTH 36 0
BBX 32 48 2 0
BITMAP
0003C000
003FFE00
00FFFF80
03FFFFC0
07FFFFE0
0FFFFFF0
1FF81FF8
1FE007F8
3FC003FC
3F8001FC
7F0000FE
7F0000FE
7E00007E
7E00007E
FE00007E
7E00007E
0000007E
000000FE
000000FC
000000FC
000001FC
000001F8
000003F8
000007F0
000007F0
00000FE0
00001FC0
00003FC0
00007F80
0000FF00
0001FE00
0003FC00
0007F800
000FF000
001FE000
003FC000
007F8000
00FF0000
01FE0000
03FC0000
07F80000
07F00000
0FFFFFFF
1FFFFFFF
3FFFFFFF
7FFFFFFF
FFFFFFFF
FFFFFFFF
ENDCHAR
STARTCHAR 0033
ENCODING 51
SWIDTH 510 0
DWIDTH 34 0
BBX 31 48 2 -1
BITMAP
7FFFFFF8
7FFFFFF8
7FFFFFF8
7FFFFFF0
7FFFFFE0
7FFFFFC0
00003F80
00007F00
0000FE00
0001FC00
0003F800
0007F000
000FE000
001FC000
007F8000
00FFF000
01FFFC00
03FFFF00
07FFFF80
0FFFFFC0
1FFDFFE0
0FC01FF0
070007F8
020003F8
000001FC
000000FC
000000FC
000000FE
0000007E
0000007E
0000007E
0000007E
0000007E
0000007E
000000FE
000000FC
000000FC
000001FC
1C0003F8
3E0007F8
FF000FF0
7FC03FF0
3FFFFFE0
1FFFFFC0
0FFFFF80
07FFFE00
01FFFC00
003FE000
ENDCHAR
STARTCHAR 0034
ENCODING 52
SWIDTH 525 0
DWIDTH 35 0
BBX 33 47 1 0
BITMAP
000000F800
00003FF800
0001FFF800
0007FFF800
001FFFF800
003FFFF800
007FFBF800
00FFC3F800
01FF03F800
03FC03F800
07F803F800
0FF003F800
0FE003F800
1FC003F800
1FC003F800
3F8003F800
3F8003F800
3F0003F800
7F0003F800
7E0003F800
7E0003F800
7E0003F800
FE0003F800
FC0003F800
FC0003F800
FC0003F800
FC0003F800
FC0003F800
FFFFFFFF80
FFFFFFFF80
FFFFFFFF80
FFFFFFFF80
FFFFFFFF80
000003F800
000003F800
000003F800
000003F800
000003F800
000003F800
000003F800
000003F800
000003F800
000003F800
000003F800
000003F800
000003F800
000003F800
ENDCHAR
STARTCHAR 0035
ENCODING 53
SWIDTH 540 0
DWIDTH 36 0
BBX 31 48 3 -1
BITMAP
3FFFFFF8
3FFFFFF8
3FFFFFF8
3FFFFFF8
3FFFFFF8
3FFFFFF8
3F000000
3E000000
3E000000
3E000000
7E000000
7E000000
7E000000
7E000000
7E000000
7E1FF000
7EFFFE00
7FFFFF00
7FFFFFC0
7FFFFFE0
7FFFFFF0
FFC01FF0
FF0007F8
7E0003F8
0C0001FC
000000FC
000000FC
000000FE
0000007E
0000007E
0000007E
0000007E
0000007E
0000007E
000000FE
000000FC
000000FC
080001FC
1C0003F8
7E0007F8
FF000FF0
FFC03FF0
7FFFFFE0
3FFFFFC0
0FFFFF80
07FFFE00
01FFF800
003FC000
ENDCHAR
STARTCHAR 0036
ENCODING 54
SWIDTH 600 0
DWIDTH 40 0
BBX 35 48 3 -1
BITMAP
00007F0000
0000FE0000
0001FC0000
0001FC0000
0003F80000
0007F00000
0007F00000
000FE00000
001FC00000
003F800000
003F800000
007F000000
00FE000000
00FE780000
01FFFF8000
03FFFFE000
07FFFFF800
07FFFFFC00
0FFFFFFE00
1FF803FF00
1FE000FF00
3FC0007F80
3F80003FC0
7F00001FC0
7E00000FC0
7E00000FE0
FE000007E0
FC000007E0
FC000007E0
FC000007E0
FC000007E0
FC000007E0
FC000007E0
FC000007E0
FE000007E0
7E00000FE0
7E00000FC0
7F00001FC0
3F80003FC0
3FC0007F80
1FE000FF00
0FF803FF00
0FFFFFFE00
07FFFFFC00
01FFFFF800
00FFFFE000
003FFF8000
0007FC0000
ENDCHAR
STARTCHAR 0037
ENCODING 55
SWIDTH 450 0
DWIDTH 30 0
BBX 28 47 2 0
BITMAP
FFFFFFF0
FFFFFFF0
FFFFFFF0
FFFFFFF0
FFFFFFF0
FFFFFFE0
000007E0
00000FC0
00000FC0
00001FC0
00001F80
00001F80
00003F00
00003F00
00007F00
00007E00
00007E00
0000FC00
3FFFFFC0
3FFFFFC0
3FFFFFC0
3FFFFFC0
3FFFFFC0
3FFFFFC0
0007F000
0007E000
0007E000
000FC000
000FC000
001FC000
001F8000
001F8000
003F0000
003F0000
007F0000
007E0000
007E0000
00FC0000
00FC0000
01FC0000
01F80000
01F80000
03F00000
03F00000
07F00000
07E00000
07E00000
ENDCHAR
STARTCHAR 0038
ENCODING 56
SWIDTH 555 0
DWIDTH 37 0
BBX 34 49 2 -1
BITMAP
0001E00000
000FFC0000
003FFF0000
007FFF8000
00FFFFC000
01FFFFE000
03FC0FE000
03F007F000
03F003F000
03E003F000
07E001F000
07E003F000
03E003F000
03F003F000
03F007F000
03F80FE000
01FF7FE000
00FFFFC000
007FFF8000
01FFFFE000
07FFFFF000
0FFFFFF800
1FF007FC00
1FE001FE00
3F8000FF00
7F00007F00
7F00003F80
7E00001F80
FE00001F80
FC00001FC0
FC00000FC0
FC00000FC0
FC00000FC0
FC00000FC0
FC00000FC0
FC00001FC0
FE00001F80
7E00001F80
7F00003F80
7F00007F00
3F8000FF00
1FE001FE00
1FF807FE00
0FFFFFFC00
07FFFFF800
03FFFFF000
00FFFFC000
003FFF0000
0007F80000
ENDCHAR
STARTCHAR 0039
ENCODING 57
SWIDTH 585 0
DWIDTH 39 0
BBX 36 48 2 0
BITMAP
0001F00000
001FFF8000
007FFFE000
00FFFFF800
03FFFFFC00
07FFFFFE00
0FFE07FF00
0FF000FF80
1FE0007F80
3FC0003FC0
3F80001FC0
7F00000FE0
7E00000FE0
7E000007E0
7E000007E0
FC000007F0
FC000003F0
FC000003F0
FC000003F0
FC000003F0
FE000007F0
7E000007E0
7E000007E0
7F00000FE0
7F00000FC0
3F80001FC0
3FC0003FC0
1FE0007F80
0FF801FF00
0FFF0FFF00
07FFFFFE00
01FFFFFC00
00FFFFFC00
003FFFF800
0007F7F000
000007F000
00000FE000
00001FC000
00003FC000
00003F8000
00007F0000
0000FE0000
0000FE0000
0001FC0000
0003F80000
0003F80000
0007F00000
000FE00000
ENDCHAR
STARTCHAR 003A
ENCODING 58
SWIDTH 255 0
DWIDTH 17 0
BBX 9 33 4 -1
BITMAP
3E00
7F00
FF80
FF80
FF80
FF80
FF80
FF80
7F00
0000
0000
0000
0000
0000
0000
0000
0000
0000
0000
0000
0000
0000
0000
1C00
7F00
FF80
FF80
FF80
FF80
FF80
FF80
7F00
1C00
ENDCHAR
STARTCHAR 003B
ENCODING 59
SWIDTH 285 0
DWIDTH 19 0
BBX 12 40 4 -8
BITMAP
0F80
1FC0
3FE0
3FE0
3FF0
3FE0
3FE0
1FE0
0FC0
0000
0000
0000
0000
0000
0000
0000
0000
0000
0000
0000
0000
0000
0000
0000
0000
0000
0000
0FC0
0F80
1F80
1F00
1F00
3E00
3E00
7C00
7C00
7800
F800
F000
F000
ENDCHAR
STARTCHAR 003C
ENCODING 60
SWIDTH 555 0
DWIDTH 37 0
BBX 30 28 4 7
BITMAP
00000004
0000003C
000000FC
000007FC
00003FFC
0000FFF8
0007FFC0
003FFE00
00FFF800
07FFC000
3FFE0000
FFF00000
FF800000
FE000000
FC000000
FF800000
FFF00000
7FFC0000
0FFF8000
01FFF000
007FFE00
000FFF80
0001FFF0
00007FFC
00000FFC
000001FC
0000003C
0000000C
ENDCHAR
STARTCHAR 003D
ENCODING 61
SWIDTH 555 0
DWIDTH 37 0
BBX 30 18 4 13
BITMAP
FFFFFFFC
FFFFFFFC
FFFFFFFC
FFFFFFFC
FFFFFFFC
00000000
00000000
00000000
00000000
00000000
00000000
00000000
00000000
FFFFFFFC
FFFFFFFC
FFFFFFFC
FFFFFFFC
FFFFFFFC
ENDCHAR
STARTCHAR 003E
ENCODING 62
SWIDTH 555 0
DWIDTH 37 0
BBX 30 27 4 8
BITMAP
E0000000
FC000000
FF000000
FFE00000
FFFC0000
1FFF0000
03FFE000
007FFC00
001FFF00
0003FFE0
00007FFC
00001FFC
000003FC
000000FC
000007FC
00003FFC
0001FFF0
000FFF80
003FFE00
01FFF000
0FFF8000
7FFC0000
FFF00000
FF800000
FC000000
F0000000
80000000
ENDCHAR
STARTCHAR 003F
ENCODING 63
SWIDTH 420 0
DWIDTH 28 0
BBX 21 48 4 -1
BITMAP
03FE00
0FFF80
1FFFC0
3FFFE0
7FFFF0
7F07F0
FC03F8
FC01F8
F801F8
3801F8
0801F8
0001F8
0003F0
0003F0
0007F0
0007E0
000FC0
001FC0
003F80
003F00
007E00
00FE00
00FC00
00F800
01F800
01F800
01F000
03F000
03F000
03F000
03F000
03F000
000000
000000
000000
000000
000000
000000
01E000
03F800
07FC00
07FC00
0FFC00
0FFC00
07FC00
07FC00
03F800
00E000
ENDCHAR
STARTCHAR 0040
ENCODING 64
SWIDTH 795 0
DWIDTH 53 0
BBX 46 49 4 -1
BITMAP
000001C00000
00007FFF0000
0003FFFFE000
000FFFFFF800
003FFC1FFC00
007F8000FE00
00FE00003F00
01F800001F80
03E0000007C0
07C0000003E0
0F80000003E0
1F00000001F0
1F00030000F0
3E001FE780F8
3C007FF78078
7C00FFFF8078
7801FFFF807C
7801FC3F807C
F803F01F807C
F003E00F807C
F007E00F807C
F007C00F807C
F007C00F007C
F007C00F0078
F00FC00F0078
F00FC00F00F8
F00FC01F00F8
F007C01F00F0
F007E03F01F0
F007E03F03E0
F807F8FF87C0
F803FFFFFFC0
7801FFE7FF80
7C00FFC7FF00
3C007F81FC00
3E0000000000
3E0000000000
1F0000000000
0F8000000000
0FC000000300
07E000000780
03F800000FC0
01FC00003F80
00FF0000FF00
003FF007FE00
001FFFFFF800
0007FFFFE000
0000FFFF8000
00000FF80000
ENDCHAR
STARTCHAR 0041
ENCODING 65
SWIDTH 555 0
DWIDTH 37 0
BBX 33 48 3 0
BITMAP
000F800000
007FF00000
01FFFC0000
07FFFE0000
0FFFFF0000
0FFFFF8000
1FF07FC000
3FC01FE000
3F800FE000
7F0007E000
7F0007F000
7E0007F000
7E0003F000
FE0003F000
FE0003F000
FE0003F800
FE0003F800
FE0003F800
FE0003F800
FE0003F800
FE0003F800
FE0003F800
FE0003F800
FE0003F800
FE0003F800
FE0003F800
FE0003F800
FE0003F800
FE0003F800
FE0003F800
FE0003F800
FE0003F800
FE0003F800
FE0003F800
FE0003F800
FE0003F800
FE0003F800
FE0003F800
FE0003F800
FE0003F800
FE0003F800
FE0003F800
FFFFFFFF80
FFFFFFFF80
FFFFFFFF80
FFFFFFFF80
FFFFFFFF80
FFFFFFFF80
ENDCHAR
STARTCHAR 0042
ENCODING 66
SWIDTH 600 0
DWIDTH 40 0
BBX 37 47 2 0
BITMAP
07FFFC0000
07FFFFE000
07FFFFF800
07FFFFFE00
07FFFFFF00
07FFFFFF80
07E001FF80
07E0003FC0
07E0001FC0
07E0000FE0
07E0000FE0
07E00007E0
07E00007E0
07E00007E0
07E00007E0
07E00007E0
07E0000FE0
07E0000FC0
07E0001FC0
07E0007FC0
FFFFFFFF80
FFFFFFFF00
FFFFFFFE00
FFFFFFFF00
FFFFFFFF80
FFFFFFFFC0
07E000FFE0
07E0001FE0
07E0000FF0
07E00007F0
07E00007F0
07E00003F0
07E00003F0
07E00003F8
07E00003F0
07E00003F0
07E00003F0
07E00007F0
07E0000FF0
07E0001FE0
07E0007FE0
07FFFFFFC0
07FFFFFF80
07FFFFFF00
07FFFFFE00
07FFFFF800
07FFFFC000
ENDCHAR
STARTCHAR 0043
ENCODING 67
SWIDTH 675 0
DWIDTH 45 0
BBX 43 49 2 -1
BITMAP
000001F00000
00007FFF0000
0003FFFFE000
000FFFFFF800
001FFFFFFE00
007FFFFFFF00
00FFFC1FFF80
01FFC001FFC0
03FF00007FE0
07FC00001FC0
07F800000F80
0FF000000700
1FE000000200
1FC000000000
3F8000000000
3F8000000000
3F0000000000
7F0000000000
7F0000000000
7E0000000000
7E0000000000
FE0000000000
FE0000000000
FE0000000000
FE0000000000
FE0000000000
FE0000000000
FE0000000000
FE0000000000
7E0000000000
7E0000000000
7F0000000000
7F0000000000
3F8000000000
3F8000000000
1FC000000000
1FE000000000
0FE000000600
0FF000000F00
07FC00001FC0
03FE00003FE0
01FF8000FFC0
00FFF007FF80
007FFFFFFF00
003FFFFFFE00
000FFFFFF800
0003FFFFF000
0000FFFF8000
00000FFC0000
ENDCHAR
STARTCHAR 0044
ENCODING 68
SWIDTH 645 0
DWIDTH 43 0
BBX 37 47 4 0
BITMAP
FFFC000000
FFFFF80000
FFFFFF0000
FFFFFFC000
FFFFFFF000
FFFFFFF800
FC01FFFC00
FC000FFE00
FC0003FF00
FC0000FF80
FC00007FC0
FC00003FC0
FC00001FE0
FC00000FE0
FC000007F0
FC000007F0
FC000003F0
FC000003F0
FC000003F8
FC000003F8
FC000001F8
FC000001F8
FC000001F8
FC000001F8
FC000001F8
FC000001F8
FC000001F8
FC000003F8
FC000003F8
FC000003F8
FC000003F0
FC000007F0
FC000007F0
FC00000FE0
FC00000FE0
FC00001FC0
FC00003FC0
FC0000FF80
FC0001FF00
FC0007FF00
FC007FFE00
FFFFFFF800
FFFFFFF000
FFFFFFE000
FFFFFF8000
FFFFFC0000
FFFFC00000
ENDCHAR
STARTCHAR 0045
ENCODING 69
SWIDTH 495 0
DWIDTH 33 0
BBX 31 47 2 0
BITMAP
0FFFFE00
0FFFFE00
0FFFFE00
0FFFFE00
0FFFFE00
0FFFFE00
0FC00000
0FC00000
0FC00000
0FC00000
0FC00000
0FC00000
0FC00000
0FC00000
0FC00000
0FC00000
0FC00000
0FC00000
0FC00000
0FC00000
0FC00000
FFFFFFC0
FFFFFFC0
FFFFFFC0
FFFFFFC0
FFFFFFC0
0FC00000
0FC00000
0FC00000
0FC00000
0FC00000
0FC00000
0FC00000
0FC00000
0FC00000
0FC00000
0FC00000
0FC00000
0FC00000
0FC00000
0FC00000
0FFFFFFE
0FFFFFFE
0FFFFFFE
0FFFFFFE
0FFFFFFE
0FFFFFFE
ENDCHAR
STARTCHAR 0046
ENCODING 70
SWIDTH 450 0
DWIDTH 30 0
BBX 28 47 2 0
BITMAP
07FFFFF0
07FFFFF0
07FFFFF0
07FFFFF0
07FFFFF0
07FFFFF0
07E00000
07E00000
07E00000
07E00000
07E00000
07E00000
07E00000
07E00000
07E00000
07E00000
07E00000
07E00000
07E00000
07E00000
07E00000
07E00000
FFFFFFE0
FFFFFFE0
FFFFFFE0
FFFFFFE0
FFFFFFE0
FFFFFFE0
07E00000
07E00000
07E00000
07E00000
07E00000
07E00000
07E00000
07E00000
07E00000
07E00000
07E00000
07E00000
07E00000
07E00000
07E00000
07E00000
07E00000
07E00000
07E00000
ENDCHAR
STARTCHAR 0047
ENCODING 71
SWIDTH 825 0
DWIDTH 55 0
BBX 53 49 2 -1
BITMAP
000001F0000000
00007FFF800000
0001FFFFE00000
000FFFFFF80000
001FFFFFFE0000
007FFFFFFF0000
00FFFC0FFF8000
01FFC000FFC000
03FF00003FE000
07FC00001FC000
07F800000F8000
0FF00000070000
1FE00000020000
1FC00000000000
3F800000000000
3F800000000000
3F000000000000
7F000000000000
7E000000000000
7E000000000000
7E000000000000
FE000000000000
FE0001FFFFFFF8
FE0001FFFFFFF8
FE0001FFFFFFF8
FE0001FFFFFFF8
FE0001FFFFFFF8
FE000000003F80
FE000000003F80
7E000000003F80
7E000000003F00
7F000000007F00
7F000000007F00
3F800000007F00
3F80000000FE00
1FC0000001FE00
1FE0000001FC00
0FF0000003FC00
0FF0000007F800
07FC00000FF000
03FE00003FF000
01FF80007FE000
00FFF003FFC000
007FFFFFFF8000
003FFFFFFE0000
000FFFFFFC0000
0003FFFFF00000
0000FFFFC00000
00000FFC000000
ENDCHAR
STARTCHAR 0048
ENCODING 72
SWIDTH 555 0
DWIDTH 37 0
BBX 32 47 2 0
BITMAP
0FC0007F
0FC0007F
0FC0007F
0FC0007F
0FC0007F
0FC0007F
0FC0007F
0FC0007F
0FC0007F
0FC0007F
0FC0007F
0FC0007F
0FC0007F
0FC0007F
0FC0007F
0FC0007F
0FC0007F
0FC0007F
0FC0007F
FFFFFFFF
FFFFFFFF
FFFFFFFF
FFFFFFFF
FFFFFFFF
FFFFFFFF
0FC0007F
0FC0007F
0FC0007F
0FC0007F
0FC0007F
0FC0007F
0FC0007F
0FC0007F
0FC0007F
0FC0007F
0FC0007F
0FC0007F
0FC0007F
0FC0007F
0FC0007F
0FC0007F
0FC0007F
0FC0007F
0FC0007F
0FC0007F
0FC0007F
0FC0007F
ENDCHAR
STARTCHAR 0049
ENCODING 73
SWIDTH 180 0
DWIDTH 12 0
BBX 17 53 -2 0
BITMAP
008000
008000
018000
01C000
01C000
03C000
FFFF80
7FFF00
3FFC00
0FF800
07F000
07F000
0FF000
0E7800
0C1800
180800
000400
000000
000000
000000
000000
000000
000000
000000
07F000
07F000
07F000
07F000
07F000
07F000
07F000
07F000
07F000
07F000
07F000
07F000
07F000
07F000
07F000
07F000
07F000
07F000
07F000
07F000
07F000
07F000
07F000
07F000
07F000
07F000
07F000
07F000
07F000
ENDCHAR
STARTCHAR 004A
ENCODING 74
SWIDTH 465 0
DWIDTH 31 0
BBX 27 48 1 -1
BITMAP
0001FFE0
0001FFE0
0001FFE0
0001FFE0
0001FFE0
0001FFE0
00000FE0
00000FE0
00000FE0
00000FE0
00000FE0
00000FE0
00000FE0
00000FE0
00000FE0
00000FE0
00000FE0
00000FE0
00000FE0
00000FE0
00000FE0
00000FE0
00000FE0
00000FE0
00000FE0
00000FE0
00000FE0
00000FE0
00000FE0
00000FE0
00000FE0
00000FE0
00000FE0
00000FE0
00000FC0
00000FC0
04000FC0
1C001FC0
7C001FC0
FE003F80
FF007F80
7FC0FF00
7FFFFF00
3FFFFE00
1FFFFC00
0FFFF800
03FFE000
007F8000
ENDCHAR
STARTCHAR 004B
ENCODING 75
SWIDTH 525 0
DWIDTH 35 0
BBX 31 47 2 0
BITMAP
0FC003F0
0FC003F0
0FC003F0
0FC003F0
0FC003F0
0FC003F0
0FC003F0
0FC003F0
0FC003F0
0FC003F0
0FC003F0
0FC003F0
0FC007F0
0FC007F0
0FC007F0
0FC007E0
0FC00FE0
0FC00FE0
0FC01FC0
0FC07FC0
FFFFFF80
FFFFFF00
FFFFFF80
FFFFFFC0
FFFFFFE0
FFFFFFF0
0FC01FF8
0FC007F8
0FC003F8
0FC001FC
0FC001FC
0FC000FC
0FC000FE
0FC000FE
0FC000FE
0FC000FE
0FC0007E
0FC0007E
0FC0007E
0FC0007E
0FC0007E
0FC0007E
0FC0007E
0FC0007E
0FC0007E
0FC0007E
0FC0007E
ENDCHAR
STARTCHAR 004C
ENCODING 76
SWIDTH 435 0
DWIDTH 29 0
BBX 24 47 4 0
BITMAP
FC0000
FC0000
FC0000
FC0000
FC0000
FC0000
FC0000
FC0000
FC0000
FC0000
FC0000
FC0000
FC0000
FC0000
FC0000
FC0000
FC0000
FC0000
FC0000
FC0000
FC0000
FC0000
FC0000
FC0000
FC0000
FC0000
FC0000
FC0000
FC0000
FC0000
FC0000
FC0000
FC0000
FC0000
FC0000
FC0000
FC0000
FC0000
FC0000
FC0000
FC0000
FFFFFF
FFFFFF
FFFFFF
FFFFFF
FFFFFF
FFFFFF
ENDCHAR
STARTCHAR 004D
ENCODING 77
SWIDTH 855 0
DWIDTH 57 0
BBX 53 48 1 0
BITMAP
10000000000000
3C0000300001F8
3E0000380001F8
7F00003C0001F8
FF80003F0001F8
7FE0003F8001F8
3FF0003FC001F8
1FF8003FF001F8
0FFE003FF801F8
0FFF003FFC01F8
0FFF803FFE01F8
0FFFC03FFF81F8
0FFFF03FFFC1F8
0FCFF83F3FE1F8
0FC7FC3F1FF1F8
0FC3FE3F0FFDF8
0FC1FFBF03FFF8
0FC07FFF01FFF8
0FC03FFF00FFF8
0FC01FFF007FF8
0FC00FFF001FF8
0FC003FF000FF8
0FC001FF0007F8
0FC000FF0003F8
0FC0003F0001F8
0FC0003F0001F8
0FC0003F0001F8
0FC0003F0001F8
0FC0003F0001F8
0FC0003F0001F8
0FC0003F0001F8
0FC0003F0001F8
0FC0003F0001F8
0FC0003F0001F8
0FC0003F0001F8
0FC0003F0001F8
0FC0003F0001F8
0FC0003F0001F8
0FC0003F0001F8
0FC0003F0001F8
0FC0003F0001F8
0FC0003F0001F8
0FC0003F0001F8
0FC0003F0001F8
0FC0003F0001F8
0FC0003F0001F8
0FC0003F0001F8
0FC0003F0001F8
ENDCHAR
STARTCHAR 004E
ENCODING 78
SWIDTH 525 0
DWIDTH 35 0
BBX 30 48 1 0
BITMAP
10000000
3C0000FC
3E0000FC
7F0000FC
FF8000FC
7FE000FC
3FF000FC
1FF800FC
1FFE00FC
1FFF00FC
1FFF80FC
1FFFC0FC
1FBFF0FC
1F9FF8FC
1F8FFCFC
1F83FFFC
1F81FFFC
1F80FFFC
1F807FFC
1F801FFC
1F800FFC
1F8007FC
1F8001FC
1F8000FC
1F8000FC
1F8000FC
1F8000FC
1F8000FC
1F8000FC
1F8000FC
1F8000FC
1F8000FC
1F8000FC
1F8000FC
1F8000FC
1F8000FC
1F8000FC
1F8000FC
1F8000FC
1F8000FC
1F8000FC
1F8000FC
1F8000FC
1F8000FC
1F8000FC
1F8000FC
1F8000FC
1F8000FC
ENDCHAR
STARTCHAR 004F
ENCODING 79
SWIDTH 810 0
DWIDTH 54 0
BBX 50 49 2 -1
BITMAP
000001F0000000
00007FFF800000
0001FFFFF00000
000FFFFFFC0000
001FFFFFFE0000
007FFFFFFF8000
00FFFC0FFFC000
01FFC000FFE000
03FF00001FF000
07FC00000FF800
07F8000007FC00
0FF0000001FC00
1FE0000001FE00
1FC0000000FF00
3F800000007F00
3F800000003F00
3F000000003F80
7F000000003F80
7E000000001F80
7E000000001FC0
7E000000001FC0
FE000000000FC0
FE000000000FC0
FE000000000FC0
FE000000000FC0
FE000000000FC0
FE000000000FC0
FE000000000FC0
FE000000001FC0
7E000000001FC0
7E000000001FC0
7F000000001F80
7F000000003F80
3F800000003F80
3F800000007F00
1FC0000000FF00
1FE0000000FE00
0FF0000001FE00
0FF0000003FC00
07FC000007F800
03FE00001FF000
01FF80007FF000
00FFF003FFE000
007FFFFFFF8000
003FFFFFFF0000
000FFFFFFC0000
0003FFFFF80000
0000FFFFC00000
00000FFC000000
ENDCHAR
STARTCHAR 0050
ENCODING 80
SWIDTH 555 0
DWIDTH 37 0
BBX 34 47 2 0
BITMAP
1FFFF00000
1FFFFF8000
1FFFFFE000
1FFFFFF800
1FFFFFFC00
1FFFFFFE00
1F800FFF00
1F8000FF00
1F80007F80
1F80003F80
1F80001FC0
1F80001FC0
1F80000FC0
1F80000FC0
1F80000FC0
1F80000FC0
1F80000FC0
1F80001FC0
1F80001FC0
1F80003F80
1F80003F80
1F8000FF00
1F8003FF00
FFFFFFFE00
FFFFFFFC00
FFFFFFF800
FFFFFFF000
FFFFFFC000
FFFFFE0000
1F80000000
1F80000000
1F80000000
1F80000000
1F80000000
1F80000000
1F80000000
1F80000000
1F80000000
1F80000000
1F80000000
1F80000000
1F80000000
1F80000000
1F80000000
1F80000000
1F80000000
1F80000000
ENDCHAR
STARTCHAR 0051
ENCODING 81
SWIDTH 810 0
DWIDTH 54 0
BBX 50 49 2 -2
BITMAP
000001F0000000
00007FFF800000
0001FFFFF00000
000FFFFFFC0000
001FFFFFFE0000
007FFFFFFF8000
00FFFC0FFFC000
01FFC000FFE000
03FF00001FF000
07FC00000FF800
07F8000007FC00
0FF0000001FC00
1FE0000001FE00
1FC0000000FF00
3F800000007F00
3F800000003F00
3F000000003F80
7F000000003F80
7E000000001F80
7E000000001FC0
7E000000001FC0
FE000000000FC0
FE000000000FC0
FE000000000FC0
FE000000000FC0
FE000000000FC0
FE000000000FC0
FE000000000FC0
FE000000001FC0
7E000000001FC0
7E000000001FC0
7F000000001F80
7F000000203F80
3F800000703F80
3F800000F87F00
1FC00001FCFF00
1FE00003FEFE00
0FF00001FFFE00
0FF00000FFFC00
07FC00007FF800
03FE00003FF000
01FF80007FF000
00FFF003FFF800
007FFFFFFFFC00
003FFFFFFFFE00
000FFFFFFDFE00
0003FFFFF8FC00
0000FFFFC07800
00000FFE003000
ENDCHAR
STARTCHAR 0052
ENCODING 82
SWIDTH 585 0
DWIDTH 39 0
BBX 35 47 2 0
BITMAP
0FFFF00000
0FFFFFC000
0FFFFFF000
0FFFFFFC00
0FFFFFFE00
0FFFFFFF00
0FC007FF80
0FC000FF80
0FC0003FC0
0FC0001FC0
0FC0000FC0
0FC0000FE0
0FC0000FE0
0FC00007E0
0FC00007E0
0FC00007E0
0FC0000FE0
0FC0000FE0
0FC0000FC0
0FC0001FC0
0FC0003FC0
0FC000FF80
0FC007FF00
FFFFFFFF00
FFFFFFFC00
FFFFFFF800
FFFFFFF000
FFFFFFF000
0FC0FFF800
0FC007FC00
0FC001FE00
0FC000FE00
0FC0007F00
0FC0007F00
0FC0003F00
0FC0003F00
0FC0003F80
0FC0003F80
0FC0003F80
0FC0003F80
0FC0001F80
0FC0001F80
0FC0001F80
0FC0001F80
0FC0001F80
0FC0001F80
0FC0001F80
ENDCHAR
STARTCHAR 0053
ENCODING 83
SWIDTH 480 0
DWIDTH 32 0
BBX 29 49 2 -1
BITMAP
000F8000
00FFF800
01FFFC00
07FFFF00
0FFFFF80
0FFFFF80
1FF8FFC0
1FC01FE0
3F800FE0
3F8007E0
3F0007F0
3F0003F0
3F0003C0
3F800000
3F800000
1FC00000
1FC00000
1FF00000
0FF80000
07FE0000
03FF0000
01FFC000
00FFF000
003FF800
001FFE00
0007FF00
0001FF80
0000FFC0
00003FE0
00001FE0
00000FF0
000007F0
000003F8
000003F8
000001F8
1C0001F8
FC0001F8
FE0003F8
FE0003F8
7F0003F8
7F8007F0
3FC00FF0
3FF03FE0
1FFFFFE0
0FFFFFC0
07FFFF80
03FFFF00
00FFFC00
001FE000
ENDCHAR
STARTCHAR 0054
ENCODING 84
SWIDTH 495 0
DWIDTH 33 0
BBX 30 47 2 0
BITMAP
FFFFFFFC
FFFFFFFC
FFFFFFFC
FFFFFFFC
FFFFFFFC
FFFFFFFC
000FC000
000FC000
000FC000
000FC000
000FC000
000FC000
000FC000
000FC000
000FC000
000FC000
000FC000
000FC000
000FC000
000FC000
000FC000
000FC000
000FC000
000FC000
000FC000
000FC000
000FC000
000FC000
000FC000
000FC000
000FC000
000FC000
000FC000
000FC000
000FC000
000FC000
000FC000
000FC000
000FC000
000FC000
000FC000
000FC000
000FC000
000FC000
000FC000
000FC000
000FC000
ENDCHAR
STARTCHAR 0055
ENCODING 85
SWIDTH 495 0
DWIDTH 33 0
BBX 28 48 3 -1
BITMAP
FC0003F0
FC0003F0
FC0003F0
FC0003F0
FC0003F0
FC0003F0
FC0003F0
FC0003F0
FC0003F0
FC0003F0
FC0003F0
FC0003F0
FC0003F0
FC0003F0
FC0003F0
FC0003F0
FC0003F0
FC0003F0
FC0003F0
FC0003F0
FC0003F0
FC0003F0
FC0003F0
FC0003F0
FC0003F0
FC0003F0
FC0003F0
FC0003F0
FC0003F0
FC0003F0
FC0003F0
FC0003F0
FC0003F0
FC0003F0
FC0003F0
FE0007F0
FE0007F0
7E0007E0
7F000FE0
7F000FE0
3F801FC0
3FE07FC0
1FFFFF80
0FFFFF00
07FFFE00
03FFFC00
01FFF800
003FC000
ENDCHAR
STARTCHAR 0056
ENCODING 86
SWIDTH 465 0
DWIDTH 31 0
BBX 27 47 1 0
BITMAP
FC0007E0
FC0007E0
FC0007E0
FC0007E0
FC0007E0
FC0007E0
FC0007E0
FC0007E0
FC0007E0
FC0007E0
FC0007E0
FC0007E0
FC0007E0
FC0007E0
FC0007E0
FC0007E0
FC0007E0
FC0007E0
FC0007E0
FC0007E0
FC0007E0
FC0007E0
FC0007E0
FC000FE0
FC000FE0
FC000FE0
FC000FE0
FC000FC0
FE000FC0
FE000FC0
7E000FC0
7E001FC0
7E001FC0
7F001F80
7F003F80
3F003F80
3F803F00
1F807F00
1FC07E00
0FE0FE00
0FE1FC00
07F1FC00
07FBF800
03FFF000
01FFE000
00FFC000
007F8000
ENDCHAR
STARTCHAR 0057
ENCODING 87
SWIDTH 780 0
DWIDTH 52 0
BBX 48 47 1 0
BITMAP
FC0007E0003F
FC0007E0003F
FC0007E0003F
FC0007E0003F
FC0007E0003F
FC0007E0003F
FC0007E0003F
FC0007E0003F
FC0007E0003F
FC0007E0003F
FC0007E0003F
FC0007E0003F
FC0007E0003F
FC0007E0003F
FC0007E0003F
FC0007E0003F
FC0007E0003F
FC0007E0003F
FC0007E0003F
FC0007E0003F
FC0007E0003F
FC0007E0007F
FC0007E0007F
FC000FE0007F
FC000FE0007F
FC000FE0007F
FC000FE0007F
FC000FE0007E
FE000FF0007E
FE000FF0007E
7E000FF000FE
7E001FF000FE
7E001FF000FE
7F001FF800FC
7F003FF801FC
3F003FF801FC
3F803FFC01F8
1F807FFC03F8
1FC07FFE03F0
0FE0FE7E07F0
0FE1FC7F0FE0
07F1FC3F8FE0
07FBF83FDFC0
03FFF01FFF80
01FFE00FFF00
00FFC007FE00
007F8003FC00
ENDCHAR
STARTCHAR 0058
ENCODING 88
SWIDTH 510 0
DWIDTH 34 0
BBX 28 47 3 0
BITMAP
FE0003F0
FE0003F0
FE0003F0
FE0003F0
FE0003F0
FE0003F0
FE0003F0
FE0003F0
FE0003F0
FE0003F0
FE0003F0
FE0003F0
7E0007F0
7F0007F0
7F000FE0
3F800FE0
3FC01FC0
1FF0FFC0
1FFFFF80
0FFFFF00
07FFFE00
07FFFF00
0FFFFF80
1FFFFFC0
3FE03FC0
3F801FE0
7F000FE0
7F0007E0
7E0007F0
7E0003F0
FE0003F0
FE0003F0
FE0003F0
FE0003F0
FE0003F0
FE0003F0
FE0003F0
FE0003F0
FE0003F0
FE0003F0
FE0003F0
FE0003F0
FE0003F0
FE0003F0
FE0003F0
FE0003F0
FE0003F0
ENDCHAR
STARTCHAR 0059
ENCODING 89
SWIDTH 495 0
DWIDTH 33 0
BBX 28 47 3 0
BITMAP
FC0007F0
FC0007F0
FC0007F0
FC0007F0
FC0007F0
FC0007F0
FC0007F0
FC0007F0
FC0007F0
FC0007F0
FC0007F0
FC0007F0
FC0007F0
FC0007F0
FC0007F0
FC0007F0
FC0007F0
FC0007F0
FC0007F0
FC0007F0
FC0007F0
FC0007F0
FC0007F0
FC0007E0
FC0007E0
FE0007E0
FE000FE0
7F001FC0
7F803FC0
3FC07F80
3FFFFF80
1FFFFF00
0FFFFE00
07FFFC00
01FFF000
007FC000
001F8000
001F8000
001F8000
001F8000
001F8000
001F8000
001F8000
001F8000
001F8000
001F8000
001F8000
ENDCHAR
STARTCHAR 005A
ENCODING 90
SWIDTH 495 0
DWIDTH 33 0
BBX 30 47 2 0
BITMAP
FFFFFFFC
FFFFFFFC
FFFFFFFC
FFFFFFFC
FFFFFFFC
FFFFFFF8
000007F0
000007F0
00000FE0
00000FE0
00001FC0
00001F80
00003F80
00007F00
00007F00
0000FE00
0000FC00
0001FC00
0003F800
0003F800
0007F000
0007E000
000FE000
001FC000
001FC000
003F8000
007F8000
007F0000
00FE0000
00FE0000
01FC0000
03FC0000
03F80000
07F00000
07F00000
0FE00000
1FE00000
1FC00000
3F800000
3F800000
7F000000
7FFFFFF8
FFFFFFF8
FFFFFFF8
FFFFFFF8
FFFFFFF8
FFFFFFF8
ENDCHAR
STARTCHAR 005B
ENCODING 91
SWIDTH 225 0
DWIDTH 15 0
BBX 8 63 4 -9
BITMAP
FF
FF
FF
FF
F0
F0
F0
F0
F0
F0
F0
F0
F0
F0
F0
F0
F0
F0
F0
F0
F0
F0
F0
F0
F0
F0
F0
F0
F0
F0
F0
F0
F0
F0
F0
F0
F0
F0
F0
F0
F0
F0
F0
F0
F0
F0
F0
F0
F0
F0
F0
F0
F0
F0
F0
F0
F0
F0
F0
FF
FF
FF
FF
ENDCHAR
STARTCHAR 005C
ENCODING 92
SWIDTH 390 0
DWIDTH 26 0
BBX 19 49 4 -1
BITMAP
F80000
F80000
F80000
FC0000
7C0000
7C0000
7E0000
3E0000
3E0000
3E0000
3F0000
1F0000
1F0000
1F8000
0F8000
0F8000
0F8000
0FC000
07C000
07C000
07E000
03E000
03E000
03E000
03F000
01F000
01F000
01F800
00F800
00F800
00F800
00FC00
007C00
007C00
007E00
003E00
003E00
003E00
003F00
001F00
001F00
001F80
000F80
000F80
000F80
0007C0
0007C0
0007C0
0007E0
ENDCHAR
STARTCHAR 005D
ENCODING 93
SWIDTH 225 0
DWIDTH 15 0
BBX 8 63 4 -9
BITMAP
FF
FF
FF
FF
0F
0F
0F
0F
0F
0F
0F
0F
0F
0F
0F
0F
0F
0F
0F
0F
0F
0F
0F
0F
0F
0F
0F
0F
0F
0F
0F
0F
0F
0F
0F
0F
0F
0F
0F
0F
0F
0F
0F
0F
0F
0F
0F
0F
0F
0F
0F
0F
0F
0F
0F
0F
0F
0F
0F
FF
FF
FF
FF
ENDCHAR
STARTCHAR 005E
ENCODING 94
SWIDTH 480 0
DWIDTH 32 0
BBX 25 17 4 23
BITMAP
007F0000
00FF0000
01FF8000
01FF8000
03EFC000
03E7C000
07C3E000
07C3F000
0F81F000
0F81F800
1F00F800
3F007C00
3E007C00
7C003E00
7C003E00
F8001F00
F8001F80
ENDCHAR
STARTCHAR 005F
ENCODING 95
SWIDTH 525 0
DWIDTH 35 0
BBX 28 4 4 -7
BITMAP
FFFFFFF0
FFFFFFF0
FFFFFFF0
FFFFFFF0
ENDCHAR
STARTCHAR 0060
ENCODING 96
SWIDTH 150 0
DWIDTH 10 0
BBX 10 8 0 51
BITMAP
FC00
7C00
3E00
1F00
0F00
0F80
0780
03C0
ENDCHAR
STARTCHAR 0061
ENCODING 97
SWIDTH 555 0
DWIDTH 37 0
BBX 33 48 3 0
BITMAP
000F800000
007FF00000
01FFFC0000
07FFFE0000
0FFFFF0000
0FFFFF8000
1FF07FC000
3FC01FE000
3F800FE000
7F0007E000
7F0007F000
7E0007F000
7E0003F000
FE0003F000
FE0003F000
FE0003F800
FE0003F800
FE0003F800
FE0003F800
FE0003F800
FE0003F800
FE0003F800
FE0003F800
FE0003F800
FE0003F800
FE0003F800
FE0003F800
FE0003F800
FE0003F800
FE0003F800
FE0003F800
FE0003F800
FE0003F800
FE0003F800
FE0003F800
FE0003F800
FE0003F800
FE0003F800
FE0003F800
FE0003F800
FE0003F800
FE0003F800
FFFFFFFF80
FFFFFFFF80
FFFFFFFF80
FFFFFFFF80
FFFFFFFF80
FFFFFFFF80
ENDCHAR
STARTCHAR 0062
ENCODING 98
SWIDTH 600 0
DWIDTH 40 0
BBX 37 47 2 0
BITMAP
07FFFC0000
07FFFFE000
07FFFFF800
07FFFFFE00
07FFFFFF00
07FFFFFF80
07E001FF80
07E0003FC0
07E0001FC0
07E0000FE0
07E0000FE0
07E00007E0
07E00007E0
07E00007E0
07E00007E0
07E00007E0
07E0000FE0
07E0000FC0
07E0001FC0
07E0007FC0
FFFFFFFF80
FFFFFFFF00
FFFFFFFE00
FFFFFFFF00
FFFFFFFF80
FFFFFFFFC0
07E000FFE0
07E0001FE0
07E0000FF0
07E00007F0
07E00007F0
07E00003F0
07E00003F0
07E00003F8
07E00003F0
07E00003F0
07E00003F0
07E00007F0
07E0000FF0
07E0001FE0
07E0007FE0
07FFFFFFC0
07FFFFFF80
07FFFFFF00
07FFFFFE00
07FFFFF800
07FFFFC000
ENDCHAR
STARTCHAR 0063
ENCODING 99
SWIDTH 675 0
DWIDTH 45 0
BBX 43 49 2 -1
BITMAP
000001F00000
00007FFF0000
0003FFFFE000
000FFFFFF800
001FFFFFFE00
007FFFFFFF00
00FFFC1FFF80
01FFC001FFC0
03FF00007FE0
07FC00001FC0
07F800000F80
0FF000000700
1FE000000200
1FC000000000
3F8000000000
3F8000000000
3F0000000000
7F0000000000
7F0000000000
7E0000000000
7E0000000000
FE0000000000
FE0000000000
FE0000000000
FE0000000000
FE0000000000
FE0000000000
FE0000000000
FE0000000000
7E0000000000
7E0000000000
7F0000000000
7F0000000000
3F8000000000
3F8000000000
1FC000000000
1FE000000000
0FE000000600
0FF000000F00
07FC00001FC0
03FE00003FE0
01FF8000FFC0
00FFF007FF80
007FFFFFFF00
003FFFFFFE00
000FFFFFF800
0003FFFFF000
0000FFFF8000
00000FFC0000
ENDCHAR
STARTCHAR 0064
ENCODING 100
SWIDTH 645 0
DWIDTH 43 0
BBX 37 47 4 0
BITMAP
FFFC000000
FFFFF80000
FFFFFF0000
FFFFFFC000
FFFFFFF000
FFFFFFF800
FC01FFFC00
FC000FFE00
FC0003FF00
FC0000FF80
FC00007FC0
FC00003FC0
FC00001FE0
FC00000FE0
FC000007F0
FC000007F0
FC000003F0
FC000003F0
FC000003F8
FC000003F8
FC000001F8
FC000001F8
FC000001F8
FC000001F8
FC000001F8
FC000001F8
FC000001F8
FC000003F8
FC000003F8
FC000003F8
FC000003F0
FC000007F0
FC000007F0
FC00000FE0
FC00000FE0
FC00001FC0
FC00003FC0
FC0000FF80
FC0001FF00
FC0007FF00
FC007FFE00
FFFFFFF800
FFFFFFF000
FFFFFFE000
FFFFFF8000
FFFFFC0000
FFFFC00000
ENDCHAR
STARTCHAR 0065
ENCODING 101
SWIDTH 495 0
DWIDTH 33 0
BBX 31 47 2 0
BITMAP
0FFFFE00
0FFFFE00
0FFFFE00
0FFFFE00
0FFFFE00
0FFFFE00
0FC00000
0FC00000
0FC00000
0FC00000
0FC00000
0FC00000
0FC00000
0FC00000
0FC00000
0FC00000
0FC00000
0FC00000
0FC00000
0FC00000
0FC00000
FFFFFFC0
FFFFFFC0
FFFFFFC0
FFFFFFC0
FFFFFFC0
0FC00000
0FC00000
0FC00000
0FC00000
0FC00000
0FC00000
0FC00000
0FC00000
0FC00000
0FC00000
0FC00000
0FC00000
0FC00000
0FC00000
0FC00000
0FFFFFFE
0FFFFFFE
0FFFFFFE
0FFFFFFE
0FFFFFFE
0FFFFFFE
ENDCHAR
STARTCHAR 0066
ENCODING 102
SWIDTH 450 0
DWIDTH 30 0
BBX 28 47 2 0
BITMAP
07FFFFF0
07FFFFF0
07FFFFF0
07FFFFF0
07FFFFF0
07FFFFF0
07E00000
07E00000
07E00000
07E00000
07E00000
07E00000
07E00000
07E00000
07E00000
07E00000
07E00000
07E00000
07E00000
07E00000
07E00000
07E00000
FFFFFFE0
FFFFFFE0
FFFFFFE0
FFFFFFE0
FFFFFFE0
FFFFFFE0
07E00000
07E00000
07E00000
07E00000
07E00000
07E00000
07E00000
07E00000
07E00000
07E00000
07E00000
07E00000
07E00000
07E00000
07E00000
07E00000
07E00000
07E00000
07E00000
ENDCHAR
STARTCHAR 0067
ENCODING 103
SWIDTH 825 0
DWIDTH 55 0
BBX 53 49 2 -1
BITMAP
000001F0000000
00007FFF800000
0001FFFFE00000
000FFFFFF80000
001FFFFFFE0000
007FFFFFFF0000
00FFFC0FFF8000
01FFC000FFC000
03FF00003FE000
07FC00001FC000
07F800000F8000
0FF00000070000
1FE00000020000
1FC00000000000
3F800000000000
3F800000000000
3F000000000000
7F000000000000
7E000000000000
7E000000000000
7E000000000000
FE000000000000
FE0001FFFFFFF8
FE0001FFFFFFF8
FE0001FFFFFFF8
FE0001FFFFFFF8
FE0001FFFFFFF8
FE000000003F80
FE000000003F80
7E000000003F80
7E000000003F00
7F000000007F00
7F000000007F00
3F800000007F00
3F80000000FE00
1FC0000001FE00
1FE0000001FC00
0FF0000003FC00
0FF0000007F800
07FC00000FF000
03FE00003FF000
01FF80007FE000
00FFF003FFC000
007FFFFFFF8000
003FFFFFFE0000
000FFFFFFC0000
0003FFFFF00000
0000FFFFC00000
00000FFC000000
ENDCHAR
STARTCHAR 0068
ENCODING 104
SWIDTH 555 0
DWIDTH 37 0
BBX 32 47 2 0
BITMAP
0FC0007F
0FC0007F
0FC0007F
0FC0007F
0FC0007F
0FC0007F
0FC0007F
0FC0007F
0FC0007F
0FC0007F
0FC0007F
0FC0007F
0FC0007F
0FC0007F
0FC0007F
0FC0007F
0FC0007F
0FC0007F
0FC0007F
FFFFFFFF
FFFFFFFF
FFFFFFFF
FFFFFFFF
FFFFFFFF
FFFFFFFF
0FC0007F
0FC0007F
0FC0007F
0FC0007F
0FC0007F
0FC0007F
0FC0007F
0FC0007F
0FC0007F
0FC0007F
0FC0007F
0FC0007F
0FC0007F
0FC0007F
0FC0007F
0FC0007F
0FC0007F
0FC0007F
0FC0007F
0FC0007F
0FC0007F
0FC0007F
ENDCHAR
STARTCHAR 0069
ENCODING 105
SWIDTH 180 0
DWIDTH 12 0
BBX 17 53 -2 0
BITMAP
008000
008000
018000
01C000
01C000
03C000
FFFF80
7FFF00
3FFC00
0FF800
07F000
07F000
0FF000
0E7800
0C1800
180800
000400
000000
000000
000000
000000
000000
000000
000000
07F000
07F000
07F000
07F000
07F000
07F000
07F000
07F000
07F000
07F000
07F000
07F000
07F000
07F000
07F000
07F000
07F000
07F000
07F000
07F000
07F000
07F000
07F000
07F000
07F000
07F000
07F000
07F000
07F000
ENDCHAR
STARTCHAR 006A
ENCODING 106
SWIDTH 465 0
DWIDTH 31 0
BBX 27 48 1 -1
BITMAP
0001FFE0
0001FFE0
0001FFE0
0001FFE0
0001FFE0
0001FFE0
00000FE0
00000FE0
00000FE0
00000FE0
00000FE0
00000FE0
00000FE0
00000FE0
00000FE0
00000FE0
00000FE0
00000FE0
00000FE0
00000FE0
00000FE0
00000FE0
00000FE0
00000FE0
00000FE0
00000FE0
00000FE0
00000FE0
00000FE0
00000FE0
00000FE0
00000FE0
00000FE0
00000FE0
00000FC0
00000FC0
04000FC0
1C001FC0
7C001FC0
FE003F80
FF007F80
7FC0FF00
7FFFFF00
3FFFFE00
1FFFFC00
0FFFF800
03FFE000
007F8000
ENDCHAR
STARTCHAR 006B
ENCODING 107
SWIDTH 525 0
DWIDTH 35 0
BBX 31 47 2 0
BITMAP
0FC003F0
0FC003F0
0FC003F0
0FC003F0
0FC003F0
0FC003F0
0FC003F0
0FC003F0
0FC003F0
0FC003F0
0FC003F0
0FC003F0
0FC007F0
0FC007F0
0FC007F0
0FC007E0
0FC00FE0
0FC00FE0
0FC01FC0
0FC07FC0
FFFFFF80
FFFFFF00
FFFFFF80
FFFFFFC0
FFFFFFE0
FFFFFFF0
0FC01FF8
0FC007F8
0FC003F8
0FC001FC
0FC001FC
0FC000FC
0FC000FE
0FC000FE
0FC000FE
0FC000FE
0FC0007E
0FC0007E
0FC0007E
0FC0007E
0FC0007E
0FC0007E
0FC0007E
0FC0007E
0FC0007E
0FC0007E
0FC0007E
ENDCHAR
STARTCHAR 006C
ENCODING 108
SWIDTH 435 0
DWIDTH 29 0
BBX 24 47 4 0
BITMAP
FC0000
FC0000
FC0000
FC0000
FC0000
FC0000
FC0000
FC0000
FC0000
FC0000
FC0000
FC0000
FC0000
FC0000
FC0000
FC0000
FC0000
FC0000
FC0000
FC0000
FC0000
FC0000
FC0000
FC0000
FC0000
FC0000
FC0000
FC0000
FC0000
FC0000
FC0000
FC0000
FC0000
FC0000
FC0000
FC0000
FC0000
FC0000
FC0000
FC0000
FC0000
FFFFFF
FFFFFF
FFFFFF
FFFFFF
FFFFFF
FFFFFF
ENDCHAR
STARTCHAR 006D
ENCODING 109
SWIDTH 855 0
DWIDTH 57 0
BBX 53 48 1 0
BITMAP
10000000000000
3C0000300001F8
3E0000380001F8
7F00003C0001F8
FF80003F0001F8
7FE0003F8001F8
3FF0003FC001F8
1FF8003FF001F8
0FFE003FF801F8
0FFF003FFC01F8
0FFF803FFE01F8
0FFFC03FFF81F8
0FFFF03FFFC1F8
0FCFF83F3FE1F8
0FC7FC3F1FF1F8
0FC3FE3F0FFDF8
0FC1FFBF03FFF8
0FC07FFF01FFF8
0FC03FFF00FFF8
0FC01FFF007FF8
0FC00FFF001FF8
0FC003FF000FF8
0FC001FF0007F8
0FC000FF0003F8
0FC0003F0001F8
0FC0003F0001F8
0FC0003F0001F8
0FC0003F0001F8
0FC0003F0001F8
0FC0003F0001F8
0FC0003F0001F8
0FC0003F0001F8
0FC0003F0001F8
0FC0003F0001F8
0FC0003F0001F8
0FC0003F0001F8
0FC0003F0001F8
0FC0003F0001F8
0FC0003F0001F8
0FC0003F0001F8
0FC0003F0001F8
0FC0003F0001F8
0FC0003F0001F8
0FC0003F0001F8
0FC0003F0001F8
0FC0003F0001F8
0FC0003F0001F8
0FC0003F0001F8
ENDCHAR
STARTCHAR 006E
ENCODING 110
SWIDTH 525 0
DWIDTH 35 0
BBX 30 48 1 0
BITMAP
10000000
3C0000FC
3E0000FC
7F0000FC
FF8000FC
7FE000FC
3FF000FC
1FF800FC
1FFE00FC
1FFF00FC
1FFF80FC
1FFFC0FC
1FBFF0FC
1F9FF8FC
1F8FFCFC
1F83FFFC
1F81FFFC
1F80FFFC
1F807FFC
1F801FFC
1F800FFC
1F8007FC
1F8001FC
1F8000FC
1F8000FC
1F8000FC
1F8000FC
1F8000FC
1F8000FC
1F8000FC
1F8000FC
1F8000FC
1F8000FC
1F8000FC
1F8000FC
1F8000FC
1F8000FC
1F8000FC
1F8000FC
1F8000FC
1F8000FC
1F8000FC
1F8000FC
1F8000FC
1F8000FC
1F8000FC
1F8000FC
1F8000FC
ENDCHAR
STARTCHAR 006F
ENCODING 111
SWIDTH 810 0
DWIDTH 54 0
BBX 50 49 2 -1
BITMAP
000001F0000000
00007FFF800000
0001FFFFF00000
000FFFFFFC0000
001FFFFFFE0000
007FFFFFFF8000
00FFFC0FFFC000
01FFC000FFE000
03FF00001FF000
07FC00000FF800
07F8000007FC00
0FF0000001FC00
1FE0000001FE00
1FC0000000FF00
3F800000007F00
3F800000003F00
3F000000003F80
7F000000003F80
7E000000001F80
7E000000001FC0
7E000000001FC0
FE000000000FC0
FE000000000FC0
FE000000000FC0
FE000000000FC0
FE000000000FC0
FE000000000FC0
FE000000000FC0
FE000000001FC0
7E000000001FC0
7E000000001FC0
7F000000001F80
7F000000003F80
3F800000003F80
3F800000007F00
1FC0000000FF00
1FE0000000FE00
0FF0000001FE00
0FF0000003FC00
07FC000007F800
03FE00001FF000
01FF80007FF000
00FFF003FFE000
007FFFFFFF8000
003FFFFFFF0000
000FFFFFFC0000
0003FFFFF80000
0000FFFFC00000
00000FFC000000
ENDCHAR
STARTCHAR 0070
ENCODING 112
SWIDTH 555 0
DWIDTH 37 0
BBX 34 47 2 0
BITMAP
1FFFF00000
1FFFFF8000
1FFFFFE000
1FFFFFF800
1FFFFFFC00
1FFFFFFE00
1F800FFF00
1F8000FF00
1F80007F80
1F80003F80
1F80001FC0
1F80001FC0
1F80000FC0
1F80000FC0
1F80000FC0
1F80000FC0
1F80000FC0
1F80001FC0
1F80001FC0
1F80003F80
1F80003F80
1F8000FF00
1F8003FF00
FFFFFFFE00
FFFFFFFC00
FFFFFFF800
FFFFFFF000
FFFFFFC000
FFFFFE0000
1F80000000
1F80000000
1F80000000
1F80000000
1F80000000
1F80000000
1F80000000
1F80000000
1F80000000
1F80000000
1F80000000
1F80000000
1F80000000
1F80000000
1F80000000
1F80000000
1F80000000
1F80000000
ENDCHAR
STARTCHAR 0071
ENCODING 113
SWIDTH 810 0
DWIDTH 54 0
BBX 50 49 2 -2
BITMAP
000001F0000000
00007FFF800000
0001FFFFF00000
000FFFFFFC0000
001FFFFFFE0000
007FFFFFFF8000
00FFFC0FFFC000
01FFC000FFE000
03FF00001FF000
07FC00000FF800
07F8000007FC00
0FF0000001FC00
1FE0000001FE00
1FC0000000FF00
3F800000007F00
3F800000003F00
3F000000003F80
7F000000003F80
7E000000001F80
7E000000001FC0
7E000000001FC0
FE000000000FC0
FE000000000FC0
FE000000000FC0
FE000000000FC0
FE000000000FC0
FE000000000FC0
FE000000000FC0
FE000000001FC0
7E000000001FC0
7E000000001FC0
7F000000001F80
7F000000203F80
3F800000703F80
3F800000F87F00
1FC00001FCFF00
1FE00003FEFE00
0FF00001FFFE00
0FF00000FFFC00
07FC00007FF800
03FE00003FF000
01FF80007FF000
00FFF003FFF800
007FFFFFFFFC00
003FFFFFFFFE00
000FFFFFFDFE00
0003FFFFF8FC00
0000FFFFC07800
00000FFE003000
ENDCHAR
STARTCHAR 0072
ENCODING 114
SWIDTH 585 0
DWIDTH 39 0
BBX 35 47 2 0
BITMAP
0FFFF00000
0FFFFFC000
0FFFFFF000
0FFFFFFC00
0FFFFFFE00
0FFFFFFF00
0FC007FF80
0FC000FF80
0FC0003FC0
0FC0001FC0
0FC0000FC0
0FC0000FE0
0FC0000FE0
0FC00007E0
0FC00007E0
0FC00007E0
0FC0000FE0
0FC0000FE0
0FC0000FC0
0FC0001FC0
0FC0003FC0
0FC000FF80
0FC007FF00
FFFFFFFF00
FFFFFFFC00
FFFFFFF800
FFFFFFF000
FFFFFFF000
0FC0FFF800
0FC007FC00
0FC001FE00
0FC000FE00
0FC0007F00
0FC0007F00
0FC0003F00
0FC0003F00
0FC0003F80
0FC0003F80
0FC0003F80
0FC0003F80
0FC0001F80
0FC0001F80
0FC0001F80
0FC0001F80
0FC0001F80
0FC0001F80
0FC0001F80
ENDCHAR
STARTCHAR 0073
ENCODING 115
SWIDTH 480 0
DWIDTH 32 0
BBX 29 49 2 -1
BITMAP
000F8000
00FFF800
01FFFC00
07FFFF00
0FFFFF80
0FFFFF80
1FF8FFC0
1FC01FE0
3F800FE0
3F8007E0
3F0007F0
3F0003F0
3F0003C0
3F800000
3F800000
1FC00000
1FC00000
1FF00000
0FF80000
07FE0000
03FF0000
01FFC000
00FFF000
003FF800
001FFE00
0007FF00
0001FF80
0000FFC0
00003FE0
00001FE0
00000FF0
000007F0
000003F8
000003F8
000001F8
1C0001F8
FC0001F8
FE0003F8
FE0003F8
7F0003F8
7F8007F0
3FC00FF0
3FF03FE0
1FFFFFE0
0FFFFFC0
07FFFF80
03FFFF00
00FFFC00
001FE000
ENDCHAR
STARTCHAR 0074
ENCODING 116
SWIDTH 495 0
DWIDTH 33 0
BBX 30 47 2 0
BITMAP
FFFFFFFC
FFFFFFFC
FFFFFFFC
FFFFFFFC
FFFFFFFC
FFFFFFFC
000FC000
000FC000
000FC000
000FC000
000FC000
000FC000
000FC000
000FC000
000FC000
000FC000
000FC000
000FC000
000FC000
000FC000
000FC000
000FC000
000FC000
000FC000
000FC000
000FC000
000FC000
000FC000
000FC000
000FC000
000FC000
000FC000
000FC000
000FC000
000FC000
000FC000
000FC000
000FC000
000FC000
000FC000
000FC000
000FC000
000FC000
000FC000
000FC000
000FC000
000FC000
ENDCHAR
STARTCHAR 0075
ENCODING 117
SWIDTH 495 0
DWIDTH 33 0
BBX 28 48 3 -1
BITMAP
FC0003F0
FC0003F0
FC0003F0
FC0003F0
FC0003F0
FC0003F0
FC0003F0
FC0003F0
FC0003F0
FC0003F0
FC0003F0
FC0003F0
FC0003F0
FC0003F0
FC0003F0
FC0003F0
FC0003F0
FC0003F0
FC0003F0
FC0003F0
FC0003F0
FC0003F0
FC0003F0
FC0003F0
FC0003F0
FC0003F0
FC0003F0
FC0003F0
FC0003F0
FC0003F0
FC0003F0
FC0003F0
FC0003F0
FC0003F0
FC0003F0
FE0007F0
FE0007F0
7E0007E0
7F000FE0
7F000FE0
3F801FC0
3FE07FC0
1FFFFF80
0FFFFF00
07FFFE00
03FFFC00
01FFF800
003FC000
ENDCHAR
STARTCHAR 0076
ENCODING 118
SWIDTH 465 0
DWIDTH 31 0
BBX 27 47 1 0
BITMAP
FC0007E0
FC0007E0
FC0007E0
FC0007E0
FC0007E0
FC0007E0
FC0007E0
FC0007E0
FC0007E0
FC0007E0
FC0007E0
FC0007E0
FC0007E0
FC0007E0
FC0007E0
FC0007E0
FC0007E0
FC0007E0
FC0007E0
FC0007E0
FC0007E0
FC0007E0
FC0007E0
FC000FE0
FC000FE0
FC000FE0
FC000FE0
FC000FC0
FE000FC0
FE000FC0
7E000FC0
7E001FC0
7E001FC0
7F001F80
7F003F80
3F003F80
3F803F00
1F807F00
1FC07E00
0FE0FE00
0FE1FC00
07F1FC00
07FBF800
03FFF000
01FFE000
00FFC000
007F8000
ENDCHAR
STARTCHAR 0077
ENCODING 119
SWIDTH 780 0
DWIDTH 52 0
BBX 48 47 1 0
BITMAP
FC0007E0003F
FC0007E0003F
FC0007E0003F
FC0007E0003F
FC0007E0003F
FC0007E0003F
FC0007E0003F
FC0007E0003F
FC0007E0003F
FC0007E0003F
FC0007E0003F
FC0007E0003F
FC0007E0003F
FC0007E0003F
FC0007E0003F
FC0007E0003F
FC0007E0003F
FC0007E0003F
FC0007E0003F
FC0007E0003F
FC0007E0003F
FC0007E0007F
FC0007E0007F
FC000FE0007F
FC000FE0007F
FC000FE0007F
FC000FE0007F
FC000FE0007E
FE000FF0007E
FE000FF0007E
7E000FF000FE
7E001FF000FE
7E001FF000FE
7F001FF800FC
7F003FF801FC
3F003FF801FC
3F803FFC01F8
1F807FFC03F8
1FC07FFE03F0
0FE0FE7E07F0
0FE1FC7F0FE0
07F1FC3F8FE0
07FBF83FDFC0
03FFF01FFF80
01FFE00FFF00
00FFC007FE00
007F8003FC00
ENDCHAR
STARTCHAR 0078
ENCODING 120
SWIDTH 510 0
DWIDTH 34 0
BBX 28 47 3 0
BITMAP
FE0003F0
FE0003F0
FE0003F0
FE0003F0
FE0003F0
FE0003F0
FE0003F0
FE0003F0
FE0003F0
FE0003F0
FE0003F0
FE0003F0
7E0007F0
7F0007F0
7F000FE0
3F800FE0
3FC01FC0
1FF0FFC0
1FFFFF80
0FFFFF00
07FFFE00
07FFFF00
0FFFFF80
1FFFFFC0
3FE03FC0
3F801FE0
7F000FE0
7F0007E0
7E0007F0
7E0003F0
FE0003F0
FE0003F0
FE0003F0
FE0003F0
FE0003F0
FE0003F0
FE0003F0
FE0003F0
FE0003F0
FE0003F0
FE0003F0
FE0003F0
FE0003F0
FE0003F0
FE0003F0
FE0003F0
FE0003F0
ENDCHAR
STARTCHAR 0079
ENCODING 121
SWIDTH 495 0
DWIDTH 33 0
BBX 28 47 3 0
BITMAP
FC0007F0
FC0007F0
FC0007F0
FC0007F0
FC0007F0
FC0007F0
FC0007F0
FC0007F0
FC0007F0
FC0007F0
FC0007F0
FC0007F0
FC0007F0
FC0007F0
FC0007F0
FC0007F0
FC0007F0
FC0007F0
FC0007F0
FC0007F0
FC0007F0
FC0007F0
FC0007F0
FC0007E0
FC0007E0
FE0007E0
FE000FE0
7F001FC0
7F803FC0
3FC07F80
3FFFFF80
1FFFFF00
0FFFFE00
07FFFC00
01FFF000
007FC000
001F8000
001F8000
001F8000
001F8000
001F8000
001F8000
001F8000
001F8000
001F8000
001F8000
001F8000
ENDCHAR
STARTCHAR 007A
ENCODING 122
SWIDTH 495 0
DWIDTH 33 0
BBX 30 47 2 0
BITMAP
FFFFFFFC
FFFFFFFC
FFFFFFFC
FFFFFFFC
FFFFFFFC
FFFFFFF8
000007F0
000007F0
00000FE0
00000FE0
00001FC0
00001F80
00003F80
00007F00
00007F00
0000FE00
0000FC00
0001FC00
0003F800
0003F800
0007F000
0007E000
000FE000
001FC000
001FC000
003F8000
007F8000
007F0000
00FE0000
00FE0000
01FC0000
03FC0000
03F80000
07F00000
07F00000
0FE00000
1FE00000
1FC00000
3F800000
3F800000
7F000000
7FFFFFF8
FFFFFFF8
FFFFFFF8
FFFFFFF8
FFFFFFF8
FFFFFFF8
ENDCHAR
STARTCHAR 007B
ENCODING 123
SWIDTH 330 0
DWIDTH 22 0
BBX 15 63 4 -9
BITMAP
00FE
01FE
03FE
07FE
07E0
07C0
07C0
07C0
07C0
07C0
07C0
07C0
07C0
07C0
07C0
07C0
07C0
07C0
07C0
07C0
07C0
07C0
07C0
0780
0F80
0F80
0F80
1F00
7F00
FE00
FE00
FC00
FE00
FE00
7F00
1F00
0F80
0F80
0F80
0780
07C0
07C0
07C0
07C0
07C0
07C0
07C0
07C0
07C0
07C0
07C0
07C0
07C0
07C0
07C0
07C0
07C0
07C0
07E0
07FE
03FE
01FE
00FE
ENDCHAR
STARTCHAR 007C
ENCODING 124
SWIDTH 150 0
DWIDTH 10 0
BBX 3 54 4 -7
BITMAP
E0
E0
E0
E0
E0
E0
E0
E0
E0
E0
E0
E0
E0
E0
E0
E0
E0
E0
E0
E0
E0
E0
E0
E0
E0
E0
E0
E0
E0
E0
E0
E0
E0
E0
E0
E0
E0
E0
E0
E0
E0
E0
E0
E0
E0
E0
E0
E0
E0
E0
E0
E0
E0
E0
ENDCHAR
STARTCHAR 007D
ENCODING 125
SWIDTH 330 0
DWIDTH 22 0
BBX 15 63 4 -9
BITMAP
FC00
FF00
FF80
FF80
0FC0
07C0
07C0
07C0
07C0
07C0
07C0
07C0
07C0
07C0
07C0
07C0
07C0
07C0
07C0
07C0
07C0
07C0
07C0
07C0
07C0
03E0
03E0
03F0
01FC
01FE
00FE
007E
00FE
01FE
01FC
03F0
03E0
03E0
07C0
07C0
07C0
07C0
07C0
07C0
07C0
07C0
07C0
07C0
07C0
07C0
07C0
07C0
07C0
07C0
07C0
07C0
07C0
07C0
0FC0
FF80
FF80
FF00
FE00
ENDCHAR
STARTCHAR 007E
ENCODING 126
SWIDTH 540 0
DWIDTH 36 0
BBX 29 7 4 18
BITMAP
7FF00000
FFFF8018
FFFFFFF8
FFFFFFF8
FFFFFFF8
801FFFF8
0000FFE0
ENDCHAR
STARTCHAR 00A1
ENCODING 161
SWIDTH 240 0
DWIDTH 16 0
BBX 9 47 4 -7
BITMAP
3E00
7F00
FF80
FF80
FF80
FF80
FF80
FF80
7F00
0800
0000
0000
0000
0000
0000
0000
0000
7E00
7E00
7E00
7E00
7E00
7E00
7E00
7E00
7E00
7E00
7E00
7E00
7E00
7E00
7E00
7E00
7E00
7E00
7E00
7E00
7E00
7E00
7E00
7E00
7E00
7E00
7E00
7E00
7E00
7E00
ENDCHAR
STARTCHAR 00A2
ENCODING 162
SWIDTH 510 0
DWIDTH 34 0
BBX 27 41 4 3
BITMAP
000F8000
000F8000
000F8000
000F8000
000F8000
003FF800
00FFFE00
03FFFF00
07FFFFC0
0FFFFFE0
1FEF9FE0
3F8F87C0
3F0F8380
7E0F8000
7C0F8000
FC0F8000
F80F8000
F80F8000
F80F8000
F80F8000
F80F8000
F80F8000
F80F8000
F80F8000
F80F8000
FC0F8000
7C0F8000
7E0F8000
7F0F8100
3F8F8380
1FCF8FE0
0FFFFFE0
07FFFFC0
03FFFF80
01FFFE00
007FF800
000FC000
000F8000
000F8000
000F8000
000F8000
ENDCHAR
STARTCHAR 00A3
ENCODING 163
SWIDTH 540 0
DWIDTH 36 0
BBX 29 47 4 0
BITMAP
0003FFE0
001FFFF8
007FFFF8
00FFFFF8
01FFFFF8
03FFFFF8
07FF0038
07FC0008
0FF00000
0FF00000
0FE00000
0FC00000
1FC00000
1FC00000
1FC00000
1FC00000
0FC00000
0FC00000
0FE00000
0FE00000
07E00000
07F00000
FFFFFF80
FFFFFF80
FFFFFF80
FFFFFF80
01F80000
01FC0000
00FC0000
00FC0000
00FE0000
00FE0000
007E0000
007E0000
007E0000
00FE0000
00FE0000
01FC0000
01FC0000
07F80000
3FF80000
FFE00000
FFFFFFF8
FFFFFFF8
FFFFFFF8
FFFFFFF8
FFFFFFF8
ENDCHAR
STARTCHAR 00A4
ENCODING 164
SWIDTH 570 0
DWIDTH 38 0
BBX 31 31 4 6
BITMAP
30000010
70000038
F807C07C
FC7FF8FE
7FFFFFFC
3FFFFFF8
1FFFFFF0
0FE01FE0
0F8007E0
1F0003E0
1E0001F0
3E0001F0
3E0000F0
3C0000F8
3C0000F8
3C0000F8
3C0000F8
3C0000F8
3C0000F0
3E0001F0
3E0001F0
1F0003E0
1F8007E0
0FC00FC0
1FF87FE0
3FFFFFF0
7FFFFFF8
FE7FFCFC
FC0FE07C
78000038
30000010
ENDCHAR
STARTCHAR 00A5
ENCODING 165
SWIDTH 630 0
DWIDTH 42 0
BBX 35 47 4 0
BITMAP
FE00000FE0
FE00001FE0
7F00001FC0
7F00001FC0
3F80003F80
3F80003F00
1FC0007F00
1FC0007E00
0FE000FE00
0FF000FC00
07F001FC00
07F801F800
03F803F800
03FC03F000
01FC07F000
01FE07E000
00FE0FE000
00FF0FC000
007F1FC000
007F9F8000
003FBF8000
003FFF0000
001FFF0000
001FFE0000
0FFFFFFC00
0FFFFFFC00
0FFFFFFC00
0FFFFFFC00
0FFFFFFC00
0003F80000
0003F80000
0003F80000
0003F80000
0FFFFFFC00
0FFFFFFC00
0FFFFFFC00
0FFFFFFC00
0FFFFFFC00
0003F80000
0003F80000
0003F80000
0003F80000
0003F80000
0003F80000
0003F80000
0003F80000
0003F80000
ENDCHAR
STARTCHAR 00A6
ENCODING 166
SWIDTH 150 0
DWIDTH 10 0
BBX 3 54 4 -7
BITMAP
E0
E0
E0
E0
E0
E0
E0
E0
E0
E0
E0
E0
E0
E0
E0
E0
E0
E0
E0
E0
00
00
00
00
00
00
00
00
00
00
00
00
00
00
E0
E0
E0
E0
E0
E0
E0
E0
E0
E0
E0
E0
E0
E0
E0
E0
E0
E0
E0
E0
ENDCHAR
STARTCHAR 00A7
ENCODING 167
SWIDTH 465 0
DWIDTH 31 0
BBX 24 55 4 -8
BITMAP
01FF80
07FFE0
0FFFF0
1FFFF8
1FFFFC
3FE3FC
3F80FE
3F007E
3F007E
3F007F
3F0030
3F0000
3F8000
1FE000
0FF000
07FC00
03FE00
01FF80
01FFE0
0FFFF0
1FFFF8
3FFFFC
7F83FE
7E00FE
FC007F
FC003F
F8003F
FC003F
FC003F
FC003F
7E007E
7F81FE
3FFFFC
1FFFF8
0FFFF0
07FF80
01FF00
007FC0
003FE0
000FF0
0007F8
0001F8
0001FC
0C00FC
7C00FC
FE00FC
7E00FC
7F01FC
3FC3FC
3FFFF8
1FFFF8
0FFFF0
07FFE0
01FF80
003000
ENDCHAR
STARTCHAR 00A8
ENCODING 168
SWIDTH 360 0
DWIDTH 24 0
BBX 25 10 0 50
BITMAP
00001800
3F007E00
7F80FF00
7FC1FF80
FFC1FF80
FFC1FF80
FFC1FF80
7FC0FF00
3F80FF00
1F007E00
ENDCHAR
STARTCHAR 00A9
ENCODING 169
SWIDTH 840 0
DWIDTH 56 0
BBX 49 49 4 -1
BITMAP
000003F0000000
0000FFFF000000
0003FFFFE00000
000FFFFFF80000
003FC001FE0000
007E00007F0000
01F800001F8000
03F0000007C000
07E0000003E000
0780000001F000
0F00000000F800
1F000000007800
1E000FF8003C00
3C003FFE003C00
3C00FFFF001E00
7801FFFF801E00
7803F81FC00F00
7003E007800F00
F007C002000F00
F0078000000700
F00F8000000780
F00F0000000780
E00F0000000780
E00F0000000780
E00F0000000780
E00F0000000780
E00F0000000780
E00F0000000780
F00F8000000780
F00F8000000780
F007C000000F00
F007E007000F00
7803F80F800F00
7801FFFFC01E00
7C00FFFF801E00
3C007FFF003E00
3E001FFC003C00
1E0001C0007C00
0F00000000F800
0F80000001F000
07C0000003E000
03E0000007E000
01F800000FC000
00FE00003F0000
003F8001FE0000
001FFE7FFC0000
0007FFFFF00000
0001FFFFC00000
00001FFC000000
ENDCHAR
STARTCHAR 00AB
ENCODING 171
SWIDTH 540 0
DWIDTH 36 0
BBX 29 29 4 6
BITMAP
003F81F8
003F03F0
007E07E0
00FC07E0
01FC0FC0
01F81F80
03F03F00
07E03F00
0FC07E00
0FC0FC00
1F81F800
3F01F800
7E03F000
7E07E000
FC0FC000
FE07E000
7E03F000
3F03F800
1F81F800
1FC0FC00
0FC07E00
07E07F00
03F03F00
01F81F80
01F80FC0
00FC07E0
007E07E0
003F03F0
003F81F8
ENDCHAR
STARTCHAR 00AC
ENCODING 172
SWIDTH 555 0
DWIDTH 37 0
BBX 30 18 4 7
BITMAP
FFFFFFFC
FFFFFFFC
FFFFFFFC
FFFFFFFC
FFFFFFFC
000000FC
000000FC
000000FC
000000FC
000000FC
000000FC
000000FC
000000FC
000000FC
000000FC
000000FC
000000FC
000000FC
ENDCHAR
STARTCHAR 00AE
ENCODING 174
SWIDTH 495 0
DWIDTH 33 0
BBX 26 26 4 22
BITMAP
007F8000
03FFE000
07F3F800
1F003C00
1C001E00
38000F00
707F0700
707F8380
E063C380
E061C180
C061C1C0
C061C1C0
C1FF81C0
C1FF01C0
C06781C0
C06181C0
E061C180
E061C380
7061C380
70000700
38000E00
1E001E00
0F007C00
07FFF000
01FFE000
003F0000
ENDCHAR
STARTCHAR 00AF
ENCODING 175
SWIDTH 270 0
DWIDTH 18 0
BBX 19 5 0 53
BITMAP
FFFFE0
FFFFE0
FFFFE0
FFFFE0
FFFFE0
ENDCHAR
STARTCHAR 00B0
ENCODING 176
SWIDTH 330 0
DWIDTH 22 0
BBX 15 15 4 32
BITMAP
1FE0
3FF0
7FF8
F83C
F01C
E01E
E00E
E00E
E01E
E01C
F03C
7EFC
3FF8
1FE0
0780
ENDCHAR
STARTCHAR 00B1
ENCODING 177
SWIDTH 555 0
DWIDTH 37 0
BBX 30 28 4 7
BITMAP
000F8000
000F8000
000F8000
000F8000
000F8000
000F8000
000F8000
000F8000
FFFFFFFC
FFFFFFFC
FFFFFFFC
FFFFFFFC
FFFFFFFC
000F8000
000F8000
000F8000
000F8000
000F8000
000F8000
000F8000
00000000
00000000
00000000
00000000
FFFFFFFC
FFFFFFFC
FFFFFFFC
FFFFFFFC
ENDCHAR
STARTCHAR 00B4
ENCODING 180
SWIDTH 150 0
DWIDTH 10 0
BBX 10 8 0 51
BITMAP
07C0
0F80
1F00
1F00
3E00
3C00
7800
F800
ENDCHAR
STARTCHAR 00B6
ENCODING 182
SWIDTH 465 0
DWIDTH 31 0
BBX 24 54 4 -7
BITMAP
007F07
03FF07
07FF07
0FFF07
1FFF07
3FFF07
7FFF07
7FFF07
FFFF07
FFFF07
FFFF07
FFFF07
FFFF07
FFFF07
FFFF07
FFFF07
FFFF07
FFFF07
7FFF07
7FFF07
3FFF07
1FFF07
0FFF07
07FF07
01FF07
007F07
000707
000707
000707
000707
000707
000707
000707
000707
000707
000707
000707
000707
000707
000707
000707
000707
000707
000707
000707
000707
000707
000707
000707
000707
000707
000707
000707
000707
ENDCHAR
STARTCHAR 00B7
ENCODING 183
SWIDTH 240 0
DWIDTH 16 0
BBX 9 9 4 13
BITMAP
3E00
7F00
FF80
FF80
FF80
FF80
FF80
FF00
7E00
ENDCHAR
STARTCHAR 00B8
ENCODING 184
SWIDTH 210 0
DWIDTH 14 0
BBX 14 14 0 -14
BITMAP
01E0
01C0
03C0
03F0
01F8
003C
001C
001C
201C
701C
FC7C
7FF8
3FF8
0FE0
ENDCHAR
STARTCHAR 00BB
ENCODING 187
SWIDTH 540 0
DWIDTH 36 0
BBX 29 29 4 6
BITMAP
FC0FE000
7E07E000
7F03F000
3F01F800
1F81FC00
0FC0FC00
0FE07E00
07E03F00
03F03F80
01F81F80
01FC0FC0
00FC07E0
007E07F0
003F03F0
001F81F8
003F01F8
007E03F0
007E07E0
00FC0FC0
01F81FC0
03F01F80
03F03F00
07E07E00
0FC0FC00
1F80FC00
3F01F800
3F03F000
7E07E000
FC07E000
ENDCHAR
STARTCHAR 00BF
ENCODING 191
SWIDTH 420 0
DWIDTH 28 0
BBX 21 48 4 -7
BITMAP
003800
00FE00
01FF00
01FF00
01FF00
01FF00
01FF00
01FF00
00FE00
007C00
000000
000000
000000
000000
000000
000000
007C00
007C00
007C00
007C00
00FC00
00FC00
00FC00
00F800
01F800
03F800
03F000
07F000
07E000
0FC000
1F8000
3F8000
3F0000
7E0000
FE0000
FC0000
FC0000
FC0000
F800E0
FC01F8
FC01F8
FC03F0
FF07F0
7FFFE0
7FFFE0
3FFFC0
1FFF80
07FE00
ENDCHAR
STARTCHAR 00C0
ENCODING 192
SWIDTH 555 0
DWIDTH 37 0
BBX 33 59 3 0
BITMAP
00F8000000
007C000000
007C000000
003E000000
001E000000
000F000000
000F000000
0007800000
0000000000
0000000000
0000000000
000F800000
007FF00000
01FFFC0000
07FFFE0000
0FFFFF0000
0FFFFF8000
1FF07FC000
3FC01FE000
3F800FE000
7F0007E000
7F0007F000
7E0007F000
7E0003F000
FE0003F000
FE0003F000
FE0003F800
FE0003F800
FE0003F800
FE0003F800
FE0003F800
FE0003F800
FE0003F800
FE0003F800
FE0003F800
FE0003F800
FE0003F800
FE0003F800
FE0003F800
FE0003F800
FE0003F800
FE0003F800
FE0003F800
FE0003F800
FE0003F800
FE0003F800
FE0003F800
FE0003F800
FE0003F800
FE0003F800
FE0003F800
FE0003F800
FE0003F800
FFFFFFFF80
FFFFFFFF80
FFFFFFFF80
FFFFFFFF80
FFFFFFFF80
FFFFFFFF80
ENDCHAR
STARTCHAR 00C1
ENCODING 193
SWIDTH 555 0
DWIDTH 37 0
BBX 33 59 3 0
BITMAP
0000F80000
0001F00000
0001F00000
0003E00000
0007C00000
0007800000
000F800000
000F000000
0000000000
0000000000
0000000000
000F800000
007FF00000
01FFFC0000
07FFFE0000
0FFFFF0000
0FFFFF8000
1FF07FC000
3FC01FE000
3F800FE000
7F0007E000
7F0007F000
7E0007F000
7E0003F000
FE0003F000
FE0003F000
FE0003F800
FE0003F800
FE0003F800
FE0003F800
FE0003F800
FE0003F800
FE0003F800
FE0003F800
FE0003F800
FE0003F800
FE0003F800
FE0003F800
FE0003F800
FE0003F800
FE0003F800
FE0003F800
FE0003F800
FE0003F800
FE0003F800
FE0003F800
FE0003F800
FE0003F800
FE0003F800
FE0003F800
FE0003F800
FE0003F800
FE0003F800
FFFFFFFF80
FFFFFFFF80
FFFFFFFF80
FFFFFFFF80
FFFFFFFF80
FFFFFFFF80
ENDCHAR
STARTCHAR 00C2
ENCODING 194
SWIDTH 555 0
DWIDTH 37 0
BBX 33 59 3 0
BITMAP
003FE00000
003FE00000
007FF00000
00FDF80000
01F8FC0000
03F07C0000
03E03E0000
07C01F0000
0000000000
0000000000
0000000000
000F800000
007FF00000
01FFFC0000
07FFFE0000
0FFFFF0000
0FFFFF8000
1FF07FC000
3FC01FE000
3F800FE000
7F0007E000
7F0007F000
7E0007F000
7E0003F000
FE0003F000
FE0003F000
FE0003F800
FE0003F800
FE0003F800
FE0003F800
FE0003F800
FE0003F800
FE0003F800
FE0003F800
FE0003F800
FE0003F800
FE0003F800
FE0003F800
FE0003F800
FE0003F800
FE0003F800
FE0003F800
FE0003F800
FE0003F800
FE0003F800
FE0003F800
FE0003F800
FE0003F800
FE0003F800
FE0003F800
FE0003F800
FE0003F800
FE0003F800
FFFFFFFF80
FFFFFFFF80
FFFFFFFF80
FFFFFFFF80
FFFFFFFF80
FFFFFFFF80
ENDCHAR
STARTCHAR 00C3
ENCODING 195
SWIDTH 555 0
DWIDTH 37 0
BBX 33 59 3 0
BITMAP
01F0000000
03FF180000
03FFF80000
03FFF80000
020FF80000
0001E00000
0000000000
0000000000
0000000000
0000000000
0000000000
000F800000
007FF00000
01FFFC0000
07FFFE0000
0FFFFF0000
0FFFFF8000
1FF07FC000
3FC01FE000
3F800FE000
7F0007E000
7F0007F000
7E0007F000
7E0003F000
FE0003F000
FE0003F000
FE0003F800
FE0003F800
FE0003F800
FE0003F800
FE0003F800
FE0003F800
FE0003F800
FE0003F800
FE0003F800
FE0003F800
FE0003F800
FE0003F800
FE0003F800
FE0003F800
FE0003F800
FE0003F800
FE0003F800
FE0003F800
FE0003F800
FE0003F800
FE0003F800
FE0003F800
FE0003F800
FE0003F800
FE0003F800
FE0003F800
FE0003F800
FFFFFFFF80
FFFFFFFF80
FFFFFFFF80
FFFFFFFF80
FFFFFFFF80
FFFFFFFF80
ENDCHAR
STARTCHAR 00C4
ENCODING 196
SWIDTH 555 0
DWIDTH 37 0
BBX 33 60 3 0
BITMAP
0100020000
0FC01F8000
1FE03FC000
1FF03FE000
1FF07FE000
3FF07FE000
1FF07FE000
1FF03FE000
0FE03FC000
07C00F8000
0000000000
0000000000
000F800000
007FF00000
01FFFC0000
07FFFE0000
0FFFFF0000
0FFFFF8000
1FF07FC000
3FC01FE000
3F800FE000
7F0007E000
7F0007F000
7E0007F000
7E0003F000
FE0003F000
FE0003F000
FE0003F800
FE0003F800
FE0003F800
FE0003F800
FE0003F800
FE0003F800
FE0003F800
FE0003F800
FE0003F800
FE0003F800
FE0003F800
FE0003F800
FE0003F800
FE0003F800
FE0003F800
FE0003F800
FE0003F800
FE0003F800
FE0003F800
FE0003F800
FE0003F800
FE0003F800
FE0003F800
FE0003F800
FE0003F800
FE0003F800
FE0003F800
FFFFFFFF80
FFFFFFFF80
FFFFFFFF80
FFFFFFFF80
FFFFFFFF80
FFFFFFFF80
ENDCHAR
STARTCHAR 00C5
ENCODING 197
SWIDTH 555 0
DWIDTH 37 0
BBX 33 64 3 0
BITMAP
000F800000
003FE00000
007FF00000
00F8F00000
00F0780000
00E0380000
00E0380000
00E0380000
00E0780000
00F0F80000
007FF00000
003FE00000
001FC00000
0000000000
0000000000
0000000000
000F800000
007FF00000
01FFFC0000
07FFFE0000
0FFFFF0000
0FFFFF8000
1FF07FC000
3FC01FE000
3F800FE000
7F0007E000
7F0007F000
7E0007F000
7E0003F000
FE0003F000
FE0003F000
FE0003F800
FE0003F800
FE0003F800
FE0003F800
FE0003F800
FE0003F800
FE0003F800
FE0003F800
FE0003F800
FE0003F800
FE0003F800
FE0003F800
FE0003F800
FE0003F800
FE0003F800
FE0003F800
FE0003F800
FE0003F800
FE0003F800
FE0003F800
FE0003F800
FE0003F800
FE0003F800
FE0003F800
FE0003F800
FE0003F800
FE0003F800
FFFFFFFF80
FFFFFFFF80
FFFFFFFF80
FFFFFFFF80
FFFFFFFF80
FFFFFFFF80
ENDCHAR
STARTCHAR 00C7
ENCODING 199
SWIDTH 675 0
DWIDTH 45 0
BBX 43 62 2 -14
BITMAP
000001F00000
00007FFF0000
0003FFFFE000
000FFFFFF800
001FFFFFFE00
007FFFFFFF00
00FFFC1FFF80
01FFC001FFC0
03FF00007FE0
07FC00001FC0
07F800000F80
0FF000000700
1FE000000200
1FC000000000
3F8000000000
3F8000000000
3F0000000000
7F0000000000
7F0000000000
7E0000000000
7E0000000000
FE0000000000
FE0000000000
FE0000000000
FE0000000000
FE0000000000
FE0000000000
FE0000000000
FE0000000000
7E0000000000
7E0000000000
7F0000000000
7F0000000000
3F8000000000
3F8000000000
1FC000000000
1FE000000000
0FE000000600
0FF000000F00
07FC00001FC0
03FE00003FE0
01FF8000FFC0
00FFF007FF80
007FFFFFFF00
003FFFFFFE00
000FFFFFF800
0003FFFFF000
0000FFFF8000
00000FFC0000
000007800000
000007800000
000007E00000
000003F00000
000000700000
000000780000
000000380000
0000C0380000
0001E0780000
0001F0F80000
0000FFF00000
00007FE00000
00001FC00000
ENDCHAR
STARTCHAR 00C8
ENCODING 200
SWIDTH 495 0
DWIDTH 33 0
BBX 31 59 2 0
BITMAP
01F00000
00F80000
00F80000
007C0000
003C0000
001E0000
001F0000
000F0000
00000000
00000000
00000000
00000000
0FFFFE00
0FFFFE00
0FFFFE00
0FFFFE00
0FFFFE00
0FFFFE00
0FC00000
0FC00000
0FC00000
0FC00000
0FC00000
0FC00000
0FC00000
0FC00000
0FC00000
0FC00000
0FC00000
0FC00000
0FC00000
0FC00000
0FC00000
FFFFFFC0
FFFFFFC0
FFFFFFC0
FFFFFFC0
FFFFFFC0
0FC00000
0FC00000
0FC00000
0FC00000
0FC00000
0FC00000
0FC00000
0FC00000
0FC00000
0FC00000
0FC00000
0FC00000
0FC00000
0FC00000
0FC00000
0FFFFFFE
0FFFFFFE
0FFFFFFE
0FFFFFFE
0FFFFFFE
0FFFFFFE
ENDCHAR
STARTCHAR 00C9
ENCODING 201
SWIDTH 495 0
DWIDTH 33 0
BBX 31 59 2 0
BITMAP
0001F000
0003E000
0003E000
0007C000
00078000
000F0000
001F0000
001E0000
00000000
00000000
00000000
00000000
0FFFFE00
0FFFFE00
0FFFFE00
0FFFFE00
0FFFFE00
0FFFFE00
0FC00000
0FC00000
0FC00000
0FC00000
0FC00000
0FC00000
0FC00000
0FC00000
0FC00000
0FC00000
0FC00000
0FC00000
0FC00000
0FC00000
0FC00000
FFFFFFC0
FFFFFFC0
FFFFFFC0
FFFFFFC0
FFFFFFC0
0FC00000
0FC00000
0FC00000
0FC00000
0FC00000
0FC00000
0FC00000
0FC00000
0FC00000
0FC00000
0FC00000
0FC00000
0FC00000
0FC00000
0FC00000
0FFFFFFE
0FFFFFFE
0FFFFFFE
0FFFFFFE
0FFFFFFE
0FFFFFFE
ENDCHAR
STARTCHAR 00CA
ENCODING 202
SWIDTH 495 0
DWIDTH 33 0
BBX 31 59 2 0
BITMAP
007FC000
007FC000
00FFE000
01FBF000
03F1F800
03E0FC00
07C07C00
0F803E00
00000000
00000000
00000000
00000000
0FFFFE00
0FFFFE00
0FFFFE00
0FFFFE00
0FFFFE00
0FFFFE00
0FC00000
0FC00000
0FC00000
0FC00000
0FC00000
0FC00000
0FC00000
0FC00000
0FC00000
0FC00000
0FC00000
0FC00000
0FC00000
0FC00000
0FC00000
FFFFFFC0
FFFFFFC0
FFFFFFC0
FFFFFFC0
FFFFFFC0
0FC00000
0FC00000
0FC00000
0FC00000
0FC00000
0FC00000
0FC00000
0FC00000
0FC00000
0FC00000
0FC00000
0FC00000
0FC00000
0FC00000
0FC00000
0FFFFFFE
0FFFFFFE
0FFFFFFE
0FFFFFFE
0FFFFFFE
0FFFFFFE
ENDCHAR
STARTCHAR 00CB
ENCODING 203
SWIDTH 495 0
DWIDTH 33 0
BBX 31 60 2 0
BITMAP
02000000
1FC03F00
3FE07F80
3FE07FC0
3FE0FFC0
3FE0FFC0
3FE0FFC0
3FE07FC0
1FC03F80
0F801F00
00000000
00000000
00000000
0FFFFE00
0FFFFE00
0FFFFE00
0FFFFE00
0FFFFE00
0FFFFE00
0FC00000
0FC00000
0FC00000
0FC00000
0FC00000
0FC00000
0FC00000
0FC00000
0FC00000
0FC00000
0FC00000
0FC00000
0FC00000
0FC00000
0FC00000
FFFFFFC0
FFFFFFC0
FFFFFFC0
FFFFFFC0
FFFFFFC0
0FC00000
0FC00000
0FC00000
0FC00000
0FC00000
0FC00000
0FC00000
0FC00000
0FC00000
0FC00000
0FC00000
0FC00000
0FC00000
0FC00000
0FC00000
0FFFFFFE
0FFFFFFE
0FFFFFFE
0FFFFFFE
0FFFFFFE
0FFFFFFE
ENDCHAR
STARTCHAR 00CC
ENCODING 204
SWIDTH 195 0
DWIDTH 13 0
BBX 10 41 0 0
BITMAP
F800
7C00
3C00
3E00
1F00
0F00
0780
0780
0000
0000
0000
0000
0FC0
0FC0
0FC0
0FC0
0FC0
0FC0
0FC0
0FC0
0FC0
0FC0
0FC0
0FC0
0FC0
0FC0
0FC0
0FC0
0FC0
0FC0
0FC0
0FC0
0FC0
0FC0
0FC0
0FC0
0FC0
0FC0
0FC0
0FC0
0FC0
ENDCHAR
STARTCHAR 00CD
ENCODING 205
SWIDTH 195 0
DWIDTH 13 0
BBX 9 41 4 0
BITMAP
0F80
1F80
1F00
3E00
3C00
7C00
7800
F000
0000
0000
0000
0000
FC00
FC00
FC00
FC00
FC00
FC00
FC00
FC00
FC00
FC00
FC00
FC00
FC00
FC00
FC00
FC00
FC00
FC00
FC00
FC00
FC00
FC00
FC00
FC00
FC00
FC00
FC00
FC00
FC00
ENDCHAR
STARTCHAR 00CE
ENCODING 206
SWIDTH 195 0
DWIDTH 13 0
BBX 19 41 -3 0
BITMAP
03FC00
07FE00
0FFE00
1F9F00
1F1F80
3E0FC0
7C07C0
FC03E0
000000
000000
000000
000000
01F800
01F800
01F800
01F800
01F800
01F800
01F800
01F800
01F800
01F800
01F800
01F800
01F800
01F800
01F800
01F800
01F800
01F800
01F800
01F800
01F800
01F800
01F800
01F800
01F800
01F800
01F800
01F800
01F800
ENDCHAR
STARTCHAR 00CF
ENCODING 207
SWIDTH 195 0
DWIDTH 13 0
BBX 24 42 -5 0
BITMAP
000010
3F00FC
7F81FE
FF81FF
FFC1FF
FFC3FF
FF81FF
FF81FF
7F00FE
3E007C
000000
000000
000000
007E00
007E00
007E00
007E00
007E00
007E00
007E00
007E00
007E00
007E00
007E00
007E00
007E00
007E00
007E00
007E00
007E00
007E00
007E00
007E00
007E00
007E00
007E00
007E00
007E00
007E00
007E00
007E00
007E00
ENDCHAR
STARTCHAR 00D1
ENCODING 209
SWIDTH 525 0
DWIDTH 35 0
BBX 30 59 1 0
BITMAP
007C0000
00FFC600
00FFFE00
00FFFE00
0083FE00
00007800
00000000
00000000
00000000
00000000
00000000
10000000
3C0000FC
3E0000FC
7F0000FC
FF8000FC
7FE000FC
3FF000FC
1FF800FC
1FFE00FC
1FFF00FC
1FFF80FC
1FFFC0FC
1FBFF0FC
1F9FF8FC
1F8FFCFC
1F83FFFC
1F81FFFC
1F80FFFC
1F807FFC
1F801FFC
1F800FFC
1F8007FC
1F8001FC
1F8000FC
1F8000FC
1F8000FC
1F8000FC
1F8000FC
1F8000FC
1F8000FC
1F8000FC
1F8000FC
1F8000FC
1F8000FC
1F8000FC
1F8000FC
1F8000FC
1F8000FC
1F8000FC
1F8000FC
1F8000FC
1F8000FC
1F8000FC
1F8000FC
1F8000FC
1F8000FC
1F8000FC
1F8000FC
ENDCHAR
STARTCHAR 00D2
ENCODING 210
SWIDTH 810 0
DWIDTH 54 0
BBX 50 60 2 -1
BITMAP
00003F00000000
00001F00000000
00000F80000000
000007C0000000
000003C0000000
000003E0000000
000001E0000000
000000F0000000
00000000000000
00000000000000
00000000000000
000001F0000000
00007FFF800000
0001FFFFF00000
000FFFFFFC0000
001FFFFFFE0000
007FFFFFFF8000
00FFFC0FFFC000
01FFC000FFE000
03FF00001FF000
07FC00000FF800
07F8000007FC00
0FF0000001FC00
1FE0000001FE00
1FC0000000FF00
3F800000007F00
3F800000003F00
3F000000003F80
7F000000003F80
7E000000001F80
7E000000001FC0
7E000000001FC0
FE000000000FC0
FE000000000FC0
FE000000000FC0
FE000000000FC0
FE000000000FC0
FE000000000FC0
FE000000000FC0
FE000000001FC0
7E000000001FC0
7E000000001FC0
7F000000001F80
7F000000003F80
3F800000003F80
3F800000007F00
1FC0000000FF00
1FE0000000FE00
0FF0000001FE00
0FF0000003FC00
07FC000007F800
03FE00001FF000
01FF80007FF000
00FFF003FFE000
007FFFFFFF8000
003FFFFFFF0000
000FFFFFFC0000
0003FFFFF80000
0000FFFFC00000
00000FFC000000
ENDCHAR
STARTCHAR 00D3
ENCODING 211
SWIDTH 810 0
DWIDTH 54 0
BBX 50 60 2 -1
BITMAP
0000001F000000
0000003E000000
0000007C000000
00000078000000
000000F8000000
000000F0000000
000001E0000000
000003E0000000
00000000000000
00000000000000
00000000000000
000001F0000000
00007FFF800000
0001FFFFF00000
000FFFFFFC0000
001FFFFFFE0000
007FFFFFFF8000
00FFFC0FFFC000
01FFC000FFE000
03FF00001FF000
07FC00000FF800
07F8000007FC00
0FF0000001FC00
1FE0000001FE00
1FC0000000FF00
3F800000007F00
3F800000003F00
3F000000003F80
7F000000003F80
7E000000001F80
7E000000001FC0
7E000000001FC0
FE000000000FC0
FE000000000FC0
FE000000000FC0
FE000000000FC0
FE000000000FC0
FE000000000FC0
FE000000000FC0
FE000000001FC0
7E000000001FC0
7E000000001FC0
7F000000001F80
7F000000003F80
3F800000003F80
3F800000007F00
1FC0000000FF00
1FE0000000FE00
0FF0000001FE00
0FF0000003FC00
07FC000007F800
03FE00001FF000
01FF80007FF000
00FFF003FFE000
007FFFFFFF8000
003FFFFFFF0000
000FFFFFFC0000
0003FFFFF80000
0000FFFFC00000
00000FFC000000
ENDCHAR
STARTCHAR 00D4
ENCODING 212
SWIDTH 810 0
DWIDTH 54 0
BBX 50 60 2 -1
BITMAP
000007F8000000
00000FFC000000
00000FFE000000
00001F3F000000
00003F1F000000
00007E0F800000
00007C07C00000
0000F807E00000
00000000000000
00000000000000
00000000000000
000001F0000000
00007FFF800000
0001FFFFF00000
000FFFFFFC0000
001FFFFFFE0000
007FFFFFFF8000
00FFFC0FFFC000
01FFC000FFE000
03FF00001FF000
07FC00000FF800
07F8000007FC00
0FF0000001FC00
1FE0000001FE00
1FC0000000FF00
3F800000007F00
3F800000003F00
3F000000003F80
7F000000003F80
7E000000001F80
7E000000001FC0
7E000000001FC0
FE000000000FC0
FE000000000FC0
FE000000000FC0
FE000000000FC0
FE000000000FC0
FE000000000FC0
FE000000000FC0
FE000000001FC0
7E000000001FC0
7E000000001FC0
7F000000001F80
7F000000003F80
3F800000003F80
3F800000007F00
1FC0000000FF00
1FE0000000FE00
0FF0000001FE00
0FF0000003FC00
07FC000007F800
03FE00001FF000
01FF80007FF000
00FFF003FFE000
007FFFFFFF8000
003FFFFFFF0000
000FFFFFFC0000
0003FFFFF80000
0000FFFFC00000
00000FFC000000
ENDCHAR
STARTCHAR 00D5
ENCODING 213
SWIDTH 810 0
DWIDTH 54 0
BBX 50 60 2 -1
BITMAP
00003E00000000
0000FFE7000000
0000FFFF000000
0000FFFF000000
0000C1FF000000
0000003C000000
00000000000000
00000000000000
00000000000000
00000000000000
00000000000000
000001F0000000
00007FFF800000
0001FFFFF00000
000FFFFFFC0000
001FFFFFFE0000
007FFFFFFF8000
00FFFC0FFFC000
01FFC000FFE000
03FF00001FF000
07FC00000FF800
07F8000007FC00
0FF0000001FC00
1FE0000001FE00
1FC0000000FF00
3F800000007F00
3F800000003F00
3F000000003F80
7F000000003F80
7E000000001F80
7E000000001FC0
7E000000001FC0
FE000000000FC0
FE000000000FC0
FE000000000FC0
FE000000000FC0
FE000000000FC0
FE000000000FC0
FE000000000FC0
FE000000001FC0
7E000000001FC0
7E000000001FC0
7F000000001F80
7F000000003F80
3F800000003F80
3F800000007F00
1FC0000000FF00
1FE0000000FE00
0FF0000001FE00
0FF0000003FC00
07FC000007F800
03FE00001FF000
01FF80007FF000
00FFF003FFE000
007FFFFFFF8000
003FFFFFFF0000
000FFFFFFC0000
0003FFFFF80000
0000FFFFC00000
00000FFC000000
ENDCHAR
STARTCHAR 00D6
ENCODING 214
SWIDTH 810 0
DWIDTH 54 0
BBX 50 61 2 -1
BITMAP
00002000000000
0001F803F00000
0003FC07F80000
0003FE0FFC0000
0007FE0FFC0000
0007FE0FFC0000
0007FE0FFC0000
0003FE07F80000
0003FC07F80000
0000F801E00000
00000000000000
00000000000000
000001F0000000
00007FFF800000
0001FFFFF00000
000FFFFFFC0000
001FFFFFFE0000
007FFFFFFF8000
00FFFC0FFFC000
01FFC000FFE000
03FF00001FF000
07FC00000FF800
07F8000007FC00
0FF0000001FC00
1FE0000001FE00
1FC0000000FF00
3F800000007F00
3F800000003F00
3F000000003F80
7F000000003F80
7E000000001F80
7E000000001FC0
7E000000001FC0
FE000000000FC0
FE000000000FC0
FE000000000FC0
FE000000000FC0
FE000000000FC0
FE000000000FC0
FE000000000FC0
FE000000001FC0
7E000000001FC0
7E000000001FC0
7F000000001F80
7F000000003F80
3F800000003F80
3F800000007F00
1FC0000000FF00
1FE0000000FE00
0FF0000001FE00
0FF0000003FC00
07FC000007F800
03FE00001FF000
01FF80007FF000
00FFF003FFE000
007FFFFFFF8000
003FFFFFFF0000
000FFFFFFC0000
0003FFFFF80000
0000FFFFC00000
00000FFC000000
ENDCHAR
STARTCHAR 00D7
ENCODING 215
SWIDTH 510 0
DWIDTH 34 0
BBX 27 27 4 9
BITMAP
10000100
38000380
7C0007C0
FE000FE0
FF001FC0
7F803F80
3FC07F00
1FE0FE00
0FF1FC00
07FBF800
03FFF000
01FFE000
00FFC000
007F8000
007FC000
00FFE000
01FFF000
03FFF800
07F3FC00
0FE1FE00
1FC0FF00
3F807F80
7F003FC0
FE001FE0
FC000FC0
78000780
30000300
ENDCHAR
STARTCHAR 00D8
ENCODING 216
SWIDTH 795 0
DWIDTH 53 0
BBX 50 51 1 -2
BITMAP
00000000000800
000003F8001C00
00003FFFC03E00
0001FFFFF07F00
0007FFFFFCFE00
001FFFFFFFFC00
003FFFFFFFF800
007FFC07FFF000
00FFE0007FF000
01FF00001FF000
03FE00001FF800
07F800003FFC00
0FF000003FFE00
0FE000007EFE00
1FC00000FC7F00
1FC00001F87F00
3F800003F03F80
3F800007E03F80
3F00000FE01F80
7F00001FC01FC0
7F00001F801FC0
7E00003F000FC0
7E00007E000FC0
7E0000FC000FC0
7E0001F8000FC0
FE0003F0000FC0
7E0007F0000FC0
7E0007E0000FC0
7E000FC0000FC0
7E001F80000FC0
7E003F00000FC0
7F007E00001FC0
7F00FC00001FC0
3F81F800003F80
3F83F800003F80
1FC3F000007F00
1FC7E000007F00
0FEFC00000FE00
0FFF800001FE00
07FF000003FC00
03FE000007FC00
03FF00001FF800
01FFC0007FF000
01FFF803FFE000
03FFFFFFFFC000
07FFFFFFFF0000
0FCFFFFFFE0000
1F83FFFFF80000
1F007FFFC00000
0F0007FC000000
06000000000000
ENDCHAR
STARTCHAR 00D9
ENCODING 217
SWIDTH 495 0
DWIDTH 33 0
BBX 28 60 3 -1
BITMAP
01F80000
00F80000
007C0000
003C0000
003E0000
001E0000
000F0000
00078000
00000000
00000000
00000000
00000000
FC0003F0
FC0003F0
FC0003F0
FC0003F0
FC0003F0
FC0003F0
FC0003F0
FC0003F0
FC0003F0
FC0003F0
FC0003F0
FC0003F0
FC0003F0
FC0003F0
FC0003F0
FC0003F0
FC0003F0
FC0003F0
FC0003F0
FC0003F0
FC0003F0
FC0003F0
FC0003F0
FC0003F0
FC0003F0
FC0003F0
FC0003F0
FC0003F0
FC0003F0
FC0003F0
FC0003F0
FC0003F0
FC0003F0
FC0003F0
FC0003F0
FE0007F0
FE0007F0
7E0007E0
7F000FE0
7F000FE0
3F801FC0
3FE07FC0
1FFFFF80
0FFFFF00
07FFFE00
03FFFC00
01FFF800
003FC000
ENDCHAR
STARTCHAR 00DA
ENCODING 218
SWIDTH 495 0
DWIDTH 33 0
BBX 28 60 3 -1
BITMAP
0001F800
0001F000
0003E000
0003C000
0007C000
000F8000
000F0000
001E0000
00000000
00000000
00000000
00000000
FC0003F0
FC0003F0
FC0003F0
FC0003F0
FC0003F0
FC0003F0
FC0003F0
FC0003F0
FC0003F0
FC0003F0
FC0003F0
FC0003F0
FC0003F0
FC0003F0
FC0003F0
FC0003F0
FC0003F0
FC0003F0
FC0003F0
FC0003F0
FC0003F0
FC0003F0
FC0003F0
FC0003F0
FC0003F0
FC0003F0
FC0003F0
FC0003F0
FC0003F0
FC0003F0
FC0003F0
FC0003F0
FC0003F0
FC0003F0
FC0003F0
FE0007F0
FE0007F0
7E0007E0
7F000FE0
7F000FE0
3F801FC0
3FE07FC0
1FFFFF80
0FFFFF00
07FFFE00
03FFFC00
01FFF800
003FC000
ENDCHAR
STARTCHAR 00DB
ENCODING 219
SWIDTH 495 0
DWIDTH 33 0
BBX 28 60 3 -1
BITMAP
003FC000
007FE000
00FFF000
00F9F000
01F0F800
03E0FC00
07E07E00
0FC03E00
00000100
00000000
00000000
00000000
FC0003F0
FC0003F0
FC0003F0
FC0003F0
FC0003F0
FC0003F0
FC0003F0
FC0003F0
FC0003F0
FC0003F0
FC0003F0
FC0003F0
FC0003F0
FC0003F0
FC0003F0
FC0003F0
FC0003F0
FC0003F0
FC0003F0
FC0003F0
FC0003F0
FC0003F0
FC0003F0
FC0003F0
FC0003F0
FC0003F0
FC0003F0
FC0003F0
FC0003F0
FC0003F0
FC0003F0
FC0003F0
FC0003F0
FC0003F0
FC0003F0
FE0007F0
FE0007F0
7E0007E0
7F000FE0
7F000FE0
3F801FC0
3FE07FC0
1FFFFF80
0FFFFF00
07FFFE00
03FFFC00
01FFF800
003FC000
ENDCHAR
STARTCHAR 00DC
ENCODING 220
SWIDTH 495 0
DWIDTH 33 0
BBX 28 60 3 0
BITMAP
0FC01F80
1FE03FC0
3FF07FC0
3FF07FE0
3FF07FE0
3FF07FC0
1FE07FC0
1FE03F80
07801F00
00000000
00000000
00000000
FC0003F0
FC0003F0
FC0003F0
FC0003F0
FC0003F0
FC0003F0
FC0003F0
FC0003F0
FC0003F0
FC0003F0
FC0003F0
FC0003F0
FC0003F0
FC0003F0
FC0003F0
FC0003F0
FC0003F0
FC0003F0
FC0003F0
FC0003F0
FC0003F0
FC0003F0
FC0003F0
FC0003F0
FC0003F0
FC0003F0
FC0003F0
FC0003F0
FC0003F0
FC0003F0
FC0003F0
FC0003F0
FC0003F0
FC0003F0
FC0003F0
FE0007F0
FE0007F0
7E0007E0
7F000FE0
7F000FE0
3F801FC0
3FE07FC0
1FFFFF80
0FFFFF00
07FFFE00
03FFFC00
01FFF800
003FC000
ENDCHAR
STARTCHAR 00DD
ENCODING 221
SWIDTH 495 0
DWIDTH 33 0
BBX 28 59 3 0
BITMAP
0001F000
0003E000
0003E000
0007C000
00078000
000F0000
000F0000
001E0000
00000000
00000000
00000000
00000000
FC0007F0
FC0007F0
FC0007F0
FC0007F0
FC0007F0
FC0007F0
FC0007F0
FC0007F0
FC0007F0
FC0007F0
FC0007F0
FC0007F0
FC0007F0
FC0007F0
FC0007F0
FC0007F0
FC0007F0
FC0007F0
FC0007F0
FC0007F0
FC0007F0
FC0007F0
FC0007F0
FC0007E0
FC0007E0
FE0007E0
FE000FE0
7F001FC0
7F803FC0
3FC07F80
3FFFFF80
1FFFFF00
0FFFFE00
07FFFC00
01FFF000
007FC000
001F8000
001F8000
001F8000
001F8000
001F8000
001F8000
001F8000
001F8000
001F8000
001F8000
001F8000
ENDCHAR
STARTCHAR 00E0
ENCODING 224
SWIDTH 555 0
DWIDTH 37 0
BBX 33 59 3 0
BITMAP
00F8000000
007C000000
007C000000
003E000000
001E000000
000F000000
000F000000
0007800000
0000000000
0000000000
0000000000
000F800000
007FF00000
01FFFC0000
07FFFE0000
0FFFFF0000
0FFFFF8000
1FF07FC000
3FC01FE000
3F800FE000
7F0007E000
7F0007F000
7E0007F000
7E0003F000
FE0003F000
FE0003F000
FE0003F800
FE0003F800
FE0003F800
FE0003F800
FE0003F800
FE0003F800
FE0003F800
FE0003F800
FE0003F800
FE0003F800
FE0003F800
FE0003F800
FE0003F800
FE0003F800
FE0003F800
FE0003F800
FE0003F800
FE0003F800
FE0003F800
FE0003F800
FE0003F800
FE0003F800
FE0003F800
FE0003F800
FE0003F800
FE0003F800
FE0003F800
FFFFFFFF80
FFFFFFFF80
FFFFFFFF80
FFFFFFFF80
FFFFFFFF80
FFFFFFFF80
ENDCHAR
STARTCHAR 00E1
ENCODING 225
SWIDTH 555 0
DWIDTH 37 0
BBX 33 59 3 0
BITMAP
0000F80000
0001F00000
0001F00000
0003E00000
0007C00000
0007800000
000F800000
000F000000
0000000000
0000000000
0000000000
000F800000
007FF00000
01FFFC0000
07FFFE0000
0FFFFF0000
0FFFFF8000
1FF07FC000
3FC01FE000
3F800FE000
7F0007E000
7F0007F000
7E0007F000
7E0003F000
FE0003F000
FE0003F000
FE0003F800
FE0003F800
FE0003F800
FE0003F800
FE0003F800
FE0003F800
FE0003F800
FE0003F800
FE0003F800
FE0003F800
FE0003F800
FE0003F800
FE0003F800
FE0003F800
FE0003F800
FE0003F800
FE0003F800
FE0003F800
FE0003F800
FE0003F800
FE0003F800
FE0003F800
FE0003F800
FE0003F800
FE0003F800
FE0003F800
FE0003F800
FFFFFFFF80
FFFFFFFF80
FFFFFFFF80
FFFFFFFF80
FFFFFFFF80
FFFFFFFF80
ENDCHAR
STARTCHAR 00E2
ENCODING 226
SWIDTH 555 0
DWIDTH 37 0
BBX 33 59 3 0
BITMAP
003FE00000
003FE00000
007FF00000
00FDF80000
01F8FC0000
03F07C0000
03E03E0000
07C01F0000
0000000000
0000000000
0000000000
000F800000
007FF00000
01FFFC0000
07FFFE0000
0FFFFF0000
0FFFFF8000
1FF07FC000
3FC01FE000
3F800FE000
7F0007E000
7F0007F000
7E0007F000
7E0003F000
FE0003F000
FE0003F000
FE0003F800
FE0003F800
FE0003F800
FE0003F800
FE0003F800
FE0003F800
FE0003F800
FE0003F800
FE0003F800
FE0003F800
FE0003F800
FE0003F800
FE0003F800
FE0003F800
FE0003F800
FE0003F800
FE0003F800
FE0003F800
FE0003F800
FE0003F800
FE0003F800
FE0003F800
FE0003F800
FE0003F800
FE0003F800
FE0003F800
FE0003F800
FFFFFFFF80
FFFFFFFF80
FFFFFFFF80
FFFFFFFF80
FFFFFFFF80
FFFFFFFF80
ENDCHAR
STARTCHAR 00E3
ENCODING 227
SWIDTH 555 0
DWIDTH 37 0
BBX 33 59 3 0
BITMAP
01F0000000
03FF180000
03FFF80000
03FFF80000
020FF80000
0001E00000
0000000000
0000000000
0000000000
0000000000
0000000000
000F800000
007FF00000
01FFFC0000
07FFFE0000
0FFFFF0000
0FFFFF8000
1FF07FC000
3FC01FE000
3F800FE000
7F0007E000
7F0007F000
7E0007F000
7E0003F000
FE0003F000
FE0003F000
FE0003F800
FE0003F800
FE0003F800
FE0003F800
FE0003F800
FE0003F800
FE0003F800
FE0003F800
FE0003F800
FE0003F800
FE0003F800
FE0003F800
FE0003F800
FE0003F800
FE0003F800
FE0003F800
FE0003F800
FE0003F800
FE0003F800
FE0003F800
FE0003F800
FE0003F800
FE0003F800
FE0003F800
FE0003F800
FE0003F800
FE0003F800
FFFFFFFF80
FFFFFFFF80
FFFFFFFF80
FFFFFFFF80
FFFFFFFF80
FFFFFFFF80
ENDCHAR
STARTCHAR 00E4
ENCODING 228
SWIDTH 555 0
DWIDTH 37 0
BBX 33 60 3 0
BITMAP
0100020000
0FC01F8000
1FE03FC000
1FF03FE000
1FF07FE000
3FF07FE000
1FF07FE000
1FF03FE000
0FE03FC000
07C00F8000
0000000000
0000000000
000F800000
007FF00000
01FFFC0000
07FFFE0000
0FFFFF0000
0FFFFF8000
1FF07FC000
3FC01FE000
3F800FE000
7F0007E000
7F0007F000
7E0007F000
7E0003F000
FE0003F000
FE0003F000
FE0003F800
FE0003F800
FE0003F800
FE0003F800
FE0003F800
FE0003F800
FE0003F800
FE0003F800
FE0003F800
FE0003F800
FE0003F800
FE0003F800
FE0003F800
FE0003F800
FE0003F800
FE0003F800
FE0003F800
FE0003F800
FE0003F800
FE0003F800
FE0003F800
FE0003F800
FE0003F800
FE0003F800
FE0003F800
FE0003F800
FE0003F800
FFFFFFFF80
FFFFFFFF80
FFFFFFFF80
FFFFFFFF80
FFFFFFFF80
FFFFFFFF80
ENDCHAR
STARTCHAR 00E5
ENCODING 229
SWIDTH 555 0
DWIDTH 37 0
BBX 33 64 3 0
BITMAP
000F800000
003FE00000
007FF00000
00F8F00000
00F0780000
00E0380000
00E0380000
00E0380000
00E0780000
00F0F80000
007FF00000
003FE00000
001FC00000
0000000000
0000000000
0000000000
000F800000
007FF00000
01FFFC0000
07FFFE0000
0FFFFF0000
0FFFFF8000
1FF07FC000
3FC01FE000
3F800FE000
7F0007E000
7F0007F000
7E0007F000
7E0003F000
FE0003F000
FE0003F000
FE0003F800
FE0003F800
FE0003F800
FE0003F800
FE0003F800
FE0003F800
FE0003F800
FE0003F800
FE0003F800
FE0003F800
FE0003F800
FE0003F800
FE0003F800
FE0003F800
FE0003F800
FE0003F800
FE0003F800
FE0003F800
FE0003F800
FE0003F800
FE0003F800
FE0003F800
FE0003F800
FE0003F800
FE0003F800
FE0003F800
FE0003F800
FFFFFFFF80
FFFFFFFF80
FFFFFFFF80
FFFFFFFF80
FFFFFFFF80
FFFFFFFF80
ENDCHAR
STARTCHAR 00E7
ENCODING 231
SWIDTH 675 0
DWIDTH 45 0
BBX 43 62 2 -14
BITMAP
000001F00000
00007FFF0000
0003FFFFE000
000FFFFFF800
001FFFFFFE00
007FFFFFFF00
00FFFC1FFF80
01FFC001FFC0
03FF00007FE0
07FC00001FC0
07F800000F80
0FF000000700
1FE000000200
1FC000000000
3F8000000000
3F8000000000
3F0000000000
7F0000000000
7F0000000000
7E0000000000
7E0000000000
FE0000000000
FE0000000000
FE0000000000
FE0000000000
FE0000000000
FE0000000000
FE0000000000
FE0000000000
7E0000000000
7E0000000000
7F0000000000
7F0000000000
3F8000000000
3F8000000000
1FC000000000
1FE000000000
0FE000000600
0FF000000F00
07FC00001FC0
03FE00003FE0
01FF8000FFC0
00FFF007FF80
007FFFFFFF00
003FFFFFFE00
000FFFFFF800
0003FFFFF000
0000FFFF8000
00000FFC0000
000007800000
000007800000
000007E00000
000003F00000
000000700000
000000780000
000000380000
0000C0380000
0001E0780000
0001F0F80000
0000FFF00000
00007FE00000
00001FC00000
ENDCHAR
STARTCHAR 00E8
ENCODING 232
SWIDTH 495 0
DWIDTH 33 0
BBX 31 59 2 0
BITMAP
01F00000
00F80000
00F80000
007C0000
003C0000
001E0000
001F0000
000F0000
00000000
00000000
00000000
00000000
0FFFFE00
0FFFFE00
0FFFFE00
0FFFFE00
0FFFFE00
0FFFFE00
0FC00000
0FC00000
0FC00000
0FC00000
0FC00000
0FC00000
0FC00000
0FC00000
0FC00000
0FC00000
0FC00000
0FC00000
0FC00000
0FC00000
0FC00000
FFFFFFC0
FFFFFFC0
FFFFFFC0
FFFFFFC0
FFFFFFC0
0FC00000
0FC00000
0FC00000
0FC00000
0FC00000
0FC00000
0FC00000
0FC00000
0FC00000
0FC00000
0FC00000
0FC00000
0FC00000
0FC00000
0FC00000
0FFFFFFE
0FFFFFFE
0FFFFFFE
0FFFFFFE
0FFFFFFE
0FFFFFFE
ENDCHAR
STARTCHAR 00E9
ENCODING 233
SWIDTH 495 0
DWIDTH 33 0
BBX 31 59 2 0
BITMAP
0001F000
0003E000
0003E000
0007C000
00078000
000F0000
001F0000
001E0000
00000000
00000000
00000000
00000000
0FFFFE00
0FFFFE00
0FFFFE00
0FFFFE00
0FFFFE00
0FFFFE00
0FC00000
0FC00000
0FC00000
0FC00000
0FC00000
0FC00000
0FC00000
0FC00000
0FC00000
0FC00000
0FC00000
0FC00000
0FC00000
0FC00000
0FC00000
FFFFFFC0
FFFFFFC0
FFFFFFC0
FFFFFFC0
FFFFFFC0
0FC00000
0FC00000
0FC00000
0FC00000
0FC00000
0FC00000
0FC00000
0FC00000
0FC00000
0FC00000
0FC00000
0FC00000
0FC00000
0FC00000
0FC00000
0FFFFFFE
0FFFFFFE
0FFFFFFE
0FFFFFFE
0FFFFFFE
0FFFFFFE
ENDCHAR
STARTCHAR 00EA
ENCODING 234
SWIDTH 495 0
DWIDTH 33 0
BBX 31 59 2 0
BITMAP
007FC000
007FC000
00FFE000
01FBF000
03F1F800
03E0FC00
07C07C00
0F803E00
00000000
00000000
00000000
00000000
0FFFFE00
0FFFFE00
0FFFFE00
0FFFFE00
0FFFFE00
0FFFFE00
0FC00000
0FC00000
0FC00000
0FC00000
0FC00000
0FC00000
0FC00000
0FC00000
0FC00000
0FC00000
0FC00000
0FC00000
0FC00000
0FC00000
0FC00000
FFFFFFC0
FFFFFFC0
FFFFFFC0
FFFFFFC0
FFFFFFC0
0FC00000
0FC00000
0FC00000
0FC00000
0FC00000
0FC00000
0FC00000
0FC00000
0FC00000
0FC00000
0FC00000
0FC00000
0FC00000
0FC00000
0FC00000
0FFFFFFE
0FFFFFFE
0FFFFFFE
0FFFFFFE
0FFFFFFE
0FFFFFFE
ENDCHAR
STARTCHAR 00EB
ENCODING 235
SWIDTH 495 0
DWIDTH 33 0
BBX 31 60 2 0
BITMAP
02000000
1FC03F00
3FE07F80
3FE07FC0
3FE0FFC0
3FE0FFC0
3FE0FFC0
3FE07FC0
1FC03F80
0F801F00
00000000
00000000
00000000
0FFFFE00
0FFFFE00
0FFFFE00
0FFFFE00
0FFFFE00
0FFFFE00
0FC00000
0FC00000
0FC00000
0FC00000
0FC00000
0FC00000
0FC00000
0FC00000
0FC00000
0FC00000
0FC00000
0FC00000
0FC00000
0FC00000
0FC00000
FFFFFFC0
FFFFFFC0
FFFFFFC0
FFFFFFC0
FFFFFFC0
0FC00000
0FC00000
0FC00000
0FC00000
0FC00000
0FC00000
0FC00000
0FC00000
0FC00000
0FC00000
0FC00000
0FC00000
0FC00000
0FC00000
0FC00000
0FFFFFFE
0FFFFFFE
0FFFFFFE
0FFFFFFE
0FFFFFFE
0FFFFFFE
ENDCHAR
STARTCHAR 00EC
ENCODING 236
SWIDTH 195 0
DWIDTH 13 0
BBX 10 41 0 0
BITMAP
F800
7C00
3C00
3E00
1F00
0F00
0780
0780
0000
0000
0000
0000
0FC0
0FC0
0FC0
0FC0
0FC0
0FC0
0FC0
0FC0
0FC0
0FC0
0FC0
0FC0
0FC0
0FC0
0FC0
0FC0
0FC0
0FC0
0FC0
0FC0
0FC0
0FC0
0FC0
0FC0
0FC0
0FC0
0FC0
0FC0
0FC0
ENDCHAR
STARTCHAR 00ED
ENCODING 237
SWIDTH 195 0
DWIDTH 13 0
BBX 9 41 4 0
BITMAP
0F80
1F80
1F00
3E00
3C00
7C00
7800
F000
0000
0000
0000
0000
FC00
FC00
FC00
FC00
FC00
FC00
FC00
FC00
FC00
FC00
FC00
FC00
FC00
FC00
FC00
FC00
FC00
FC00
FC00
FC00
FC00
FC00
FC00
FC00
FC00
FC00
FC00
FC00
FC00
ENDCHAR
STARTCHAR 00EE
ENCODING 238
SWIDTH 195 0
DWIDTH 13 0
BBX 19 41 -3 0
BITMAP
03FC00
07FE00
0FFE00
1F9F00
1F1F80
3E0FC0
7C07C0
FC03E0
000000
000000
000000
000000
01F800
01F800
01F800
01F800
01F800
01F800
01F800
01F800
01F800
01F800
01F800
01F800
01F800
01F800
01F800
01F800
01F800
01F800
01F800
01F800
01F800
01F800
01F800
01F800
01F800
01F800
01F800
01F800
01F800
ENDCHAR
STARTCHAR 00EF
ENCODING 239
SWIDTH 195 0
DWIDTH 13 0
BBX 24 42 -5 0
BITMAP
000010
3F00FC
7F81FE
FF81FF
FFC1FF
FFC3FF
FF81FF
FF81FF
7F00FE
3E007C
000000
000000
000000
007E00
007E00
007E00
007E00
007E00
007E00
007E00
007E00
007E00
007E00
007E00
007E00
007E00
007E00
007E00
007E00
007E00
007E00
007E00
007E00
007E00
007E00
007E00
007E00
007E00
007E00
007E00
007E00
007E00
ENDCHAR
STARTCHAR 00F1
ENCODING 241
SWIDTH 525 0
DWIDTH 35 0
BBX 30 59 1 0
BITMAP
007C0000
00FFC600
00FFFE00
00FFFE00
0083FE00
00007800
00000000
00000000
00000000
00000000
00000000
10000000
3C0000FC
3E0000FC
7F0000FC
FF8000FC
7FE000FC
3FF000FC
1FF800FC
1FFE00FC
1FFF00FC
1FFF80FC
1FFFC0FC
1FBFF0FC
1F9FF8FC
1F8FFCFC
1F83FFFC
1F81FFFC
1F80FFFC
1F807FFC
1F801FFC
1F800FFC
1F8007FC
1F8001FC
1F8000FC
1F8000FC
1F8000FC
1F8000FC
1F8000FC
1F8000FC
1F8000FC
1F8000FC
1F8000FC
1F8000FC
1F8000FC
1F8000FC
1F8000FC
1F8000FC
1F8000FC
1F8000FC
1F8000FC
1F8000FC
1F8000FC
1F8000FC
1F8000FC
1F8000FC
1F8000FC
1F8000FC
1F8000FC
ENDCHAR
STARTCHAR 00F2
ENCODING 242
SWIDTH 810 0
DWIDTH 54 0
BBX 50 60 2 -1
BITMAP
00003F00000000
00001F00000000
00000F80000000
000007C0000000
000003C0000000
000003E0000000
000001E0000000
000000F0000000
00000000000000
00000000000000
00000000000000
000001F0000000
00007FFF800000
0001FFFFF00000
000FFFFFFC0000
001FFFFFFE0000
007FFFFFFF8000
00FFFC0FFFC000
01FFC000FFE000
03FF00001FF000
07FC00000FF800
07F8000007FC00
0FF0000001FC00
1FE0000001FE00
1FC0000000FF00
3F800000007F00
3F800000003F00
3F000000003F80
7F000000003F80
7E000000001F80
7E000000001FC0
7E000000001FC0
FE000000000FC0
FE000000000FC0
FE000000000FC0
FE000000000FC0
FE000000000FC0
FE000000000FC0
FE000000000FC0
FE000000001FC0
7E000000001FC0
7E000000001FC0
7F000000001F80
7F000000003F80
3F800000003F80
3F800000007F00
1FC0000000FF00
1FE0000000FE00
0FF0000001FE00
0FF0000003FC00
07FC000007F800
03FE00001FF000
01FF80007FF000
00FFF003FFE000
007FFFFFFF8000
003FFFFFFF0000
000FFFFFFC0000
0003FFFFF80000
0000FFFFC00000
00000FFC000000
ENDCHAR
STARTCHAR 00F3
ENCODING 243
SWIDTH 810 0
DWIDTH 54 0
BBX 50 60 2 -1
BITMAP
0000001F000000
0000003E000000
0000007C000000
00000078000000
000000F8000000
000000F0000000
000001E0000000
000003E0000000
00000000000000
00000000000000
00000000000000
000001F0000000
00007FFF800000
0001FFFFF00000
000FFFFFFC0000
001FFFFFFE0000
007FFFFFFF8000
00FFFC0FFFC000
01FFC000FFE000
03FF00001FF000
07FC00000FF800
07F8000007FC00
0FF0000001FC00
1FE0000001FE00
1FC0000000FF00
3F800000007F00
3F800000003F00
3F000000003F80
7F000000003F80
7E000000001F80
7E000000001FC0
7E000000001FC0
FE000000000FC0
FE000000000FC0
FE000000000FC0
FE000000000FC0
FE000000000FC0
FE000000000FC0
FE000000000FC0
FE000000001FC0
7E000000001FC0
7E000000001FC0
7F000000001F80
7F000000003F80
3F800000003F80
3F800000007F00
1FC0000000FF00
1FE0000000FE00
0FF0000001FE00
0FF0000003FC00
07FC000007F800
03FE00001FF000
01FF80007FF000
00FFF003FFE000
007FFFFFFF8000
003FFFFFFF0000
000FFFFFFC0000
0003FFFFF80000
0000FFFFC00000
00000FFC000000
ENDCHAR
STARTCHAR 00F4
ENCODING 244
SWIDTH 810 0
DWIDTH 54 0
BBX 50 60 2 -1
BITMAP
000007F8000000
00000FFC000000
00000FFE000000
00001F3F000000
00003F1F000000
00007E0F800000
00007C07C00000
0000F807E00000
00000000000000
00000000000000
00000000000000
000001F0000000
00007FFF800000
0001FFFFF00000
000FFFFFFC0000
001FFFFFFE0000
007FFFFFFF8000
00FFFC0FFFC000
01FFC000FFE000
03FF00001FF000
07FC00000FF800
07F8000007FC00
0FF0000001FC00
1FE0000001FE00
1FC0000000FF00
3F800000007F00
3F800000003F00
3F000000003F80
7F000000003F80
7E000000001F80
7E000000001FC0
7E000000001FC0
FE000000000FC0
FE000000000FC0
FE000000000FC0
FE000000000FC0
FE000000000FC0
FE000000000FC0
FE000000000FC0
FE000000001FC0
7E000000001FC0
7E000000001FC0
7F000000001F80
7F000000003F80
3F800000003F80
3F800000007F00
1FC0000000FF00
1FE0000000FE00
0FF0000001FE00
0FF0000003FC00
07FC000007F800
03FE00001FF000
01FF80007FF000
00FFF003FFE000
007FFFFFFF8000
003FFFFFFF0000
000FFFFFFC0000
0003FFFFF80000
0000FFFFC00000
00000FFC000000
ENDCHAR
STARTCHAR 00F5
ENCODING 245
SWIDTH 810 0
DWIDTH 54 0
BBX 50 60 2 -1
BITMAP
00003E00000000
0000FFE7000000
0000FFFF000000
0000FFFF000000
0000C1FF000000
0000003C000000
00000000000000
00000000000000
00000000000000
00000000000000
00000000000000
000001F0000000
00007FFF800000
0001FFFFF00000
000FFFFFFC0000
001FFFFFFE0000
007FFFFFFF8000
00FFFC0FFFC000
01FFC000FFE000
03FF00001FF000
07FC00000FF800
07F8000007FC00
0FF0000001FC00
1FE0000001FE00
1FC0000000FF00
3F800000007F00
3F800000003F00
3F000000003F80
7F000000003F80
7E000000001F80
7E000000001FC0
7E000000001FC0
FE000000000FC0
FE000000000FC0
FE000000000FC0
FE000000000FC0
FE000000000FC0
FE000000000FC0
FE000000000FC0
FE000000001FC0
7E000000001FC0
7E000000001FC0
7F000000001F80
7F000000003F80
3F800000003F80
3F800000007F00
1FC0000000FF00
1FE0000000FE00
0FF0000001FE00
0FF0000003FC00
07FC000007F800
03FE00001FF000
01FF80007FF000
00FFF003FFE000
007FFFFFFF8000
003FFFFFFF0000
000FFFFFFC0000
0003FFFFF80000
0000FFFFC00000
00000FFC000000
ENDCHAR
STARTCHAR 00F6
ENCODING 246
SWIDTH 810 0
DWIDTH 54 0
BBX 50 61 2 -1
BITMAP
00002000000000
0001F803F00000
0003FC07F80000
0003FE0FFC0000
0007FE0FFC0000
0007FE0FFC0000
0007FE0FFC0000
0003FE07F80000
0003FC07F80000
0000F801E00000
00000000000000
00000000000000
000001F0000000
00007FFF800000
0001FFFFF00000
000FFFFFFC0000
001FFFFFFE0000
007FFFFFFF8000
00FFFC0FFFC000
01FFC000FFE000
03FF00001FF000
07FC00000FF800
07F8000007FC00
0FF0000001FC00
1FE0000001FE00
1FC0000000FF00
3F800000007F00
3F800000003F00
3F000000003F80
7F000000003F80
7E000000001F80
7E000000001FC0
7E000000001FC0
FE000000000FC0
FE000000000FC0
FE000000000FC0
FE000000000FC0
FE000000000FC0
FE000000000FC0
FE000000000FC0
FE000000001FC0
7E000000001FC0
7E000000001FC0
7F000000001F80
7F000000003F80
3F800000003F80
3F800000007F00
1FC0000000FF00
1FE0000000FE00
0FF0000001FE00
0FF0000003FC00
07FC000007F800
03FE00001FF000
01FF80007FF000
00FFF003FFE000
007FFFFFFF8000
003FFFFFFF0000
000FFFFFFC0000
0003FFFFF80000
0000FFFFC00000
00000FFC000000
ENDCHAR
STARTCHAR 00F7
ENCODING 247
SWIDTH 555 0
DWIDTH 37 0
BBX 30 29 4 7
BITMAP
000F8000
001FC000
001FE000
003FE000
003FE000
001FE000
001FC000
000F8000
00000000
00000000
00000000
00000000
FFFFFFFC
FFFFFFFC
FFFFFFFC
FFFFFFFC
FFFFFFFC
00000000
00000000
00000000
00000000
000F8000
001FC000
001FE000
003FE000
003FE000
001FE000
001FC000
000F8000
ENDCHAR
STARTCHAR 00F8
ENCODING 248
SWIDTH 795 0
DWIDTH 53 0
BBX 50 51 1 -2
BITMAP
00000000000800
000003F8001C00
00003FFFC03E00
0001FFFFF07F00
0007FFFFFCFE00
001FFFFFFFFC00
003FFFFFFFF800
007FFC07FFF000
00FFE0007FF000
01FF00001FF000
03FE00001FF800
07F800003FFC00
0FF000003FFE00
0FE000007EFE00
1FC00000FC7F00
1FC00001F87F00
3F800003F03F80
3F800007E03F80
3F00000FE01F80
7F00001FC01FC0
7F00001F801FC0
7E00003F000FC0
7E00007E000FC0
7E0000FC000FC0
7E0001F8000FC0
FE0003F0000FC0
7E0007F0000FC0
7E0007E0000FC0
7E000FC0000FC0
7E001F80000FC0
7E003F00000FC0
7F007E00001FC0
7F00FC00001FC0
3F81F800003F80
3F83F800003F80
1FC3F000007F00
1FC7E000007F00
0FEFC00000FE00
0FFF800001FE00
07FF000003FC00
03FE000007FC00
03FF00001FF800
01FFC0007FF000
01FFF803FFE000
03FFFFFFFFC000
07FFFFFFFF0000
0FCFFFFFFE0000
1F83FFFFF80000
1F007FFFC00000
0F0007FC000000
06000000000000
ENDCHAR
STARTCHAR 00F9
ENCODING 249
SWIDTH 495 0
DWIDTH 33 0
BBX 28 60 3 -1
BITMAP
01F80000
00F80000
007C0000
003C0000
003E0000
001E0000
000F0000
00078000
00000000
00000000
00000000
00000000
FC0003F0
FC0003F0
FC0003F0
FC0003F0
FC0003F0
FC0003F0
FC0003F0
FC0003F0
FC0003F0
FC0003F0
FC0003F0
FC0003F0
FC0003F0
FC0003F0
FC0003F0
FC0003F0
FC0003F0
FC0003F0
FC0003F0
FC0003F0
FC0003F0
FC0003F0
FC0003F0
FC0003F0
FC0003F0
FC0003F0
FC0003F0
FC0003F0
FC0003F0
FC0003F0
FC0003F0
FC0003F0
FC0003F0
FC0003F0
FC0003F0
FE0007F0
FE0007F0
7E0007E0
7F000FE0
7F000FE0
3F801FC0
3FE07FC0
1FFFFF80
0FFFFF00
07FFFE00
03FFFC00
01FFF800
003FC000
ENDCHAR
STARTCHAR 00FA
ENCODING 250
SWIDTH 495 0
DWIDTH 33 0
BBX 28 60 3 -1
BITMAP
0001F800
0001F000
0003E000
0003C000
0007C000
000F8000
000F0000
001E0000
00000000
00000000
00000000
00000000
FC0003F0
FC0003F0
FC0003F0
FC0003F0
FC0003F0
FC0003F0
FC0003F0
FC0003F0
FC0003F0
FC0003F0
FC0003F0
FC0003F0
FC0003F0
FC0003F0
FC0003F0
FC0003F0
FC0003F0
FC0003F0
FC0003F0
FC0003F0
FC0003F0
FC0003F0
FC0003F0
FC0003F0
FC0003F0
FC0003F0
FC0003F0
FC0003F0
FC0003F0
FC0003F0
FC0003F0
FC0003F0
FC0003F0
FC0003F0
FC0003F0
FE0007F0
FE0007F0
7E0007E0
7F000FE0
7F000FE0
3F801FC0
3FE07FC0
1FFFFF80
0FFFFF00
07FFFE00
03FFFC00
01FFF800
003FC000
ENDCHAR
STARTCHAR 00FB
ENCODING 251
SWIDTH 495 0
DWIDTH 33 0
BBX 28 60 3 -1
BITMAP
003FC000
007FE000
00FFF000
00F9F000
01F0F800
03E0FC00
07E07E00
0FC03E00
00000100
00000000
00000000
00000000
FC0003F0
FC0003F0
FC0003F0
FC0003F0
FC0003F0
FC0003F0
FC0003F0
FC0003F0
FC0003F0
FC0003F0
FC0003F0
FC0003F0
FC0003F0
FC0003F0
FC0003F0
FC0003F0
FC0003F0
FC0003F0
FC0003F0
FC0003F0
FC0003F0
FC0003F0
FC0003F0
FC0003F0
FC0003F0
FC0003F0
FC0003F0
FC0003F0
FC0003F0
FC0003F0
FC0003F0
FC0003F0
FC0003F0
FC0003F0
FC0003F0
FE0007F0
FE0007F0
7E0007E0
7F000FE0
7F000FE0
3F801FC0
3FE07FC0
1FFFFF80
0FFFFF00
07FFFE00
03FFFC00
01FFF800
003FC000
ENDCHAR
STARTCHAR 00FC
ENCODING 252
SWIDTH 495 0
DWIDTH 33 0
BBX 28 60 3 0
BITMAP
0FC01F80
1FE03FC0
3FF07FC0
3FF07FE0
3FF07FE0
3FF07FC0
1FE07FC0
1FE03F80
07801F00
00000000
00000000
00000000
FC0003F0
FC0003F0
FC0003F0
FC0003F0
FC0003F0
FC0003F0
FC0003F0
FC0003F0
FC0003F0
FC0003F0
FC0003F0
FC0003F0
FC0003F0
FC0003F0
FC0003F0
FC0003F0
FC0003F0
FC0003F0
FC0003F0
FC0003F0
FC0003F0
FC0003F0
FC0003F0
FC0003F0
FC0003F0
FC0003F0
FC0003F0
FC0003F0
FC0003F0
FC0003F0
FC0003F0
FC0003F0
FC0003F0
FC0003F0
FC0003F0
FE0007F0
FE0007F0
7E0007E0
7F000FE0
7F000FE0
3F801FC0
3FE07FC0
1FFFFF80
0FFFFF00
07FFFE00
03FFFC00
01FFF800
003FC000
ENDCHAR
STARTCHAR 00FD
ENCODING 253
SWIDTH 495 0
DWIDTH 33 0
BBX 28 59 3 0
BITMAP
0001F000
0003E000
0003E000
0007C000
00078000
000F0000
000F0000
001E0000
00000000
00000000
00000000
00000000
FC0007F0
FC0007F0
FC0007F0
FC0007F0
FC0007F0
FC0007F0
FC0007F0
FC0007F0
FC0007F0
FC0007F0
FC0007F0
FC0007F0
FC0007F0
FC0007F0
FC0007F0
FC0007F0
FC0007F0
FC0007F0
FC0007F0
FC0007F0
FC0007F0
FC0007F0
FC0007F0
FC0007E0
FC0007E0
FE0007E0
FE000FE0
7F001FC0
7F803FC0
3FC07F80
3FFFFF80
1FFFFF00
0FFFFE00
07FFFC00
01FFF000
007FC000
001F8000
001F8000
001F8000
001F8000
001F8000
001F8000
001F8000
001F8000
001F8000
001F8000
001F8000
ENDCHAR
STARTCHAR 00FF
ENCODING 255
SWIDTH 495 0
DWIDTH 33 0
BBX 28 60 3 0
BITMAP
02000400
1FC03F00
1FE07F80
3FE07FC0
3FE0FFC0
3FF0FFC0
3FE07FC0
3FE07FC0
1FC03F80
0F801F00
00000000
00000000
00000000
FC0007F0
FC0007F0
FC0007F0
FC0007F0
FC0007F0
FC0007F0
FC0007F0
FC0007F0
FC0007F0
FC0007F0
FC0007F0
FC0007F0
FC0007F0
FC0007F0
FC0007F0
FC0007F0
FC0007F0
FC0007F0
FC0007F0
FC0007F0
FC0007F0
FC0007F0
FC0007F0
FC0007E0
FC0007E0
FE0007E0
FE000FE0
7F001FC0
7F803FC0
3FC07F80
3FFFFF80
1FFFFF00
0FFFFE00
07FFFC00
01FFF000
007FC000
001F8000
001F8000
001F8000
001F8000
001F8000
001F8000
001F8000
001F8000
001F8000
001F8000
001F8000
ENDCHAR
STARTCHAR 0100
ENCODING 256
SWIDTH 555 0
DWIDTH 37 0
BBX 33 58 3 0
BITMAP
07FFFF0000
07FFFF0000
07FFFF0000
07FFFF0000
07FFFF0000
0000000000
0000000000
0000000000
0000000000
0000000000
000F800000
007FF00000
01FFFC0000
07FFFE0000
0FFFFF0000
0FFFFF8000
1FF07FC000
3FC01FE000
3F800FE000
7F0007E000
7F0007F000
7E0007F000
7E0003F000
FE0003F000
FE0003F000
FE0003F800
FE0003F800
FE0003F800
FE0003F800
FE0003F800
FE0003F800
FE0003F800
FE0003F800
FE0003F800
FE0003F800
FE0003F800
FE0003F800
FE0003F800
FE0003F800
FE0003F800
FE0003F800
FE0003F800
FE0003F800
FE0003F800
FE0003F800
FE0003F800
FE0003F800
FE0003F800
FE0003F800
FE0003F800
FE0003F800
FE0003F800
FFFFFFFF80
FFFFFFFF80
FFFFFFFF80
FFFFFFFF80
FFFFFFFF80
FFFFFFFF80
ENDCHAR
STARTCHAR 0101
ENCODING 257
SWIDTH 555 0
DWIDTH 37 0
BBX 33 58 3 0
BITMAP
07FFFF0000
07FFFF0000
07FFFF0000
07FFFF0000
07FFFF0000
0000000000
0000000000
0000000000
0000000000
0000000000
000F800000
007FF00000
01FFFC0000
07FFFE0000
0FFFFF0000
0FFFFF8000
1FF07FC000
3FC01FE000
3F800FE000
7F0007E000
7F0007F000
7E0007F000
7E0003F000
FE0003F000
FE0003F000
FE0003F800
FE0003F800
FE0003F800
FE0003F800
FE0003F800
FE0003F800
FE0003F800
FE0003F800
FE0003F800
FE0003F800
FE0003F800
FE0003F800
FE0003F800
FE0003F800
FE0003F800
FE0003F800
FE0003F800
FE0003F800
FE0003F800
FE0003F800
FE0003F800
FE0003F800
FE0003F800
FE0003F800
FE0003F800
FE0003F800
FE0003F800
FFFFFFFF80
FFFFFFFF80
FFFFFFFF80
FFFFFFFF80
FFFFFFFF80
FFFFFFFF80
ENDCHAR
STARTCHAR 0102
ENCODING 258
SWIDTH 555 0
DWIDTH 37 0
BBX 33 59 3 0
BITMAP
07C01F0000
03C01E0000
03C03E0000
03E03E0000
01FDFC0000
00FFF80000
007FF00000
003FC00000
0000000000
0000000000
0000000000
000F800000
007FF00000
01FFFC0000
07FFFE0000
0FFFFF0000
0FFFFF8000
1FF07FC000
3FC01FE000
3F800FE000
7F0007E000
7F0007F000
7E0007F000
7E0003F000
FE0003F000
FE0003F000
FE0003F800
FE0003F800
FE0003F800
FE0003F800
FE0003F800
FE0003F800
FE0003F800
FE0003F800
FE0003F800
FE0003F800
FE0003F800
FE0003F800
FE0003F800
FE0003F800
FE0003F800
FE0003F800
FE0003F800
FE0003F800
FE0003F800
FE0003F800
FE0003F800
FE0003F800
FE0003F800
FE0003F800
FE0003F800
FE0003F800
FE0003F800
FFFFFFFF80
FFFFFFFF80
FFFFFFFF80
FFFFFFFF80
FFFFFFFF80
FFFFFFFF80
ENDCHAR
STARTCHAR 0103
ENCODING 259
SWIDTH 555 0
DWIDTH 37 0
BBX 33 59 3 0
BITMAP
07C01F0000
03C01E0000
03C03E0000
03E03E0000
01FDFC0000
00FFF80000
007FF00000
003FC00000
0000000000
0000000000
0000000000
000F800000
007FF00000
01FFFC0000
07FFFE0000
0FFFFF0000
0FFFFF8000
1FF07FC000
3FC01FE000
3F800FE000
7F0007E000
7F0007F000
7E0007F000
7E0003F000
FE0003F000
FE0003F000
FE0003F800
FE0003F800
FE0003F800
FE0003F800
FE0003F800
FE0003F800
FE0003F800
FE0003F800
FE0003F800
FE0003F800
FE0003F800
FE0003F800
FE0003F800
FE0003F800
FE0003F800
FE0003F800
FE0003F800
FE0003F800
FE0003F800
FE0003F800
FE0003F800
FE0003F800
FE0003F800
FE0003F800
FE0003F800
FE0003F800
FE0003F800
FFFFFFFF80
FFFFFFFF80
FFFFFFFF80
FFFFFFFF80
FFFFFFFF80
FFFFFFFF80
ENDCHAR
STARTCHAR 0104
ENCODING 260
SWIDTH 555 0
DWIDTH 37 0
BBX 36 60 3 -12
BITMAP
000F800000
007FF00000
01FFFC0000
07FFFE0000
0FFFFF0000
0FFFFF8000
1FF07FC000
3FC01FE000
3F800FE000
7F0007E000
7F0007F000
7E0007F000
7E0003F000
FE0003F000
FE0003F000
FE0003F800
FE0003F800
FE0003F800
FE0003F800
FE0003F800
FE0003F800
FE0003F800
FE0003F800
FE0003F800
FE0003F800
FE0003F800
FE0003F800
FE0003F800
FE0003F800
FE0003F800
FE0003F800
FE0003F800
FE0003F800
FE0003F800
FE0003F800
FE0003F800
FE0003F800
FE0003F800
FE0003F800
FE0003F800
FE0003F800
FE0003F800
FFFFFFFF80
FFFFFFFF80
FFFFFFFF80
FFFFFFFF80
FFFFFFFF80
FFFFFFFF80
0000003E00
0000007800
000000F000
000001E000
000001E000
000001C000
000001C000
000001E040
000001F1E0
000000FFF0
000000FFE0
0000003F80
ENDCHAR
STARTCHAR 0105
ENCODING 261
SWIDTH 555 0
DWIDTH 37 0
BBX 36 60 3 -12
BITMAP
000F800000
007FF00000
01FFFC0000
07FFFE0000
0FFFFF0000
0FFFFF8000
1FF07FC000
3FC01FE000
3F800FE000
7F0007E000
7F0007F000
7E0007F000
7E0003F000
FE0003F000
FE0003F000
FE0003F800
FE0003F800
FE0003F800
FE0003F800
FE0003F800
FE0003F800
FE0003F800
FE0003F800
FE0003F800
FE0003F800
FE0003F800
FE0003F800
FE0003F800
FE0003F800
FE0003F800
FE0003F800
FE0003F800
FE0003F800
FE0003F800
FE0003F800
FE0003F800
FE0003F800
FE0003F800
FE0003F800
FE0003F800
FE0003F800
FE0003F800
FFFFFFFF80
FFFFFFFF80
FFFFFFFF80
FFFFFFFF80
FFFFFFFF80
FFFFFFFF80
0000003E00
0000007800
000000F000
000001E000
000001E000
000001C000
000001C000
000001E040
000001F1E0
000000FFF0
000000FFE0
0000003F80
ENDCHAR
STARTCHAR 0106
ENCODING 262
SWIDTH 675 0
DWIDTH 45 0
BBX 43 60 2 -1
BITMAP
0000003E0000
0000007E0000
0000007C0000
000000F80000
000000F00000
000001F00000
000001E00000
000003C00000
000000000000
000000000000
000000000000
000001F00000
00007FFF0000
0003FFFFE000
000FFFFFF800
001FFFFFFE00
007FFFFFFF00
00FFFC1FFF80
01FFC001FFC0
03FF00007FE0
07FC00001FC0
07F800000F80
0FF000000700
1FE000000200
1FC000000000
3F8000000000
3F8000000000
3F0000000000
7F0000000000
7F0000000000
7E0000000000
7E0000000000
FE0000000000
FE0000000000
FE0000000000
FE0000000000
FE0000000000
FE0000000000
FE0000000000
FE0000000000
7E0000000000
7E0000000000
7F0000000000
7F0000000000
3F8000000000
3F8000000000
1FC000000000
1FE000000000
0FE000000600
0FF000000F00
07FC00001FC0
03FE00003FE0
01FF8000FFC0
00FFF007FF80
007FFFFFFF00
003FFFFFFE00
000FFFFFF800
0003FFFFF000
0000FFFF8000
00000FFC0000
ENDCHAR
STARTCHAR 0107
ENCODING 263
SWIDTH 675 0
DWIDTH 45 0
BBX 43 60 2 -1
BITMAP
0000003E0000
0000007E0000
0000007C0000
000000F80000
000000F00000
000001F00000
000001E00000
000003C00000
000000000000
000000000000
000000000000
000001F00000
00007FFF0000
0003FFFFE000
000FFFFFF800
001FFFFFFE00
007FFFFFFF00
00FFFC1FFF80
01FFC001FFC0
03FF00007FE0
07FC00001FC0
07F800000F80
0FF000000700
1FE000000200
1FC000000000
3F8000000000
3F8000000000
3F0000000000
7F0000000000
7F0000000000
7E0000000000
7E0000000000
FE0000000000
FE0000000000
FE0000000000
FE0000000000
FE0000000000
FE0000000000
FE0000000000
FE0000000000
7E0000000000
7E0000000000
7F0000000000
7F0000000000
3F8000000000
3F8000000000
1FC000000000
1FE000000000
0FE000000600
0FF000000F00
07FC00001FC0
03FE00003FE0
01FF8000FFC0
00FFF007FF80
007FFFFFFF00
003FFFFFFE00
000FFFFFF800
0003FFFFF000
0000FFFF8000
00000FFC0000
ENDCHAR
STARTCHAR 010A
ENCODING 266
SWIDTH 675 0
DWIDTH 45 0
BBX 43 62 2 -1
BITMAP
000001F00000
000007F80000
000007F80000
00000FFC0000
00000FFC0000
00000FFC0000
00000FFC0000
000007F80000
000003F00000
000000800000
000000000000
000000000000
000000000000
000001F00000
00007FFF0000
0003FFFFE000
000FFFFFF800
001FFFFFFE00
007FFFFFFF00
00FFFC1FFF80
01FFC001FFC0
03FF00007FE0
07FC00001FC0
07F800000F80
0FF000000700
1FE000000200
1FC000000000
3F8000000000
3F8000000000
3F0000000000
7F0000000000
7F0000000000
7E0000000000
7E0000000000
FE0000000000
FE0000000000
FE0000000000
FE0000000000
FE0000000000
FE0000000000
FE0000000000
FE0000000000
7E0000000000
7E0000000000
7F0000000000
7F0000000000
3F8000000000
3F8000000000
1FC000000000
1FE000000000
0FE000000600
0FF000000F00
07FC00001FC0
03FE00003FE0
01FF8000FFC0
00FFF007FF80
007FFFFFFF00
003FFFFFFE00
000FFFFFF800
0003FFFFF000
0000FFFF8000
00000FFC0000
ENDCHAR
STARTCHAR 010B
ENCODING 267
SWIDTH 675 0
DWIDTH 45 0
BBX 43 62 2 -1
BITMAP
000001F00000
000007F80000
000007F80000
00000FFC0000
00000FFC0000
00000FFC0000
00000FFC0000
000007F80000
000003F00000
000000800000
000000000000
000000000000
000000000000
000001F00000
00007FFF0000
0003FFFFE000
000FFFFFF800
001FFFFFFE00
007FFFFFFF00
00FFFC1FFF80
01FFC001FFC0
03FF00007FE0
07FC00001FC0
07F800000F80
0FF000000700
1FE000000200
1FC000000000
3F8000000000
3F8000000000
3F0000000000
7F0000000000
7F0000000000
7E0000000000
7E0000000000
FE0000000000
FE0000000000
FE0000000000
FE0000000000
FE0000000000
FE0000000000
FE0000000000
FE0000000000
7E0000000000
7E0000000000
7F0000000000
7F0000000000
3F8000000000
3F8000000000
1FC000000000
1FE000000000
0FE000000600
0FF000000F00
07FC00001FC0
03FE00003FE0
01FF8000FFC0
00FFF007FF80
007FFFFFFF00
003FFFFFFE00
000FFFFFF800
0003FFFFF000
0000FFFF8000
00000FFC0000
ENDCHAR
STARTCHAR 010C
ENCODING 268
SWIDTH 675 0
DWIDTH 45 0
BBX 43 61 2 -1
BITMAP
0001F007C000
0000F80FC000
00007C1F8000
00007E1F0000
00003F3E0000
00001FFC0000
00000FFC0000
000007F80000
000007F00000
000000000000
000000000000
000000000000
000001F00000
00007FFF0000
0003FFFFE000
000FFFFFF800
001FFFFFFE00
007FFFFFFF00
00FFFC1FFF80
01FFC001FFC0
03FF00007FE0
07FC00001FC0
07F800000F80
0FF000000700
1FE000000200
1FC000000000
3F8000000000
3F8000000000
3F0000000000
7F0000000000
7F0000000000
7E0000000000
7E0000000000
FE0000000000
FE0000000000
FE0000000000
FE0000000000
FE0000000000
FE0000000000
FE0000000000
FE0000000000
7E0000000000
7E0000000000
7F0000000000
7F0000000000
3F8000000000
3F8000000000
1FC000000000
1FE000000000
0FE000000600
0FF000000F00
07FC00001FC0
03FE00003FE0
01FF8000FFC0
00FFF007FF80
007FFFFFFF00
003FFFFFFE00
000FFFFFF800
0003FFFFF000
0000FFFF8000
00000FFC0000
ENDCHAR
STARTCHAR 010D
ENCODING 269
SWIDTH 675 0
DWIDTH 45 0
BBX 43 61 2 -1
BITMAP
0001F007C000
0000F80FC000
00007C1F8000
00007E1F0000
00003F3E0000
00001FFC0000
00000FFC0000
000007F80000
000007F00000
000000000000
000000000000
000000000000
000001F00000
00007FFF0000
0003FFFFE000
000FFFFFF800
001FFFFFFE00
007FFFFFFF00
00FFFC1FFF80
01FFC001FFC0
03FF00007FE0
07FC00001FC0
07F800000F80
0FF000000700
1FE000000200
1FC000000000
3F8000000000
3F8000000000
3F0000000000
7F0000000000
7F0000000000
7E0000000000
7E0000000000
FE0000000000
FE0000000000
FE0000000000
FE0000000000
FE0000000000
FE0000000000
FE0000000000
FE0000000000
7E0000000000
7E0000000000
7F0000000000
7F0000000000
3F8000000000
3F8000000000
1FC000000000
1FE000000000
0FE000000600
0FF000000F00
07FC00001FC0
03FE00003FE0
01FF8000FFC0
00FFF007FF80
007FFFFFFF00
003FFFFFFE00
000FFFFFF800
0003FFFFF000
0000FFFF8000
00000FFC0000
ENDCHAR
STARTCHAR 010E
ENCODING 270
SWIDTH 645 0
DWIDTH 43 0
BBX 37 60 4 0
BITMAP
0FC01F0000
07E03E0000
03F07C0000
01F0F80000
00F9F80000
00FFF00000
007FE00000
003FC00000
001FC00000
0000000000
0000000000
0000000000
0000000000
FFFC000000
FFFFF80000
FFFFFF0000
FFFFFFC000
FFFFFFF000
FFFFFFF800
FC01FFFC00
FC000FFE00
FC0003FF00
FC0000FF80
FC00007FC0
FC00003FC0
FC00001FE0
FC00000FE0
FC000007F0
FC000007F0
FC000003F0
FC000003F0
FC000003F8
FC000003F8
FC000001F8
FC000001F8
FC000001F8
FC000001F8
FC000001F8
FC000001F8
FC000001F8
FC000003F8
FC000003F8
FC000003F8
FC000003F0
FC000007F0
FC000007F0
FC00000FE0
FC00000FE0
FC00001FC0
FC00003FC0
FC0000FF80
FC0001FF00
FC0007FF00
FC007FFE00
FFFFFFF800
FFFFFFF000
FFFFFFE000
FFFFFF8000
FFFFFC0000
FFFFC00000
ENDCHAR
STARTCHAR 010F
ENCODING 271
SWIDTH 645 0
DWIDTH 43 0
BBX 37 60 4 0
BITMAP
0FC01F0000
07E03E0000
03F07C0000
01F0F80000
00F9F80000
00FFF00000
007FE00000
003FC00000
001FC00000
0000000000
0000000000
0000000000
0000000000
FFFC000000
FFFFF80000
FFFFFF0000
FFFFFFC000
FFFFFFF000
FFFFFFF800
FC01FFFC00
FC000FFE00
FC0003FF00
FC0000FF80
FC00007FC0
FC00003FC0
FC00001FE0
FC00000FE0
FC000007F0
FC000007F0
FC000003F0
FC000003F0
FC000003F8
FC000003F8
FC000001F8
FC000001F8
FC000001F8
FC000001F8
FC000001F8
FC000001F8
FC000001F8
FC000003F8
FC000003F8
FC000003F8
FC000003F0
FC000007F0
FC000007F0
FC00000FE0
FC00000FE0
FC00001FC0
FC00003FC0
FC0000FF80
FC0001FF00
FC0007FF00
FC007FFE00
FFFFFFF800
FFFFFFF000
FFFFFFE000
FFFFFF8000
FFFFFC0000
FFFFC00000
ENDCHAR
STARTCHAR 0110
ENCODING 272
SWIDTH 675 0
DWIDTH 45 0
BBX 42 47 2 0
BITMAP
0FFFD0000000
0FFFFF800000
0FFFFFF00000
0FFFFFFC0000
0FFFFFFF0000
0FFFFFFF8000
0FC00FFFE000
0FC000FFF000
0FC0001FF000
0FC0000FF800
0FC00003FC00
0FC00001FE00
0FC00000FE00
0FC00000FF00
0FC000007F00
0FC000003F00
0FC000003F80
0FC000003F80
0FC000001F80
0FC000001F80
FFFFFC001F80
FFFFFC001F80
FFFFFC001FC0
FFFFFC001FC0
FFFFFC001FC0
FFFFFC001F80
0FC000001F80
0FC000001F80
0FC000001F80
0FC000003F80
0FC000003F80
0FC000003F00
0FC000007F00
0FC000007F00
0FC00000FE00
0FC00001FE00
0FC00003FC00
0FC00007FC00
0FC0001FF800
0FC0007FF000
0FC003FFE000
0FFFFFFFC000
0FFFFFFF8000
0FFFFFFE0000
0FFFFFF80000
0FFFFFE00000
0FFFFC000000
ENDCHAR
STARTCHAR 0111
ENCODING 273
SWIDTH 675 0
DWIDTH 45 0
BBX 42 47 2 0
BITMAP
0FFFD0000000
0FFFFF800000
0FFFFFF00000
0FFFFFFC0000
0FFFFFFF0000
0FFFFFFF8000
0FC00FFFE000
0FC000FFF000
0FC0001FF000
0FC0000FF800
0FC00003FC00
0FC00001FE00
0FC00000FE00
0FC00000FF00
0FC000007F00
0FC000003F00
0FC000003F80
0FC000003F80
0FC000001F80
0FC000001F80
FFFFFC001F80
FFFFFC001F80
FFFFFC001FC0
FFFFFC001FC0
FFFFFC001FC0
FFFFFC001F80
0FC000001F80
0FC000001F80
0FC000001F80
0FC000003F80
0FC000003F80
0FC000003F00
0FC000007F00
0FC000007F00
0FC00000FE00
0FC00001FE00
0FC00003FC00
0FC00007FC00
0FC0001FF800
0FC0007FF000
0FC003FFE000
0FFFFFFFC000
0FFFFFFF8000
0FFFFFFE0000
0FFFFFF80000
0FFFFFE00000
0FFFFC000000
ENDCHAR
STARTCHAR 0112
ENCODING 274
SWIDTH 495 0
DWIDTH 33 0
BBX 31 58 2 0
BITMAP
0FFFFE00
0FFFFE00
0FFFFE00
0FFFFE00
0FFFFE00
00000000
00000000
00000000
00000000
00000000
00000000
0FFFFE00
0FFFFE00
0FFFFE00
0FFFFE00
0FFFFE00
0FFFFE00
0FC00000
0FC00000
0FC00000
0FC00000
0FC00000
0FC00000
0FC00000
0FC00000
0FC00000
0FC00000
0FC00000
0FC00000
0FC00000
0FC00000
0FC00000
FFFFFFC0
FFFFFFC0
FFFFFFC0
FFFFFFC0
FFFFFFC0
0FC00000
0FC00000
0FC00000
0FC00000
0FC00000
0FC00000
0FC00000
0FC00000
0FC00000
0FC00000
0FC00000
0FC00000
0FC00000
0FC00000
0FC00000
0FFFFFFE
0FFFFFFE
0FFFFFFE
0FFFFFFE
0FFFFFFE
0FFFFFFE
ENDCHAR
STARTCHAR 0113
ENCODING 275
SWIDTH 495 0
DWIDTH 33 0
BBX 31 58 2 0
BITMAP
0FFFFE00
0FFFFE00
0FFFFE00
0FFFFE00
0FFFFE00
00000000
00000000
00000000
00000000
00000000
00000000
0FFFFE00
0FFFFE00
0FFFFE00
0FFFFE00
0FFFFE00
0FFFFE00
0FC00000
0FC00000
0FC00000
0FC00000
0FC00000
0FC00000
0FC00000
0FC00000
0FC00000
0FC00000
0FC00000
0FC00000
0FC00000
0FC00000
0FC00000
FFFFFFC0
FFFFFFC0
FFFFFFC0
FFFFFFC0
FFFFFFC0
0FC00000
0FC00000
0FC00000
0FC00000
0FC00000
0FC00000
0FC00000
0FC00000
0FC00000
0FC00000
0FC00000
0FC00000
0FC00000
0FC00000
0FC00000
0FFFFFFE
0FFFFFFE
0FFFFFFE
0FFFFFFE
0FFFFFFE
0FFFFFFE
ENDCHAR
STARTCHAR 0116
ENCODING 278
SWIDTH 495 0
DWIDTH 33 0
BBX 31 61 2 0
BITMAP
001F0000
003FC000
007FC000
007FE000
007FE000
007FE000
007FC000
003FC000
001F8000
00000000
00000000
00000000
00000000
00000000
0FFFFE00
0FFFFE00
0FFFFE00
0FFFFE00
0FFFFE00
0FFFFE00
0FC00000
0FC00000
0FC00000
0FC00000
0FC00000
0FC00000
0FC00000
0FC00000
0FC00000
0FC00000
0FC00000
0FC00000
0FC00000
0FC00000
0FC00000
FFFFFFC0
FFFFFFC0
FFFFFFC0
FFFFFFC0
FFFFFFC0
0FC00000
0FC00000
0FC00000
0FC00000
0FC00000
0FC00000
0FC00000
0FC00000
0FC00000
0FC00000
0FC00000
0FC00000
0FC00000
0FC00000
0FC00000
0FFFFFFE
0FFFFFFE
0FFFFFFE
0FFFFFFE
0FFFFFFE
0FFFFFFE
ENDCHAR
STARTCHAR 0117
ENCODING 279
SWIDTH 495 0
DWIDTH 33 0
BBX 31 61 2 0
BITMAP
001F0000
003FC000
007FC000
007FE000
007FE000
007FE000
007FC000
003FC000
001F8000
00000000
00000000
00000000
00000000
00000000
0FFFFE00
0FFFFE00
0FFFFE00
0FFFFE00
0FFFFE00
0FFFFE00
0FC00000
0FC00000
0FC00000
0FC00000
0FC00000
0FC00000
0FC00000
0FC00000
0FC00000
0FC00000
0FC00000
0FC00000
0FC00000
0FC00000
0FC00000
FFFFFFC0
FFFFFFC0
FFFFFFC0
FFFFFFC0
FFFFFFC0
0FC00000
0FC00000
0FC00000
0FC00000
0FC00000
0FC00000
0FC00000
0FC00000
0FC00000
0FC00000
0FC00000
0FC00000
0FC00000
0FC00000
0FC00000
0FFFFFFE
0FFFFFFE
0FFFFFFE
0FFFFFFE
0FFFFFFE
0FFFFFFE
ENDCHAR
STARTCHAR 0118
ENCODING 280
SWIDTH 495 0
DWIDTH 33 0
BBX 33 59 2 -12
BITMAP
0FFFFE0000
0FFFFE0000
0FFFFE0000
0FFFFE0000
0FFFFE0000
0FFFFE0000
0FC0000000
0FC0000000
0FC0000000
0FC0000000
0FC0000000
0FC0000000
0FC0000000
0FC0000000
0FC0000000
0FC0000000
0FC0000000
0FC0000000
0FC0000000
0FC0000000
0FC0000000
FFFFFFC000
FFFFFFC000
FFFFFFC000
FFFFFFC000
FFFFFFC000
0FC0000000
0FC0000000
0FC0000000
0FC0000000
0FC0000000
0FC0000000
0FC0000000
0FC0000000
0FC0000000
0FC0000000
0FC0000000
0FC0000000
0FC0000000
0FC0000000
0FC0000000
0FFFFFFE00
0FFFFFFE00
0FFFFFFE00
0FFFFFFE00
0FFFFFFE00
0FFFFFFE00
000000F800
000001E000
000003C000
0000078000
0000070000
0000070000
00000F0000
0000070300
0000078780
000007FF80
000003FF00
000001FE00
ENDCHAR
STARTCHAR 0119
ENCODING 281
SWIDTH 495 0
DWIDTH 33 0
BBX 33 59 2 -12
BITMAP
0FFFFE0000
0FFFFE0000
0FFFFE0000
0FFFFE0000
0FFFFE0000
0FFFFE0000
0FC0000000
0FC0000000
0FC0000000
0FC0000000
0FC0000000
0FC0000000
0FC0000000
0FC0000000
0FC0000000
0FC0000000
0FC0000000
0FC0000000
0FC0000000
0FC0000000
0FC0000000
FFFFFFC000
FFFFFFC000
FFFFFFC000
FFFFFFC000
FFFFFFC000
0FC0000000
0FC0000000
0FC0000000
0FC0000000
0FC0000000
0FC0000000
0FC0000000
0FC0000000
0FC0000000
0FC0000000
0FC0000000
0FC0000000
0FC0000000
0FC0000000
0FC0000000
0FFFFFFE00
0FFFFFFE00
0FFFFFFE00
0FFFFFFE00
0FFFFFFE00
0FFFFFFE00
000000F800
000001E000
000003C000
0000078000
0000070000
0000070000
00000F0000
0000070300
0000078780
000007FF80
000003FF00
000001FE00
ENDCHAR
STARTCHAR 011A
ENCODING 282
SWIDTH 495 0
DWIDTH 33 0
BBX 31 60 2 0
BITMAP
0F803E00
07C07C00
03E0FC00
03F1F800
01F9F000
00FFE000
007FE000
007FC000
003F8000
00000000
00000000
00000000
00000000
0FFFFE00
0FFFFE00
0FFFFE00
0FFFFE00
0FFFFE00
0FFFFE00
0FC00000
0FC00000
0FC00000
0FC00000
0FC00000
0FC00000
0FC00000
0FC00000
0FC00000
0FC00000
0FC00000
0FC00000
0FC00000
0FC00000
0FC00000
FFFFFFC0
FFFFFFC0
FFFFFFC0
FFFFFFC0
FFFFFFC0
0FC00000
0FC00000
0FC00000
0FC00000
0FC00000
0FC00000
0FC00000
0FC00000
0FC00000
0FC00000
0FC00000
0FC00000
0FC00000
0FC00000
0FC00000
0FFFFFFE
0FFFFFFE
0FFFFFFE
0FFFFFFE
0FFFFFFE
0FFFFFFE
ENDCHAR
STARTCHAR 011B
ENCODING 283
SWIDTH 495 0
DWIDTH 33 0
BBX 31 60 2 0
BITMAP
0F803E00
07C07C00
03E0FC00
03F1F800
01F9F000
00FFE000
007FE000
007FC000
003F8000
00000000
00000000
00000000
00000000
0FFFFE00
0FFFFE00
0FFFFE00
0FFFFE00
0FFFFE00
0FFFFE00
0FC00000
0FC00000
0FC00000
0FC00000
0FC00000
0FC00000
0FC00000
0FC00000
0FC00000
0FC00000
0FC00000
0FC00000
0FC00000
0FC00000
0FC00000
FFFFFFC0
FFFFFFC0
FFFFFFC0
FFFFFFC0
FFFFFFC0
0FC00000
0FC00000
0FC00000
0FC00000
0FC00000
0FC00000
0FC00000
0FC00000
0FC00000
0FC00000
0FC00000
0FC00000
0FC00000
0FC00000
0FC00000
0FFFFFFE
0FFFFFFE
0FFFFFFE
0FFFFFFE
0FFFFFFE
0FFFFFFE
ENDCHAR
STARTCHAR 011E
ENCODING 286
SWIDTH 825 0
DWIDTH 55 0
BBX 53 60 2 -1
BITMAP
0000F003C00000
0000F007C00000
0000F807800000
00007C0F800000
00007F7F000000
00003FFE000000
00001FFC000000
000007F8000000
00000000000000
00000000000000
00000000000000
000001F0000000
00007FFF800000
0001FFFFE00000
000FFFFFF80000
001FFFFFFE0000
007FFFFFFF0000
00FFFC0FFF8000
01FFC000FFC000
03FF00003FE000
07FC00001FC000
07F800000F8000
0FF00000070000
1FE00000020000
1FC00000000000
3F800000000000
3F800000000000
3F000000000000
7F000000000000
7E000000000000
7E000000000000
7E000000000000
FE000000000000
FE0001FFFFFFF8
FE0001FFFFFFF8
FE0001FFFFFFF8
FE0001FFFFFFF8
FE0001FFFFFFF8
FE000000003F80
FE000000003F80
7E000000003F80
7E000000003F00
7F000000007F00
7F000000007F00
3F800000007F00
3F80000000FE00
1FC0000001FE00
1FE0000001FC00
0FF0000003FC00
0FF0000007F800
07FC00000FF000
03FE00003FF000
01FF80007FE000
00FFF003FFC000
007FFFFFFF8000
003FFFFFFE0000
000FFFFFFC0000
0003FFFFF00000
0000FFFFC00000
00000FFC000000
ENDCHAR
STARTCHAR 011F
ENCODING 287
SWIDTH 825 0
DWIDTH 55 0
BBX 53 60 2 -1
BITMAP
0000F003C00000
0000F007C00000
0000F807800000
00007C0F800000
00007F7F000000
00003FFE000000
00001FFC000000
000007F8000000
00000000000000
00000000000000
00000000000000
000001F0000000
00007FFF800000
0001FFFFE00000
000FFFFFF80000
001FFFFFFE0000
007FFFFFFF0000
00FFFC0FFF8000
01FFC000FFC000
03FF00003FE000
07FC00001FC000
07F800000F8000
0FF00000070000
1FE00000020000
1FC00000000000
3F800000000000
3F800000000000
3F000000000000
7F000000000000
7E000000000000
7E000000000000
7E000000000000
FE000000000000
FE0001FFFFFFF8
FE0001FFFFFFF8
FE0001FFFFFFF8
FE0001FFFFFFF8
FE0001FFFFFFF8
FE000000003F80
FE000000003F80
7E000000003F80
7E000000003F00
7F000000007F00
7F000000007F00
3F800000007F00
3F80000000FE00
1FC0000001FE00
1FE0000001FC00
0FF0000003FC00
0FF0000007F800
07FC00000FF000
03FE00003FF000
01FF80007FE000
00FFF003FFC000
007FFFFFFF8000
003FFFFFFE0000
000FFFFFFC0000
0003FFFFF00000
0000FFFFC00000
00000FFC000000
ENDCHAR
STARTCHAR 0120
ENCODING 288
SWIDTH 825 0
DWIDTH 55 0
BBX 53 62 2 -1
BITMAP
000001F0000000
000007F8000000
000007F8000000
00000FFC000000
00000FFC000000
00000FFC000000
00000FFC000000
000007F8000000
000003F0000000
00000080000000
00000000000000
00000000000000
00000000000000
000001F0000000
00007FFF800000
0001FFFFE00000
000FFFFFF80000
001FFFFFFE0000
007FFFFFFF0000
00FFFC0FFF8000
01FFC000FFC000
03FF00003FE000
07FC00001FC000
07F800000F8000
0FF00000070000
1FE00000020000
1FC00000000000
3F800000000000
3F800000000000
3F000000000000
7F000000000000
7E000000000000
7E000000000000
7E000000000000
FE000000000000
FE0001FFFFFFF8
FE0001FFFFFFF8
FE0001FFFFFFF8
FE0001FFFFFFF8
FE0001FFFFFFF8
FE000000003F80
FE000000003F80
7E000000003F80
7E000000003F00
7F000000007F00
7F000000007F00
3F800000007F00
3F80000000FE00
1FC0000001FE00
1FE0000001FC00
0FF0000003FC00
0FF0000007F800
07FC00000FF000
03FE00003FF000
01FF80007FE000
00FFF003FFC000
007FFFFFFF8000
003FFFFFFE0000
000FFFFFFC0000
0003FFFFF00000
0000FFFFC00000
00000FFC000000
ENDCHAR
STARTCHAR 0121
ENCODING 289
SWIDTH 825 0
DWIDTH 55 0
BBX 53 62 2 -1
BITMAP
000001F0000000
000007F8000000
000007F8000000
00000FFC000000
00000FFC000000
00000FFC000000
00000FFC000000
000007F8000000
000003F0000000
00000080000000
00000000000000
00000000000000
00000000000000
000001F0000000
00007FFF800000
0001FFFFE00000
000FFFFFF80000
001FFFFFFE0000
007FFFFFFF0000
00FFFC0FFF8000
01FFC000FFC000
03FF00003FE000
07FC00001FC000
07F800000F8000
0FF00000070000
1FE00000020000
1FC00000000000
3F800000000000
3F800000000000
3F000000000000
7F000000000000
7E000000000000
7E000000000000
7E000000000000
FE000000000000
FE0001FFFFFFF8
FE0001FFFFFFF8
FE0001FFFFFFF8
FE0001FFFFFFF8
FE0001FFFFFFF8
FE000000003F80
FE000000003F80
7E000000003F80
7E000000003F00
7F000000007F00
7F000000007F00
3F800000007F00
3F80000000FE00
1FC0000001FE00
1FE0000001FC00
0FF0000003FC00
0FF0000007F800
07FC00000FF000
03FE00003FF000
01FF80007FE000
00FFF003FFC000
007FFFFFFF8000
003FFFFFFE0000
000FFFFFFC0000
0003FFFFF00000
0000FFFFC00000
00000FFC000000
ENDCHAR
STARTCHAR 0124
ENCODING 292
SWIDTH 555 0
DWIDTH 37 0
BBX 32 59 2 0
BITMAP
0003FC00
0007FE00
000FFF00
000F9F00
001F0F80
003E0FC0
007E07E0
00FC03E0
00000010
00000000
00000000
00000000
0FC0007F
0FC0007F
0FC0007F
0FC0007F
0FC0007F
0FC0007F
0FC0007F
0FC0007F
0FC0007F
0FC0007F
0FC0007F
0FC0007F
0FC0007F
0FC0007F
0FC0007F
0FC0007F
0FC0007F
0FC0007F
0FC0007F
FFFFFFFF
FFFFFFFF
FFFFFFFF
FFFFFFFF
FFFFFFFF
FFFFFFFF
0FC0007F
0FC0007F
0FC0007F
0FC0007F
0FC0007F
0FC0007F
0FC0007F
0FC0007F
0FC0007F
0FC0007F
0FC0007F
0FC0007F
0FC0007F
0FC0007F
0FC0007F
0FC0007F
0FC0007F
0FC0007F
0FC0007F
0FC0007F
0FC0007F
0FC0007F
ENDCHAR
STARTCHAR 0125
ENCODING 293
SWIDTH 555 0
DWIDTH 37 0
BBX 32 59 2 0
BITMAP
0003FC00
0007FE00
000FFF00
000F9F00
001F0F80
003E0FC0
007E07E0
00FC03E0
00000010
00000000
00000000
00000000
0FC0007F
0FC0007F
0FC0007F
0FC0007F
0FC0007F
0FC0007F
0FC0007F
0FC0007F
0FC0007F
0FC0007F
0FC0007F
0FC0007F
0FC0007F
0FC0007F
0FC0007F
0FC0007F
0FC0007F
0FC0007F
0FC0007F
FFFFFFFF
FFFFFFFF
FFFFFFFF
FFFFFFFF
FFFFFFFF
FFFFFFFF
0FC0007F
0FC0007F
0FC0007F
0FC0007F
0FC0007F
0FC0007F
0FC0007F
0FC0007F
0FC0007F
0FC0007F
0FC0007F
0FC0007F
0FC0007F
0FC0007F
0FC0007F
0FC0007F
0FC0007F
0FC0007F
0FC0007F
0FC0007F
0FC0007F
0FC0007F
ENDCHAR
STARTCHAR 0128
ENCODING 296
SWIDTH 195 0
DWIDTH 13 0
BBX 16 41 -2 0
BITMAP
7E00
FFC7
FFFF
FFFF
83FF
0078
0000
0000
0000
0000
0000
0000
03F0
03F0
03F0
03F0
03F0
03F0
03F0
03F0
03F0
03F0
03F0
03F0
03F0
03F0
03F0
03F0
03F0
03F0
03F0
03F0
03F0
03F0
03F0
03F0
03F0
03F0
03F0
03F0
03F0
ENDCHAR
STARTCHAR 0129
ENCODING 297
SWIDTH 195 0
DWIDTH 13 0
BBX 16 41 -2 0
BITMAP
7E00
FFC7
FFFF
FFFF
83FF
0078
0000
0000
0000
0000
0000
0000
03F0
03F0
03F0
03F0
03F0
03F0
03F0
03F0
03F0
03F0
03F0
03F0
03F0
03F0
03F0
03F0
03F0
03F0
03F0
03F0
03F0
03F0
03F0
03F0
03F0
03F0
03F0
03F0
03F0
ENDCHAR
STARTCHAR 012A
ENCODING 298
SWIDTH 195 0
DWIDTH 13 0
BBX 19 40 -3 0
BITMAP
FFFFE0
FFFFE0
FFFFE0
FFFFE0
FFFFE0
000000
000000
000000
000000
000000
000000
01F800
01F800
01F800
01F800
01F800
01F800
01F800
01F800
01F800
01F800
01F800
01F800
01F800
01F800
01F800
01F800
01F800
01F800
01F800
01F800
01F800
01F800
01F800
01F800
01F800
01F800
01F800
01F800
01F800
ENDCHAR
STARTCHAR 012B
ENCODING 299
SWIDTH 195 0
DWIDTH 13 0
BBX 19 40 -3 0
BITMAP
FFFFE0
FFFFE0
FFFFE0
FFFFE0
FFFFE0
000000
000000
000000
000000
000000
000000
01F800
01F800
01F800
01F800
01F800
01F800
01F800
01F800
01F800
01F800
01F800
01F800
01F800
01F800
01F800
01F800
01F800
01F800
01F800
01F800
01F800
01F800
01F800
01F800
01F800
01F800
01F800
01F800
01F800
ENDCHAR
STARTCHAR 012E
ENCODING 302
SWIDTH 180 0
DWIDTH 12 0
BBX 17 65 -2 -12
BITMAP
008000
008000
018000
01C000
01C000
03C000
FFFF80
7FFF00
3FFC00
0FF800
07F000
07F000
0FF000
0E7800
0C1800
180800
000400
000000
000000
000000
000000
000000
000000
000000
07F000
07F000
07F000
07F000
07F000
07F000
07F000
07F000
07F000
07F000
07F000
07F000
07F000
07F000
07F000
07F000
07F000
07F000
07F000
07F000
07F000
07F000
07F000
07F000
07F000
07F000
07F000
07F000
07F000
0F8000
1F0000
3C0000
3C0000
780000
780000
780000
781000
7C3800
3FFC00
1FF800
0FE000
ENDCHAR
STARTCHAR 012F
ENCODING 303
SWIDTH 180 0
DWIDTH 12 0
BBX 17 65 -2 -12
BITMAP
008000
008000
018000
01C000
01C000
03C000
FFFF80
7FFF00
3FFC00
0FF800
07F000
07F000
0FF000
0E7800
0C1800
180800
000400
000000
000000
000000
000000
000000
000000
000000
07F000
07F000
07F000
07F000
07F000
07F000
07F000
07F000
07F000
07F000
07F000
07F000
07F000
07F000
07F000
07F000
07F000
07F000
07F000
07F000
07F000
07F000
07F000
07F000
07F000
07F000
07F000
07F000
07F000
0F8000
1F0000
3C0000
3C0000
780000
780000
780000
781000
7C3800
3FFC00
1FF800
0FE000
ENDCHAR
STARTCHAR 0130
ENCODING 304
SWIDTH 195 0
DWIDTH 13 0
BBX 10 43 2 0
BITMAP
1E00
7F80
7F80
FFC0
FFC0
FFC0
FFC0
7F80
3F00
0000
0000
0000
0000
0000
3F00
3F00
3F00
3F00
3F00
3F00
3F00
3F00
3F00
3F00
3F00
3F00
3F00
3F00
3F00
3F00
3F00
3F00
3F00
3F00
3F00
3F00
3F00
3F00
3F00
3F00
3F00
3F00
3F00
ENDCHAR
STARTCHAR 0139
ENCODING 313
SWIDTH 435 0
DWIDTH 29 0
BBX 24 59 4 0
BITMAP
0F8000
1F8000
1F0000
3E0000
3C0000
7C0000
780000
F00000
000000
000000
000000
000000
FC0000
FC0000
FC0000
FC0000
FC0000
FC0000
FC0000
FC0000
FC0000
FC0000
FC0000
FC0000
FC0000
FC0000
FC0000
FC0000
FC0000
FC0000
FC0000
FC0000
FC0000
FC0000
FC0000
FC0000
FC0000
FC0000
FC0000
FC0000
FC0000
FC0000
FC0000
FC0000
FC0000
FC0000
FC0000
FC0000
FC0000
FC0000
FC0000
FC0000
FC0000
FFFFFF
FFFFFF
FFFFFF
FFFFFF
FFFFFF
FFFFFF
ENDCHAR
STARTCHAR 013A
ENCODING 314
SWIDTH 435 0
DWIDTH 29 0
BBX 24 59 4 0
BITMAP
0F8000
1F8000
1F0000
3E0000
3C0000
7C0000
780000
F00000
000000
000000
000000
000000
FC0000
FC0000
FC0000
FC0000
FC0000
FC0000
FC0000
FC0000
FC0000
FC0000
FC0000
FC0000
FC0000
FC0000
FC0000
FC0000
FC0000
FC0000
FC0000
FC0000
FC0000
FC0000
FC0000
FC0000
FC0000
FC0000
FC0000
FC0000
FC0000
FC0000
FC0000
FC0000
FC0000
FC0000
FC0000
FC0000
FC0000
FC0000
FC0000
FC0000
FC0000
FFFFFF
FFFFFF
FFFFFF
FFFFFF
FFFFFF
FFFFFF
ENDCHAR
STARTCHAR 013D
ENCODING 317
SWIDTH 435 0
DWIDTH 29 0
BBX 31 60 -3 0
BITMAP
F803E000
7C07E000
3E0FC000
3F0F8000
1F9F0000
0FFE0000
07FE0000
03FC0000
03F80000
00000000
00000000
00000000
00000000
01F80000
01F80000
01F80000
01F80000
01F80000
01F80000
01F80000
01F80000
01F80000
01F80000
01F80000
01F80000
01F80000
01F80000
01F80000
01F80000
01F80000
01F80000
01F80000
01F80000
01F80000
01F80000
01F80000
01F80000
01F80000
01F80000
01F80000
01F80000
01F80000
01F80000
01F80000
01F80000
01F80000
01F80000
01F80000
01F80000
01F80000
01F80000
01F80000
01F80000
01F80000
01FFFFFE
01FFFFFE
01FFFFFE
01FFFFFE
01FFFFFE
01FFFFFE
ENDCHAR
STARTCHAR 013E
ENCODING 318
SWIDTH 435 0
DWIDTH 29 0
BBX 31 60 -3 0
BITMAP
F803E000
7C07E000
3E0FC000
3F0F8000
1F9F0000
0FFE0000
07FE0000
03FC0000
03F80000
00000000
00000000
00000000
00000000
01F80000
01F80000
01F80000
01F80000
01F80000
01F80000
01F80000
01F80000
01F80000
01F80000
01F80000
01F80000
01F80000
01F80000
01F80000
01F80000
01F80000
01F80000
01F80000
01F80000
01F80000
01F80000
01F80000
01F80000
01F80000
01F80000
01F80000
01F80000
01F80000
01F80000
01F80000
01F80000
01F80000
01F80000
01F80000
01F80000
01F80000
01F80000
01F80000
01F80000
01F80000
01FFFFFE
01FFFFFE
01FFFFFE
01FFFFFE
01FFFFFE
01FFFFFE
ENDCHAR
STARTCHAR 0141
ENCODING 321
SWIDTH 480 0
DWIDTH 32 0
BBX 30 47 1 0
BITMAP
03F00000
03F00000
03F00000
03F00000
03F00000
03F00000
03F00000
03F00000
03F00000
03F00000
03F00000
03F00000
03F00000
03F00000
03F00000
03F00000
03F03000
03F0F000
03F3F800
03F7F800
03FFE000
03FFC000
03FF0000
07FC0000
1FF00000
7FF00000
FFF00000
FFF00000
73F00000
43F00000
03F00000
03F00000
03F00000
03F00000
03F00000
03F00000
03F00000
03F00000
03F00000
03F00000
03F00000
03FFFFFC
03FFFFFC
03FFFFFC
03FFFFFC
03FFFFFC
03FFFFFC
ENDCHAR
STARTCHAR 0142
ENCODING 322
SWIDTH 480 0
DWIDTH 32 0
BBX 30 47 1 0
BITMAP
03F00000
03F00000
03F00000
03F00000
03F00000
03F00000
03F00000
03F00000
03F00000
03F00000
03F00000
03F00000
03F00000
03F00000
03F00000
03F00000
03F03000
03F0F000
03F3F800
03F7F800
03FFE000
03FFC000
03FF0000
07FC0000
1FF00000
7FF00000
FFF00000
FFF00000
73F00000
43F00000
03F00000
03F00000
03F00000
03F00000
03F00000
03F00000
03F00000
03F00000
03F00000
03F00000
03F00000
03FFFFFC
03FFFFFC
03FFFFFC
03FFFFFC
03FFFFFC
03FFFFFC
ENDCHAR
STARTCHAR 0143
ENCODING 323
SWIDTH 525 0
DWIDTH 35 0
BBX 30 59 1 0
BITMAP
00003E00
00007C00
00007C00
0000F800
0001F000
0001E000
0003E000
0003C000
00000000
00000000
00000000
10000000
3C0000FC
3E0000FC
7F0000FC
FF8000FC
7FE000FC
3FF000FC
1FF800FC
1FFE00FC
1FFF00FC
1FFF80FC
1FFFC0FC
1FBFF0FC
1F9FF8FC
1F8FFCFC
1F83FFFC
1F81FFFC
1F80FFFC
1F807FFC
1F801FFC
1F800FFC
1F8007FC
1F8001FC
1F8000FC
1F8000FC
1F8000FC
1F8000FC
1F8000FC
1F8000FC
1F8000FC
1F8000FC
1F8000FC
1F8000FC
1F8000FC
1F8000FC
1F8000FC
1F8000FC
1F8000FC
1F8000FC
1F8000FC
1F8000FC
1F8000FC
1F8000FC
1F8000FC
1F8000FC
1F8000FC
1F8000FC
1F8000FC
ENDCHAR
STARTCHAR 0144
ENCODING 324
SWIDTH 525 0
DWIDTH 35 0
BBX 30 59 1 0
BITMAP
00003E00
00007C00
00007C00
0000F800
0001F000
0001E000
0003E000
0003C000
00000000
00000000
00000000
10000000
3C0000FC
3E0000FC
7F0000FC
FF8000FC
7FE000FC
3FF000FC
1FF800FC
1FFE00FC
1FFF00FC
1FFF80FC
1FFFC0FC
1FBFF0FC
1F9FF8FC
1F8FFCFC
1F83FFFC
1F81FFFC
1F80FFFC
1F807FFC
1F801FFC
1F800FFC
1F8007FC
1F8001FC
1F8000FC
1F8000FC
1F8000FC
1F8000FC
1F8000FC
1F8000FC
1F8000FC
1F8000FC
1F8000FC
1F8000FC
1F8000FC
1F8000FC
1F8000FC
1F8000FC
1F8000FC
1F8000FC
1F8000FC
1F8000FC
1F8000FC
1F8000FC
1F8000FC
1F8000FC
1F8000FC
1F8000FC
1F8000FC
ENDCHAR
STARTCHAR 0147
ENCODING 327
SWIDTH 525 0
DWIDTH 35 0
BBX 30 60 1 0
BITMAP
01F007C0
00F80F80
00FC1F80
007E3F00
003F7E00
001F7C00
001FF800
000FF800
0007F000
00000000
00000000
00000000
10000000
3C0000FC
3E0000FC
7F0000FC
FF8000FC
7FE000FC
3FF000FC
1FF800FC
1FFE00FC
1FFF00FC
1FFF80FC
1FFFC0FC
1FBFF0FC
1F9FF8FC
1F8FFCFC
1F83FFFC
1F81FFFC
1F80FFFC
1F807FFC
1F801FFC
1F800FFC
1F8007FC
1F8001FC
1F8000FC
1F8000FC
1F8000FC
1F8000FC
1F8000FC
1F8000FC
1F8000FC
1F8000FC
1F8000FC
1F8000FC
1F8000FC
1F8000FC
1F8000FC
1F8000FC
1F8000FC
1F8000FC
1F8000FC
1F8000FC
1F8000FC
1F8000FC
1F8000FC
1F8000FC
1F8000FC
1F8000FC
1F8000FC
ENDCHAR
STARTCHAR 0148
ENCODING 328
SWIDTH 525 0
DWIDTH 35 0
BBX 30 60 1 0
BITMAP
01F007C0
00F80F80
00FC1F80
007E3F00
003F7E00
001F7C00
001FF800
000FF800
0007F000
00000000
00000000
00000000
10000000
3C0000FC
3E0000FC
7F0000FC
FF8000FC
7FE000FC
3FF000FC
1FF800FC
1FFE00FC
1FFF00FC
1FFF80FC
1FFFC0FC
1FBFF0FC
1F9FF8FC
1F8FFCFC
1F83FFFC
1F81FFFC
1F80FFFC
1F807FFC
1F801FFC
1F800FFC
1F8007FC
1F8001FC
1F8000FC
1F8000FC
1F8000FC
1F8000FC
1F8000FC
1F8000FC
1F8000FC
1F8000FC
1F8000FC
1F8000FC
1F8000FC
1F8000FC
1F8000FC
1F8000FC
1F8000FC
1F8000FC
1F8000FC
1F8000FC
1F8000FC
1F8000FC
1F8000FC
1F8000FC
1F8000FC
1F8000FC
1F8000FC
ENDCHAR
STARTCHAR 014C
ENCODING 332
SWIDTH 810 0
DWIDTH 54 0
BBX 50 59 2 -1
BITMAP
0000FFFFE00000
0000FFFFE00000
0000FFFFE00000
0000FFFFE00000
0000FFFFE00000
00000000000000
00000000000000
00000000000000
00000000000000
00000000000000
000001F0000000
00007FFF800000
0001FFFFF00000
000FFFFFFC0000
001FFFFFFE0000
007FFFFFFF8000
00FFFC0FFFC000
01FFC000FFE000
03FF00001FF000
07FC00000FF800
07F8000007FC00
0FF0000001FC00
1FE0000001FE00
1FC0000000FF00
3F800000007F00
3F800000003F00
3F000000003F80
7F000000003F80
7E000000001F80
7E000000001FC0
7E000000001FC0
FE000000000FC0
FE000000000FC0
FE000000000FC0
FE000000000FC0
FE000000000FC0
FE000000000FC0
FE000000000FC0
FE000000001FC0
7E000000001FC0
7E000000001FC0
7F000000001F80
7F000000003F80
3F800000003F80
3F800000007F00
1FC0000000FF00
1FE0000000FE00
0FF0000001FE00
0FF0000003FC00
07FC000007F800
03FE00001FF000
01FF80007FF000
00FFF003FFE000
007FFFFFFF8000
003FFFFFFF0000
000FFFFFFC0000
0003FFFFF80000
0000FFFFC00000
00000FFC000000
ENDCHAR
STARTCHAR 014D
ENCODING 333
SWIDTH 810 0
DWIDTH 54 0
BBX 50 59 2 -1
BITMAP
0000FFFFE00000
0000FFFFE00000
0000FFFFE00000
0000FFFFE00000
0000FFFFE00000
00000000000000
00000000000000
00000000000000
00000000000000
00000000000000
000001F0000000
00007FFF800000
0001FFFFF00000
000FFFFFFC0000
001FFFFFFE0000
007FFFFFFF8000
00FFFC0FFFC000
01FFC000FFE000
03FF00001FF000
07FC00000FF800
07F8000007FC00
0FF0000001FC00
1FE0000001FE00
1FC0000000FF00
3F800000007F00
3F800000003F00
3F000000003F80
7F000000003F80
7E000000001F80
7E000000001FC0
7E000000001FC0
FE000000000FC0
FE000000000FC0
FE000000000FC0
FE000000000FC0
FE000000000FC0
FE000000000FC0
FE000000000FC0
FE000000001FC0
7E000000001FC0
7E000000001FC0
7F000000001F80
7F000000003F80
3F800000003F80
3F800000007F00
1FC0000000FF00
1FE0000000FE00
0FF0000001FE00
0FF0000003FC00
07FC000007F800
03FE00001FF000
01FF80007FF000
00FFF003FFE000
007FFFFFFF8000
003FFFFFFF0000
000FFFFFFC0000
0003FFFFF80000
0000FFFFC00000
00000FFC000000
ENDCHAR
STARTCHAR 0150
ENCODING 336
SWIDTH 810 0
DWIDTH 54 0
BBX 50 60 2 -1
BITMAP
000007E07C0000
000007C0F80000
00000F81F00000
00000F01E00000
00001E03E00000
00003E03C00000
00003C07800000
0000780F800000
00000000000000
00000000000000
00000000000000
000001F0000000
00007FFF800000
0001FFFFF00000
000FFFFFFC0000
001FFFFFFE0000
007FFFFFFF8000
00FFFC0FFFC000
01FFC000FFE000
03FF00001FF000
07FC00000FF800
07F8000007FC00
0FF0000001FC00
1FE0000001FE00
1FC0000000FF00
3F800000007F00
3F800000003F00
3F000000003F80
7F000000003F80
7E000000001F80
7E000000001FC0
7E000000001FC0
FE000000000FC0
FE000000000FC0
FE000000000FC0
FE000000000FC0
FE000000000FC0
FE000000000FC0
FE000000000FC0
FE000000001FC0
7E000000001FC0
7E000000001FC0
7F000000001F80
7F000000003F80
3F800000003F80
3F800000007F00
1FC0000000FF00
1FE0000000FE00
0FF0000001FE00
0FF0000003FC00
07FC000007F800
03FE00001FF000
01FF80007FF000
00FFF003FFE000
007FFFFFFF8000
003FFFFFFF0000
000FFFFFFC0000
0003FFFFF80000
0000FFFFC00000
00000FFC000000
ENDCHAR
STARTCHAR 0151
ENCODING 337
SWIDTH 810 0
DWIDTH 54 0
BBX 50 60 2 -1
BITMAP
000007E07C0000
000007C0F80000
00000F81F00000
00000F01E00000
00001E03E00000
00003E03C00000
00003C07800000
0000780F800000
00000000000000
00000000000000
00000000000000
000001F0000000
00007FFF800000
0001FFFFF00000
000FFFFFFC0000
001FFFFFFE0000
007FFFFFFF8000
00FFFC0FFFC000
01FFC000FFE000
03FF00001FF000
07FC00000FF800
07F8000007FC00
0FF0000001FC00
1FE0000001FE00
1FC0000000FF00
3F800000007F00
3F800000003F00
3F000000003F80
7F000000003F80
7E000000001F80
7E000000001FC0
7E000000001FC0
FE000000000FC0
FE000000000FC0
FE000000000FC0
FE000000000FC0
FE000000000FC0
FE000000000FC0
FE000000000FC0
FE000000001FC0
7E000000001FC0
7E000000001FC0
7F000000001F80
7F000000003F80
3F800000003F80
3F800000007F00
1FC0000000FF00
1FE0000000FE00
0FF0000001FE00
0FF0000003FC00
07FC000007F800
03FE00001FF000
01FF80007FF000
00FFF003FFE000
007FFFFFFF8000
003FFFFFFF0000
000FFFFFFC0000
0003FFFFF80000
0000FFFFC00000
00000FFC000000
ENDCHAR
STARTCHAR 0154
ENCODING 340
SWIDTH 585 0
DWIDTH 39 0
BBX 35 59 2 0
BITMAP
00003F0000
00003E0000
00007C0000
0000780000
0000F80000
0000F00000
0001E00000
0003C00000
0000000000
0000000000
0000000000
0000000000
0FFFF00000
0FFFFFC000
0FFFFFF000
0FFFFFFC00
0FFFFFFE00
0FFFFFFF00
0FC007FF80
0FC000FF80
0FC0003FC0
0FC0001FC0
0FC0000FC0
0FC0000FE0
0FC0000FE0
0FC00007E0
0FC00007E0
0FC00007E0
0FC0000FE0
0FC0000FE0
0FC0000FC0
0FC0001FC0
0FC0003FC0
0FC000FF80
0FC007FF00
FFFFFFFF00
FFFFFFFC00
FFFFFFF800
FFFFFFF000
FFFFFFF000
0FC0FFF800
0FC007FC00
0FC001FE00
0FC000FE00
0FC0007F00
0FC0007F00
0FC0003F00
0FC0003F00
0FC0003F80
0FC0003F80
0FC0003F80
0FC0003F80
0FC0001F80
0FC0001F80
0FC0001F80
0FC0001F80
0FC0001F80
0FC0001F80
0FC0001F80
ENDCHAR
STARTCHAR 0155
ENCODING 341
SWIDTH 585 0
DWIDTH 39 0
BBX 35 59 2 0
BITMAP
00003F0000
00003E0000
00007C0000
0000780000
0000F80000
0000F00000
0001E00000
0003C00000
0000000000
0000000000
0000000000
0000000000
0FFFF00000
0FFFFFC000
0FFFFFF000
0FFFFFFC00
0FFFFFFE00
0FFFFFFF00
0FC007FF80
0FC000FF80
0FC0003FC0
0FC0001FC0
0FC0000FC0
0FC0000FE0
0FC0000FE0
0FC00007E0
0FC00007E0
0FC00007E0
0FC0000FE0
0FC0000FE0
0FC0000FC0
0FC0001FC0
0FC0003FC0
0FC000FF80
0FC007FF00
FFFFFFFF00
FFFFFFFC00
FFFFFFF800
FFFFFFF000
FFFFFFF000
0FC0FFF800
0FC007FC00
0FC001FE00
0FC000FE00
0FC0007F00
0FC0007F00
0FC0003F00
0FC0003F00
0FC0003F80
0FC0003F80
0FC0003F80
0FC0003F80
0FC0001F80
0FC0001F80
0FC0001F80
0FC0001F80
0FC0001F80
0FC0001F80
0FC0001F80
ENDCHAR
STARTCHAR 0158
ENCODING 344
SWIDTH 585 0
DWIDTH 39 0
BBX 35 60 2 0
BITMAP
01F803E000
00FC07C000
007E0F8000
003E1F0000
001F3F0000
001FFE0000
000FFC0000
0007F80000
0003F80000
0000000000
0000000000
0000000000
0000000000
0FFFF00000
0FFFFFC000
0FFFFFF000
0FFFFFFC00
0FFFFFFE00
0FFFFFFF00
0FC007FF80
0FC000FF80
0FC0003FC0
0FC0001FC0
0FC0000FC0
0FC0000FE0
0FC0000FE0
0FC00007E0
0FC00007E0
0FC00007E0
0FC0000FE0
0FC0000FE0
0FC0000FC0
0FC0001FC0
0FC0003FC0
0FC000FF80
0FC007FF00
FFFFFFFF00
FFFFFFFC00
FFFFFFF800
FFFFFFF000
FFFFFFF000
0FC0FFF800
0FC007FC00
0FC001FE00
0FC000FE00
0FC0007F00
0FC0007F00
0FC0003F00
0FC0003F00
0FC0003F80
0FC0003F80
0FC0003F80
0FC0003F80
0FC0001F80
0FC0001F80
0FC0001F80
0FC0001F80
0FC0001F80
0FC0001F80
0FC0001F80
ENDCHAR
STARTCHAR 0159
ENCODING 345
SWIDTH 585 0
DWIDTH 39 0
BBX 35 60 2 0
BITMAP
01F803E000
00FC07C000
007E0F8000
003E1F0000
001F3F0000
001FFE0000
000FFC0000
0007F80000
0003F80000
0000000000
0000000000
0000000000
0000000000
0FFFF00000
0FFFFFC000
0FFFFFF000
0FFFFFFC00
0FFFFFFE00
0FFFFFFF00
0FC007FF80
0FC000FF80
0FC0003FC0
0FC0001FC0
0FC0000FC0
0FC0000FE0
0FC0000FE0
0FC00007E0
0FC00007E0
0FC00007E0
0FC0000FE0
0FC0000FE0
0FC0000FC0
0FC0001FC0
0FC0003FC0
0FC000FF80
0FC007FF00
FFFFFFFF00
FFFFFFFC00
FFFFFFF800
FFFFFFF000
FFFFFFF000
0FC0FFF800
0FC007FC00
0FC001FE00
0FC000FE00
0FC0007F00
0FC0007F00
0FC0003F00
0FC0003F00
0FC0003F80
0FC0003F80
0FC0003F80
0FC0003F80
0FC0001F80
0FC0001F80
0FC0001F80
0FC0001F80
0FC0001F80
0FC0001F80
0FC0001F80
ENDCHAR
STARTCHAR 015A
ENCODING 346
SWIDTH 480 0
DWIDTH 32 0
BBX 29 60 2 -1
BITMAP
0000F800
0001F000
0003E000
0003E000
0007C000
00078000
000F0000
000F0000
00000000
00000000
00000000
000F8000
00FFF800
01FFFC00
07FFFF00
0FFFFF80
0FFFFF80
1FF8FFC0
1FC01FE0
3F800FE0
3F8007E0
3F0007F0
3F0003F0
3F0003C0
3F800000
3F800000
1FC00000
1FC00000
1FF00000
0FF80000
07FE0000
03FF0000
01FFC000
00FFF000
003FF800
001FFE00
0007FF00
0001FF80
0000FFC0
00003FE0
00001FE0
00000FF0
000007F0
000003F8
000003F8
000001F8
1C0001F8
FC0001F8
FE0003F8
FE0003F8
7F0003F8
7F8007F0
3FC00FF0
3FF03FE0
1FFFFFE0
0FFFFFC0
07FFFF80
03FFFF00
00FFFC00
001FE000
ENDCHAR
STARTCHAR 015B
ENCODING 347
SWIDTH 480 0
DWIDTH 32 0
BBX 29 60 2 -1
BITMAP
0000F800
0001F000
0003E000
0003E000
0007C000
00078000
000F0000
000F0000
00000000
00000000
00000000
000F8000
00FFF800
01FFFC00
07FFFF00
0FFFFF80
0FFFFF80
1FF8FFC0
1FC01FE0
3F800FE0
3F8007E0
3F0007F0
3F0003F0
3F0003C0
3F800000
3F800000
1FC00000
1FC00000
1FF00000
0FF80000
07FE0000
03FF0000
01FFC000
00FFF000
003FF800
001FFE00
0007FF00
0001FF80
0000FFC0
00003FE0
00001FE0
00000FF0
000007F0
000003F8
000003F8
000001F8
1C0001F8
FC0001F8
FE0003F8
FE0003F8
7F0003F8
7F8007F0
3FC00FF0
3FF03FE0
1FFFFFE0
0FFFFFC0
07FFFF80
03FFFF00
00FFFC00
001FE000
ENDCHAR
STARTCHAR 015E
ENCODING 350
SWIDTH 480 0
DWIDTH 32 0
BBX 29 62 2 -14
BITMAP
000F8000
00FFF800
01FFFC00
07FFFF00
0FFFFF80
0FFFFF80
1FF8FFC0
1FC01FE0
3F800FE0
3F8007E0
3F0007F0
3F0003F0
3F0003C0
3F800000
3F800000
1FC00000
1FC00000
1FF00000
0FF80000
07FE0000
03FF0000
01FFC000
00FFF000
003FF800
001FFE00
0007FF00
0001FF80
0000FFC0
00003FE0
00001FE0
00000FF0
000007F0
000003F8
000003F8
000001F8
1C0001F8
FC0001F8
FE0003F8
FE0003F8
7F0003F8
7F8007F0
3FC00FF0
3FF03FE0
1FFFFFE0
0FFFFFC0
07FFFF80
03FFFF00
00FFFC00
001FE000
00070000
000F0000
000FC000
0007E000
0000F000
00007000
00007800
00807800
01C07000
03F0F000
01FFF000
00FFE000
003F8000
ENDCHAR
STARTCHAR 015F
ENCODING 351
SWIDTH 480 0
DWIDTH 32 0
BBX 29 62 2 -14
BITMAP
000F8000
00FFF800
01FFFC00
07FFFF00
0FFFFF80
0FFFFF80
1FF8FFC0
1FC01FE0
3F800FE0
3F8007E0
3F0007F0
3F0003F0
3F0003C0
3F800000
3F800000
1FC00000
1FC00000
1FF00000
0FF80000
07FE0000
03FF0000
01FFC000
00FFF000
003FF800
001FFE00
0007FF00
0001FF80
0000FFC0
00003FE0
00001FE0
00000FF0
000007F0
000003F8
000003F8
000001F8
1C0001F8
FC0001F8
FE0003F8
FE0003F8
7F0003F8
7F8007F0
3FC00FF0
3FF03FE0
1FFFFFE0
0FFFFFC0
07FFFF80
03FFFF00
00FFFC00
001FE000
00070000
000F0000
000FC000
0007E000
0000F000
00007000
00007800
00807800
01C07000
03F0F000
01FFF000
00FFE000
003F8000
ENDCHAR
STARTCHAR 0160
ENCODING 352
SWIDTH 480 0
DWIDTH 32 0
BBX 29 61 2 -1
BITMAP
07C01F00
07E03E00
03F07C00
01F8FC00
00F9F800
007DF000
007FE000
003FE000
001FC000
00000000
00000000
00000000
000F8000
00FFF800
01FFFC00
07FFFF00
0FFFFF80
0FFFFF80
1FF8FFC0
1FC01FE0
3F800FE0
3F8007E0
3F0007F0
3F0003F0
3F0003C0
3F800000
3F800000
1FC00000
1FC00000
1FF00000
0FF80000
07FE0000
03FF0000
01FFC000
00FFF000
003FF800
001FFE00
0007FF00
0001FF80
0000FFC0
00003FE0
00001FE0
00000FF0
000007F0
000003F8
000003F8
000001F8
1C0001F8
FC0001F8
FE0003F8
FE0003F8
7F0003F8
7F8007F0
3FC00FF0
3FF03FE0
1FFFFFE0
0FFFFFC0
07FFFF80
03FFFF00
00FFFC00
001FE000
ENDCHAR
STARTCHAR 0161
ENCODING 353
SWIDTH 480 0
DWIDTH 32 0
BBX 29 61 2 -1
BITMAP
07C01F00
07E03E00
03F07C00
01F8FC00
00F9F800
007DF000
007FE000
003FE000
001FC000
00000000
00000000
00000000
000F8000
00FFF800
01FFFC00
07FFFF00
0FFFFF80
0FFFFF80
1FF8FFC0
1FC01FE0
3F800FE0
3F8007E0
3F0007F0
3F0003F0
3F0003C0
3F800000
3F800000
1FC00000
1FC00000
1FF00000
0FF80000
07FE0000
03FF0000
01FFC000
00FFF000
003FF800
001FFE00
0007FF00
0001FF80
0000FFC0
00003FE0
00001FE0
00000FF0
000007F0
000003F8
000003F8
000001F8
1C0001F8
FC0001F8
FE0003F8
FE0003F8
7F0003F8
7F8007F0
3FC00FF0
3FF03FE0
1FFFFFE0
0FFFFFC0
07FFFF80
03FFFF00
00FFFC00
001FE000
ENDCHAR
STARTCHAR 0162
ENCODING 354
SWIDTH 495 0
DWIDTH 33 0
BBX 30 61 2 -14
BITMAP
FFFFFFFC
FFFFFFFC
FFFFFFFC
FFFFFFFC
FFFFFFFC
FFFFFFFC
000FC000
000FC000
000FC000
000FC000
000FC000
000FC000
000FC000
000FC000
000FC000
000FC000
000FC000
000FC000
000FC000
000FC000
000FC000
000FC000
000FC000
000FC000
000FC000
000FC000
000FC000
000FC000
000FC000
000FC000
000FC000
000FC000
000FC000
000FC000
000FC000
000FC000
000FC000
000FC000
000FC000
000FC000
000FC000
000FC000
000FC000
000FC000
000FC000
000FC000
000FC000
00070000
000F0000
000F0000
000FC000
0007E000
0000F000
00007000
00807000
01807000
03C0F000
03E1F000
01FFE000
00FFC000
003F8000
ENDCHAR
STARTCHAR 0163
ENCODING 355
SWIDTH 495 0
DWIDTH 33 0
BBX 30 61 2 -14
BITMAP
FFFFFFFC
FFFFFFFC
FFFFFFFC
FFFFFFFC
FFFFFFFC
FFFFFFFC
000FC000
000FC000
000FC000
000FC000
000FC000
000FC000
000FC000
000FC000
000FC000
000FC000
000FC000
000FC000
000FC000
000FC000
000FC000
000FC000
000FC000
000FC000
000FC000
000FC000
000FC000
000FC000
000FC000
000FC000
000FC000
000FC000
000FC000
000FC000
000FC000
000FC000
000FC000
000FC000
000FC000
000FC000
000FC000
000FC000
000FC000
000FC000
000FC000
000FC000
000FC000
00070000
000F0000
000F0000
000FC000
0007E000
0000F000
00007000
00807000
01807000
03C0F000
03E1F000
01FFE000
00FFC000
003F8000
ENDCHAR
STARTCHAR 0164
ENCODING 356
SWIDTH 495 0
DWIDTH 33 0
BBX 30 60 2 0
BITMAP
07E01F00
03E03F00
01F07E00
01F87C00
00FCF800
007FF800
003FF000
001FE000
001FC000
00000000
00000000
00000000
00000000
FFFFFFFC
FFFFFFFC
FFFFFFFC
FFFFFFFC
FFFFFFFC
FFFFFFFC
000FC000
000FC000
000FC000
000FC000
000FC000
000FC000
000FC000
000FC000
000FC000
000FC000
000FC000
000FC000
000FC000
000FC000
000FC000
000FC000
000FC000
000FC000
000FC000
000FC000
000FC000
000FC000
000FC000
000FC000
000FC000
000FC000
000FC000
000FC000
000FC000
000FC000
000FC000
000FC000
000FC000
000FC000
000FC000
000FC000
000FC000
000FC000
000FC000
000FC000
000FC000
ENDCHAR
STARTCHAR 0165
ENCODING 357
SWIDTH 495 0
DWIDTH 33 0
BBX 30 60 2 0
BITMAP
07E01F00
03E03F00
01F07E00
01F87C00
00FCF800
007FF800
003FF000
001FE000
001FC000
00000000
00000000
00000000
00000000
FFFFFFFC
FFFFFFFC
FFFFFFFC
FFFFFFFC
FFFFFFFC
FFFFFFFC
000FC000
000FC000
000FC000
000FC000
000FC000
000FC000
000FC000
000FC000
000FC000
000FC000
000FC000
000FC000
000FC000
000FC000
000FC000
000FC000
000FC000
000FC000
000FC000
000FC000
000FC000
000FC000
000FC000
000FC000
000FC000
000FC000
000FC000
000FC000
000FC000
000FC000
000FC000
000FC000
000FC000
000FC000
000FC000
000FC000
000FC000
000FC000
000FC000
000FC000
000FC000
ENDCHAR
STARTCHAR 0168
ENCODING 360
SWIDTH 495 0
DWIDTH 33 0
BBX 28 60 3 -1
BITMAP
01F00000
07FF3800
07FFF800
07FFF800
060FF800
0001E000
00000000
00000000
00000000
00000000
00000000
00000000
FC0003F0
FC0003F0
FC0003F0
FC0003F0
FC0003F0
FC0003F0
FC0003F0
FC0003F0
FC0003F0
FC0003F0
FC0003F0
FC0003F0
FC0003F0
FC0003F0
FC0003F0
FC0003F0
FC0003F0
FC0003F0
FC0003F0
FC0003F0
FC0003F0
FC0003F0
FC0003F0
FC0003F0
FC0003F0
FC0003F0
FC0003F0
FC0003F0
FC0003F0
FC0003F0
FC0003F0
FC0003F0
FC0003F0
FC0003F0
FC0003F0
FE0007F0
FE0007F0
7E0007E0
7F000FE0
7F000FE0
3F801FC0
3FE07FC0
1FFFFF80
0FFFFF00
07FFFE00
03FFFC00
01FFF800
003FC000
ENDCHAR
STARTCHAR 0169
ENCODING 361
SWIDTH 495 0
DWIDTH 33 0
BBX 28 60 3 -1
BITMAP
01F00000
07FF3800
07FFF800
07FFF800
060FF800
0001E000
00000000
00000000
00000000
00000000
00000000
00000000
FC0003F0
FC0003F0
FC0003F0
FC0003F0
FC0003F0
FC0003F0
FC0003F0
FC0003F0
FC0003F0
FC0003F0
FC0003F0
FC0003F0
FC0003F0
FC0003F0
FC0003F0
FC0003F0
FC0003F0
FC0003F0
FC0003F0
FC0003F0
FC0003F0
FC0003F0
FC0003F0
FC0003F0
FC0003F0
FC0003F0
FC0003F0
FC0003F0
FC0003F0
FC0003F0
FC0003F0
FC0003F0
FC0003F0
FC0003F0
FC0003F0
FE0007F0
FE0007F0
7E0007E0
7F000FE0
7F000FE0
3F801FC0
3FE07FC0
1FFFFF80
0FFFFF00
07FFFE00
03FFFC00
01FFF800
003FC000
ENDCHAR
STARTCHAR 016A
ENCODING 362
SWIDTH 495 0
DWIDTH 33 0
BBX 28 59 3 -1
BITMAP
07FFFE00
07FFFE00
07FFFE00
07FFFE00
07FFFE00
00000000
00000000
00000000
00000000
00000000
00000000
FC0003F0
FC0003F0
FC0003F0
FC0003F0
FC0003F0
FC0003F0
FC0003F0
FC0003F0
FC0003F0
FC0003F0
FC0003F0
FC0003F0
FC0003F0
FC0003F0
FC0003F0
FC0003F0
FC0003F0
FC0003F0
FC0003F0
FC0003F0
FC0003F0
FC0003F0
FC0003F0
FC0003F0
FC0003F0
FC0003F0
FC0003F0
FC0003F0
FC0003F0
FC0003F0
FC0003F0
FC0003F0
FC0003F0
FC0003F0
FC0003F0
FE0007F0
FE0007F0
7E0007E0
7F000FE0
7F000FE0
3F801FC0
3FE07FC0
1FFFFF80
0FFFFF00
07FFFE00
03FFFC00
01FFF800
003FC000
ENDCHAR
STARTCHAR 016B
ENCODING 363
SWIDTH 495 0
DWIDTH 33 0
BBX 28 59 3 -1
BITMAP
07FFFE00
07FFFE00
07FFFE00
07FFFE00
07FFFE00
00000000
00000000
00000000
00000000
00000000
00000000
FC0003F0
FC0003F0
FC0003F0
FC0003F0
FC0003F0
FC0003F0
FC0003F0
FC0003F0
FC0003F0
FC0003F0
FC0003F0
FC0003F0
FC0003F0
FC0003F0
FC0003F0
FC0003F0
FC0003F0
FC0003F0
FC0003F0
FC0003F0
FC0003F0
FC0003F0
FC0003F0
FC0003F0
FC0003F0
FC0003F0
FC0003F0
FC0003F0
FC0003F0
FC0003F0
FC0003F0
FC0003F0
FC0003F0
FC0003F0
FC0003F0
FE0007F0
FE0007F0
7E0007E0
7F000FE0
7F000FE0
3F801FC0
3FE07FC0
1FFFFF80
0FFFFF00
07FFFE00
03FFFC00
01FFF800
003FC000
ENDCHAR
STARTCHAR 016E
ENCODING 366
SWIDTH 495 0
DWIDTH 33 0
BBX 28 65 3 -1
BITMAP
000F0000
003FC000
007FE000
00F9F000
00E07000
01E07800
01C07800
01E07800
01E07000
00F0F000
00FFF000
007FE000
001F8000
00000000
00000000
00000000
00000000
FC0003F0
FC0003F0
FC0003F0
FC0003F0
FC0003F0
FC0003F0
FC0003F0
FC0003F0
FC0003F0
FC0003F0
FC0003F0
FC0003F0
FC0003F0
FC0003F0
FC0003F0
FC0003F0
FC0003F0
FC0003F0
FC0003F0
FC0003F0
FC0003F0
FC0003F0
FC0003F0
FC0003F0
FC0003F0
FC0003F0
FC0003F0
FC0003F0
FC0003F0
FC0003F0
FC0003F0
FC0003F0
FC0003F0
FC0003F0
FC0003F0
FE0007F0
FE0007F0
7E0007E0
7F000FE0
7F000FE0
3F801FC0
3FE07FC0
1FFFFF80
0FFFFF00
07FFFE00
03FFFC00
01FFF800
003FC000
ENDCHAR
STARTCHAR 016F
ENCODING 367
SWIDTH 495 0
DWIDTH 33 0
BBX 28 65 3 -1
BITMAP
000F0000
003FC000
007FE000
00F9F000
00E07000
01E07800
01C07800
01E07800
01E07000
00F0F000
00FFF000
007FE000
001F8000
00000000
00000000
00000000
00000000
FC0003F0
FC0003F0
FC0003F0
FC0003F0
FC0003F0
FC0003F0
FC0003F0
FC0003F0
FC0003F0
FC0003F0
FC0003F0
FC0003F0
FC0003F0
FC0003F0
FC0003F0
FC0003F0
FC0003F0
FC0003F0
FC0003F0
FC0003F0
FC0003F0
FC0003F0
FC0003F0
FC0003F0
FC0003F0
FC0003F0
FC0003F0
FC0003F0
FC0003F0
FC0003F0
FC0003F0
FC0003F0
FC0003F0
FC0003F0
FC0003F0
FE0007F0
FE0007F0
7E0007E0
7F000FE0
7F000FE0
3F801FC0
3FE07FC0
1FFFFF80
0FFFFF00
07FFFE00
03FFFC00
01FFF800
003FC000
ENDCHAR
STARTCHAR 0170
ENCODING 368
SWIDTH 495 0
DWIDTH 33 0
BBX 28 60 3 -1
BITMAP
003E07E0
007C07C0
007C0F80
00F80F00
00F01E00
01E03E00
01E03C00
03C07800
00000000
00000000
00000000
00000000
FC0003F0
FC0003F0
FC0003F0
FC0003F0
FC0003F0
FC0003F0
FC0003F0
FC0003F0
FC0003F0
FC0003F0
FC0003F0
FC0003F0
FC0003F0
FC0003F0
FC0003F0
FC0003F0
FC0003F0
FC0003F0
FC0003F0
FC0003F0
FC0003F0
FC0003F0
FC0003F0
FC0003F0
FC0003F0
FC0003F0
FC0003F0
FC0003F0
FC0003F0
FC0003F0
FC0003F0
FC0003F0
FC0003F0
FC0003F0
FC0003F0
FE0007F0
FE0007F0
7E0007E0
7F000FE0
7F000FE0
3F801FC0
3FE07FC0
1FFFFF80
0FFFFF00
07FFFE00
03FFFC00
01FFF800
003FC000
ENDCHAR
STARTCHAR 0171
ENCODING 369
SWIDTH 495 0
DWIDTH 33 0
BBX 28 60 3 -1
BITMAP
003E07E0
007C07C0
007C0F80
00F80F00
00F01E00
01E03E00
01E03C00
03C07800
00000000
00000000
00000000
00000000
FC0003F0
FC0003F0
FC0003F0
FC0003F0
FC0003F0
FC0003F0
FC0003F0
FC0003F0
FC0003F0
FC0003F0
FC0003F0
FC0003F0
FC0003F0
FC0003F0
FC0003F0
FC0003F0
FC0003F0
FC0003F0
FC0003F0
FC0003F0
FC0003F0
FC0003F0
FC0003F0
FC0003F0
FC0003F0
FC0003F0
FC0003F0
FC0003F0
FC0003F0
FC0003F0
FC0003F0
FC0003F0
FC0003F0
FC0003F0
FC0003F0
FE0007F0
FE0007F0
7E0007E0
7F000FE0
7F000FE0
3F801FC0
3FE07FC0
1FFFFF80
0FFFFF00
07FFFE00
03FFFC00
01FFF800
003FC000
ENDCHAR
STARTCHAR 0172
ENCODING 370
SWIDTH 495 0
DWIDTH 33 0
BBX 28 60 3 -13
BITMAP
FC0003F0
FC0003F0
FC0003F0
FC0003F0
FC0003F0
FC0003F0
FC0003F0
FC0003F0
FC0003F0
FC0003F0
FC0003F0
FC0003F0
FC0003F0
FC0003F0
FC0003F0
FC0003F0
FC0003F0
FC0003F0
FC0003F0
FC0003F0
FC0003F0
FC0003F0
FC0003F0
FC0003F0
FC0003F0
FC0003F0
FC0003F0
FC0003F0
FC0003F0
FC0003F0
FC0003F0
FC0003F0
FC0003F0
FC0003F0
FC0003F0
FE0007F0
FE0007F0
7E0007E0
7F000FE0
7F000FE0
3F801FC0
3FE07FC0
1FFFFF80
0FFFFF00
07FFFE00
03FFFC00
01FFF800
003FC000
003E0000
003C0000
00780000
00F00000
00F00000
00F00000
00F02000
00F87000
007FF800
003FF000
001FE000
00020000
ENDCHAR
STARTCHAR 0173
ENCODING 371
SWIDTH 495 0
DWIDTH 33 0
BBX 28 60 3 -13
BITMAP
FC0003F0
FC0003F0
FC0003F0
FC0003F0
FC0003F0
FC0003F0
FC0003F0
FC0003F0
FC0003F0
FC0003F0
FC0003F0
FC0003F0
FC0003F0
FC0003F0
FC0003F0
FC0003F0
FC0003F0
FC0003F0
FC0003F0
FC0003F0
FC0003F0
FC0003F0
FC0003F0
FC0003F0
FC0003F0
FC0003F0
FC0003F0
FC0003F0
FC0003F0
FC0003F0
FC0003F0
FC0003F0
FC0003F0
FC0003F0
FC0003F0
FE0007F0
FE0007F0
7E0007E0
7F000FE0
7F000FE0
3F801FC0
3FE07FC0
1FFFFF80
0FFFFF00
07FFFE00
03FFFC00
01FFF800
003FC000
003E0000
003C0000
00780000
00F00000
00F00000
00F00000
00F02000
00F87000
007FF800
003FF000
001FE000
00020000
ENDCHAR
STARTCHAR 0176
ENCODING 374
SWIDTH 495 0
DWIDTH 33 0
BBX 28 59 3 0
BITMAP
003FC000
007FE000
00FFE000
01FBF000
03F1F800
03E0FC00
07C07C00
0F803E00
00000000
00000000
00000000
00000000
FC0007F0
FC0007F0
FC0007F0
FC0007F0
FC0007F0
FC0007F0
FC0007F0
FC0007F0
FC0007F0
FC0007F0
FC0007F0
FC0007F0
FC0007F0
FC0007F0
FC0007F0
FC0007F0
FC0007F0
FC0007F0
FC0007F0
FC0007F0
FC0007F0
FC0007F0
FC0007F0
FC0007E0
FC0007E0
FE0007E0
FE000FE0
7F001FC0
7F803FC0
3FC07F80
3FFFFF80
1FFFFF00
0FFFFE00
07FFFC00
01FFF000
007FC000
001F8000
001F8000
001F8000
001F8000
001F8000
001F8000
001F8000
001F8000
001F8000
001F8000
001F8000
ENDCHAR
STARTCHAR 0177
ENCODING 375
SWIDTH 495 0
DWIDTH 33 0
BBX 28 59 3 0
BITMAP
003FC000
007FE000
00FFE000
01FBF000
03F1F800
03E0FC00
07C07C00
0F803E00
00000000
00000000
00000000
00000000
FC0007F0
FC0007F0
FC0007F0
FC0007F0
FC0007F0
FC0007F0
FC0007F0
FC0007F0
FC0007F0
FC0007F0
FC0007F0
FC0007F0
FC0007F0
FC0007F0
FC0007F0
FC0007F0
FC0007F0
FC0007F0
FC0007F0
FC0007F0
FC0007F0
FC0007F0
FC0007F0
FC0007E0
FC0007E0
FE0007E0
FE000FE0
7F001FC0
7F803FC0
3FC07F80
3FFFFF80
1FFFFF00
0FFFFE00
07FFFC00
01FFF000
007FC000
001F8000
001F8000
001F8000
001F8000
001F8000
001F8000
001F8000
001F8000
001F8000
001F8000
001F8000
ENDCHAR
STARTCHAR 0178
ENCODING 376
SWIDTH 495 0
DWIDTH 33 0
BBX 28 60 3 0
BITMAP
02000400
1FC03F00
1FE07F80
3FE07FC0
3FE0FFC0
3FF0FFC0
3FE07FC0
3FE07FC0
1FC03F80
0F801F00
00000000
00000000
00000000
FC0007F0
FC0007F0
FC0007F0
FC0007F0
FC0007F0
FC0007F0
FC0007F0
FC0007F0
FC0007F0
FC0007F0
FC0007F0
FC0007F0
FC0007F0
FC0007F0
FC0007F0
FC0007F0
FC0007F0
FC0007F0
FC0007F0
FC0007F0
FC0007F0
FC0007F0
FC0007F0
FC0007E0
FC0007E0
FE0007E0
FE000FE0
7F001FC0
7F803FC0
3FC07F80
3FFFFF80
1FFFFF00
0FFFFE00
07FFFC00
01FFF000
007FC000
001F8000
001F8000
001F8000
001F8000
001F8000
001F8000
001F8000
001F8000
001F8000
001F8000
001F8000
ENDCHAR
STARTCHAR 0179
ENCODING 377
SWIDTH 495 0
DWIDTH 33 0
BBX 30 59 2 0
BITMAP
0000FC00
0000F800
0001F000
0001E000
0003E000
0003C000
00078000
000F0000
00000000
00000000
00000000
00000000
FFFFFFFC
FFFFFFFC
FFFFFFFC
FFFFFFFC
FFFFFFFC
FFFFFFF8
000007F0
000007F0
00000FE0
00000FE0
00001FC0
00001F80
00003F80
00007F00
00007F00
0000FE00
0000FC00
0001FC00
0003F800
0003F800
0007F000
0007E000
000FE000
001FC000
001FC000
003F8000
007F8000
007F0000
00FE0000
00FE0000
01FC0000
03FC0000
03F80000
07F00000
07F00000
0FE00000
1FE00000
1FC00000
3F800000
3F800000
7F000000
7FFFFFF8
FFFFFFF8
FFFFFFF8
FFFFFFF8
FFFFFFF8
FFFFFFF8
ENDCHAR
STARTCHAR 017A
ENCODING 378
SWIDTH 495 0
DWIDTH 33 0
BBX 30 59 2 0
BITMAP
0000FC00
0000F800
0001F000
0001E000
0003E000
0003C000
00078000
000F0000
00000000
00000000
00000000
00000000
FFFFFFFC
FFFFFFFC
FFFFFFFC
FFFFFFFC
FFFFFFFC
FFFFFFF8
000007F0
000007F0
00000FE0
00000FE0
00001FC0
00001F80
00003F80
00007F00
00007F00
0000FE00
0000FC00
0001FC00
0003F800
0003F800
0007F000
0007E000
000FE000
001FC000
001FC000
003F8000
007F8000
007F0000
00FE0000
00FE0000
01FC0000
03FC0000
03F80000
07F00000
07F00000
0FE00000
1FE00000
1FC00000
3F800000
3F800000
7F000000
7FFFFFF8
FFFFFFF8
FFFFFFF8
FFFFFFF8
FFFFFFF8
FFFFFFF8
ENDCHAR
STARTCHAR 017B
ENCODING 379
SWIDTH 495 0
DWIDTH 33 0
BBX 30 61 2 0
BITMAP
0007C000
000FE000
001FF000
001FF000
003FF000
001FF000
001FF000
001FE000
000FE000
00010000
00000000
00000000
00000000
00000000
FFFFFFFC
FFFFFFFC
FFFFFFFC
FFFFFFFC
FFFFFFFC
FFFFFFF8
000007F0
000007F0
00000FE0
00000FE0
00001FC0
00001F80
00003F80
00007F00
00007F00
0000FE00
0000FC00
0001FC00
0003F800
0003F800
0007F000
0007E000
000FE000
001FC000
001FC000
003F8000
007F8000
007F0000
00FE0000
00FE0000
01FC0000
03FC0000
03F80000
07F00000
07F00000
0FE00000
1FE00000
1FC00000
3F800000
3F800000
7F000000
7FFFFFF8
FFFFFFF8
FFFFFFF8
FFFFFFF8
FFFFFFF8
FFFFFFF8
ENDCHAR
STARTCHAR 017C
ENCODING 380
SWIDTH 495 0
DWIDTH 33 0
BBX 30 61 2 0
BITMAP
0007C000
000FE000
001FF000
001FF000
003FF000
001FF000
001FF000
001FE000
000FE000
00010000
00000000
00000000
00000000
00000000
FFFFFFFC
FFFFFFFC
FFFFFFFC
FFFFFFFC
FFFFFFFC
FFFFFFF8
000007F0
000007F0
00000FE0
00000FE0
00001FC0
00001F80
00003F80
00007F00
00007F00
0000FE00
0000FC00
0001FC00
0003F800
0003F800
0007F000
0007E000
000FE000
001FC000
001FC000
003F8000
007F8000
007F0000
00FE0000
00FE0000
01FC0000
03FC0000
03F80000
07F00000
07F00000
0FE00000
1FE00000
1FC00000
3F800000
3F800000
7F000000
7FFFFFF8
FFFFFFF8
FFFFFFF8
FFFFFFF8
FFFFFFF8
FFFFFFF8
ENDCHAR
STARTCHAR 017D
ENCODING 381
SWIDTH 495 0
DWIDTH 33 0
BBX 30 60 2 0
BITMAP
07E01F80
03F01F00
01F83E00
00F87C00
007CFC00
007FF800
003FF000
001FE000
000FE000
00000000
00000000
00000000
00000000
FFFFFFFC
FFFFFFFC
FFFFFFFC
FFFFFFFC
FFFFFFFC
FFFFFFF8
000007F0
000007F0
00000FE0
00000FE0
00001FC0
00001F80
00003F80
00007F00
00007F00
0000FE00
0000FC00
0001FC00
0003F800
0003F800
0007F000
0007E000
000FE000
001FC000
001FC000
003F8000
007F8000
007F0000
00FE0000
00FE0000
01FC0000
03FC0000
03F80000
07F00000
07F00000
0FE00000
1FE00000
1FC00000
3F800000
3F800000
7F000000
7FFFFFF8
FFFFFFF8
FFFFFFF8
FFFFFFF8
FFFFFFF8
FFFFFFF8
ENDCHAR
STARTCHAR 017E
ENCODING 382
SWIDTH 495 0
DWIDTH 33 0
BBX 30 60 2 0
BITMAP
07E01F80
03F01F00
01F83E00
00F87C00
007CFC00
007FF800
003FF000
001FE000
000FE000
00000000
00000000
00000000
00000000
FFFFFFFC
FFFFFFFC
FFFFFFFC
FFFFFFFC
FFFFFFFC
FFFFFFF8
000007F0
000007F0
00000FE0
00000FE0
00001FC0
00001F80
00003F80
00007F00
00007F00
0000FE00
0000FC00
0001FC00
0003F800
0003F800
0007F000
0007E000
000FE000
001FC000
001FC000
003F8000
007F8000
007F0000
00FE0000
00FE0000
01FC0000
03FC0000
03F80000
07F00000
07F00000
0FE00000
1FE00000
1FC00000
3F800000
3F800000
7F000000
7FFFFFF8
FFFFFFF8
FFFFFFF8
FFFFFFF8
FFFFFFF8
FFFFFFF8
ENDCHAR
STARTCHAR 01A0
ENCODING 416
SWIDTH 810 0
DWIDTH 54 0
BBX 50 54 2 -1
BITMAP
0000000000F800
0000000000F800
0000000000F800
0000000000F800
0000000000F000
000001E001F000
00007FFF83E000
0001FFFFFFC000
000FFFFFFF8000
001FFFFFFE0000
007FFFFFFF8000
00FFFC0FFFC000
01FFC000FFE000
03FF00001FF000
07FC00000FF800
07F8000007FC00
0FF0000001FC00
1FE0000001FE00
1FC0000000FF00
3F800000007F00
3F800000003F00
3F000000003F80
7F000000003F80
7E000000001F80
7E000000001FC0
7E000000001FC0
FE000000000FC0
FE000000000FC0
FE000000000FC0
FE000000000FC0
FE000000000FC0
FE000000000FC0
FE000000000FC0
FE000000001FC0
7E000000001FC0
7E000000001FC0
7F000000001F80
7F000000003F80
3F800000003F80
3F800000007F00
1FC0000000FF00
1FE0000000FE00
0FF0000001FE00
0FF0000003FC00
07FC000007F800
03FE00001FF000
01FF80007FF000
00FFF003FFE000
007FFFFFFF8000
003FFFFFFF0000
000FFFFFFC0000
0003FFFFF80000
0000FFFFC00000
00000FFC000000
ENDCHAR
STARTCHAR 01A1
ENCODING 417
SWIDTH 810 0
DWIDTH 54 0
BBX 50 54 2 -1
BITMAP
0000000000F800
0000000000F800
0000000000F800
0000000000F800
0000000000F000
000001E001F000
00007FFF83E000
0001FFFFFFC000
000FFFFFFF8000
001FFFFFFE0000
007FFFFFFF8000
00FFFC0FFFC000
01FFC000FFE000
03FF00001FF000
07FC00000FF800
07F8000007FC00
0FF0000001FC00
1FE0000001FE00
1FC0000000FF00
3F800000007F00
3F800000003F00
3F000000003F80
7F000000003F80
7E000000001F80
7E000000001FC0
7E000000001FC0
FE000000000FC0
FE000000000FC0
FE000000000FC0
FE000000000FC0
FE000000000FC0
FE000000000FC0
FE000000000FC0
FE000000001FC0
7E000000001FC0
7E000000001FC0
7F000000001F80
7F000000003F80
3F800000003F80
3F800000007F00
1FC0000000FF00
1FE0000000FE00
0FF0000001FE00
0FF0000003FC00
07FC000007F800
03FE00001FF000
01FF80007FF000
00FFF003FFE000
007FFFFFFF8000
003FFFFFFF0000
000FFFFFFC0000
0003FFFFF80000
0000FFFFC00000
00000FFC000000
ENDCHAR
STARTCHAR 01AF
ENCODING 431
SWIDTH 495 0
DWIDTH 33 0
BBX 33 54 3 -1
BITMAP
0000000780
0000000780
0000000780
0000000F80
0000000F00
0000000F00
FC0003FE00
FC0003FE00
FC0003F800
FC0003F000
FC0003F000
FC0003F000
FC0003F000
FC0003F000
FC0003F000
FC0003F000
FC0003F000
FC0003F000
FC0003F000
FC0003F000
FC0003F000
FC0003F000
FC0003F000
FC0003F000
FC0003F000
FC0003F000
FC0003F000
FC0003F000
FC0003F000
FC0003F000
FC0003F000
FC0003F000
FC0003F000
FC0003F000
FC0003F000
FC0003F000
FC0003F000
FC0003F000
FC0003F000
FC0003F000
FC0003F000
FE0007F000
FE0007F000
7E0007E000
7F000FE000
7F000FE000
3F801FC000
3FE07FC000
1FFFFF8000
0FFFFF0000
07FFFE0000
03FFFC0000
01FFF80000
003FC00000
ENDCHAR
STARTCHAR 01B0
ENCODING 432
SWIDTH 495 0
DWIDTH 33 0
BBX 33 54 3 -1
BITMAP
0000000780
0000000780
0000000780
0000000F80
0000000F00
0000000F00
FC0003FE00
FC0003FE00
FC0003F800
FC0003F000
FC0003F000
FC0003F000
FC0003F000
FC0003F000
FC0003F000
FC0003F000
FC0003F000
FC0003F000
FC0003F000
FC0003F000
FC0003F000
FC0003F000
FC0003F000
FC0003F000
FC0003F000
FC0003F000
FC0003F000
FC0003F000
FC0003F000
FC0003F000
FC0003F000
FC0003F000
FC0003F000
FC0003F000
FC0003F000
FC0003F000
FC0003F000
FC0003F000
FC0003F000
FC0003F000
FC0003F000
FE0007F000
FE0007F000
7E0007E000
7F000FE000
7F000FE000
3F801FC000
3FE07FC000
1FFFFF8000
0FFFFF0000
07FFFE0000
03FFFC0000
01FFF80000
003FC00000
ENDCHAR
STARTCHAR 01CD
ENCODING 461
SWIDTH 555 0
DWIDTH 37 0
BBX 33 60 3 0
BITMAP
07C01F0000
03E03E0000
03F07E0000
01F8FC0000
00FDF80000
007DF00000
007FE00000
003FE00000
001FC00000
0000000000
0000000000
0000000000
000F800000
007FF00000
01FFFC0000
07FFFE0000
0FFFFF0000
0FFFFF8000
1FF07FC000
3FC01FE000
3F800FE000
7F0007E000
7F0007F000
7E0007F000
7E0003F000
FE0003F000
FE0003F000
FE0003F800
FE0003F800
FE0003F800
FE0003F800
FE0003F800
FE0003F800
FE0003F800
FE0003F800
FE0003F800
FE0003F800
FE0003F800
FE0003F800
FE0003F800
FE0003F800
FE0003F800
FE0003F800
FE0003F800
FE0003F800
FE0003F800
FE0003F800
FE0003F800
FE0003F800
FE0003F800
FE0003F800
FE0003F800
FE0003F800
FE0003F800
FFFFFFFF80
FFFFFFFF80
FFFFFFFF80
FFFFFFFF80
FFFFFFFF80
FFFFFFFF80
ENDCHAR
STARTCHAR 01CE
ENCODING 462
SWIDTH 555 0
DWIDTH 37 0
BBX 33 60 3 0
BITMAP
07C01F0000
03E03E0000
03F07E0000
01F8FC0000
00FDF80000
007DF00000
007FE00000
003FE00000
001FC00000
0000000000
0000000000
0000000000
000F800000
007FF00000
01FFFC0000
07FFFE0000
0FFFFF0000
0FFFFF8000
1FF07FC000
3FC01FE000
3F800FE000
7F0007E000
7F0007F000
7E0007F000
7E0003F000
FE0003F000
FE0003F000
FE0003F800
FE0003F800
FE0003F800
FE0003F800
FE0003F800
FE0003F800
FE0003F800
FE0003F800
FE0003F800
FE0003F800
FE0003F800
FE0003F800
FE0003F800
FE0003F800
FE0003F800
FE0003F800
FE0003F800
FE0003F800
FE0003F800
FE0003F800
FE0003F800
FE0003F800
FE0003F800
FE0003F800
FE0003F800
FE0003F800
FE0003F800
FFFFFFFF80
FFFFFFFF80
FFFFFFFF80
FFFFFFFF80
FFFFFFFF80
FFFFFFFF80
ENDCHAR
STARTCHAR 01CF
ENCODING 463
SWIDTH 195 0
DWIDTH 13 0
BBX 19 42 -3 0
BITMAP
F803E0
7C07E0
3E0FC0
3F0F80
1F9F00
0FFE00
07FE00
03FC00
03F800
000000
000000
000000
000000
01F800
01F800
01F800
01F800
01F800
01F800
01F800
01F800
01F800
01F800
01F800
01F800
01F800
01F800
01F800
01F800
01F800
01F800
01F800
01F800
01F800
01F800
01F800
01F800
01F800
01F800
01F800
01F800
01F800
ENDCHAR
STARTCHAR 01D0
ENCODING 464
SWIDTH 195 0
DWIDTH 13 0
BBX 19 42 -3 0
BITMAP
F803E0
7C07E0
3E0FC0
3F0F80
1F9F00
0FFE00
07FE00
03FC00
03F800
000000
000000
000000
000000
01F800
01F800
01F800
01F800
01F800
01F800
01F800
01F800
01F800
01F800
01F800
01F800
01F800
01F800
01F800
01F800
01F800
01F800
01F800
01F800
01F800
01F800
01F800
01F800
01F800
01F800
01F800
01F800
01F800
ENDCHAR
STARTCHAR 01D1
ENCODING 465
SWIDTH 810 0
DWIDTH 54 0
BBX 50 61 2 -1
BITMAP
0000F803E00000
0000FC07C00000
00007E0F800000
00003F1F800000
00001F3F000000
00000FFE000000
00000FFC000000
000007F8000000
000003F8000000
00000000000000
00000000000000
00000000000000
000001F0000000
00007FFF800000
0001FFFFF00000
000FFFFFFC0000
001FFFFFFE0000
007FFFFFFF8000
00FFFC0FFFC000
01FFC000FFE000
03FF00001FF000
07FC00000FF800
07F8000007FC00
0FF0000001FC00
1FE0000001FE00
1FC0000000FF00
3F800000007F00
3F800000003F00
3F000000003F80
7F000000003F80
7E000000001F80
7E000000001FC0
7E000000001FC0
FE000000000FC0
FE000000000FC0
FE000000000FC0
FE000000000FC0
FE000000000FC0
FE000000000FC0
FE000000000FC0
FE000000001FC0
7E000000001FC0
7E000000001FC0
7F000000001F80
7F000000003F80
3F800000003F80
3F800000007F00
1FC0000000FF00
1FE0000000FE00
0FF0000001FE00
0FF0000003FC00
07FC000007F800
03FE00001FF000
01FF80007FF000
00FFF003FFE000
007FFFFFFF8000
003FFFFFFF0000
000FFFFFFC0000
0003FFFFF80000
0000FFFFC00000
00000FFC000000
ENDCHAR
STARTCHAR 01D2
ENCODING 466
SWIDTH 810 0
DWIDTH 54 0
BBX 50 61 2 -1
BITMAP
0000F803E00000
0000FC07C00000
00007E0F800000
00003F1F800000
00001F3F000000
00000FFE000000
00000FFC000000
000007F8000000
000003F8000000
00000000000000
00000000000000
00000000000000
000001F0000000
00007FFF800000
0001FFFFF00000
000FFFFFFC0000
001FFFFFFE0000
007FFFFFFF8000
00FFFC0FFFC000
01FFC000FFE000
03FF00001FF000
07FC00000FF800
07F8000007FC00
0FF0000001FC00
1FE0000001FE00
1FC0000000FF00
3F800000007F00
3F800000003F00
3F000000003F80
7F000000003F80
7E000000001F80
7E000000001FC0
7E000000001FC0
FE000000000FC0
FE000000000FC0
FE000000000FC0
FE000000000FC0
FE000000000FC0
FE000000000FC0
FE000000000FC0
FE000000001FC0
7E000000001FC0
7E000000001FC0
7F000000001F80
7F000000003F80
3F800000003F80
3F800000007F00
1FC0000000FF00
1FE0000000FE00
0FF0000001FE00
0FF0000003FC00
07FC000007F800
03FE00001FF000
01FF80007FF000
00FFF003FFE000
007FFFFFFF8000
003FFFFFFF0000
000FFFFFFC0000
0003FFFFF80000
0000FFFFC00000
00000FFC000000
ENDCHAR
STARTCHAR 01D3
ENCODING 467
SWIDTH 495 0
DWIDTH 33 0
BBX 28 61 3 -1
BITMAP
0FC03F00
07E07E00
03E07C00
01F0F800
01F9F800
00FFF000
007FE000
003FC000
001F8000
00000000
00000000
00000000
00000000
FC0003F0
FC0003F0
FC0003F0
FC0003F0
FC0003F0
FC0003F0
FC0003F0
FC0003F0
FC0003F0
FC0003F0
FC0003F0
FC0003F0
FC0003F0
FC0003F0
FC0003F0
FC0003F0
FC0003F0
FC0003F0
FC0003F0
FC0003F0
FC0003F0
FC0003F0
FC0003F0
FC0003F0
FC0003F0
FC0003F0
FC0003F0
FC0003F0
FC0003F0
FC0003F0
FC0003F0
FC0003F0
FC0003F0
FC0003F0
FC0003F0
FE0007F0
FE0007F0
7E0007E0
7F000FE0
7F000FE0
3F801FC0
3FE07FC0
1FFFFF80
0FFFFF00
07FFFE00
03FFFC00
01FFF800
003FC000
ENDCHAR
STARTCHAR 01D4
ENCODING 468
SWIDTH 495 0
DWIDTH 33 0
BBX 28 61 3 -1
BITMAP
0FC03F00
07E07E00
03E07C00
01F0F800
01F9F800
00FFF000
007FE000
003FC000
001F8000
00000000
00000000
00000000
00000000
FC0003F0
FC0003F0
FC0003F0
FC0003F0
FC0003F0
FC0003F0
FC0003F0
FC0003F0
FC0003F0
FC0003F0
FC0003F0
FC0003F0
FC0003F0
FC0003F0
FC0003F0
FC0003F0
FC0003F0
FC0003F0
FC0003F0
FC0003F0
FC0003F0
FC0003F0
FC0003F0
FC0003F0
FC0003F0
FC0003F0
FC0003F0
FC0003F0
FC0003F0
FC0003F0
FC0003F0
FC0003F0
FC0003F0
FC0003F0
FC0003F0
FE0007F0
FE0007F0
7E0007E0
7F000FE0
7F000FE0
3F801FC0
3FE07FC0
1FFFFF80
0FFFFF00
07FFFE00
03FFFC00
01FFF800
003FC000
ENDCHAR
STARTCHAR 02C6
ENCODING 710
SWIDTH 300 0
DWIDTH 20 0
BBX 20 8 0 51
BITMAP
03FC00
07FE00
07FF00
0F9F80
1F0F80
3F07C0
7E03E0
FC03F0
ENDCHAR
STARTCHAR 02C7
ENCODING 711
SWIDTH 300 0
DWIDTH 20 0
BBX 20 9 0 51
BITMAP
FC01F0
7E03E0
3F07C0
1F0F80
0F9F80
0FFF00
07FE00
03FC00
01FC00
ENDCHAR
STARTCHAR 02D8
ENCODING 728
SWIDTH 270 0
DWIDTH 18 0
BBX 18 8 0 51
BITMAP
F003C0
F803C0
7807C0
7C0F80
3FBF80
3FFF00
0FFE00
07F800
ENDCHAR
STARTCHAR 02D9
ENCODING 729
SWIDTH 135 0
DWIDTH 9 0
BBX 10 10 0 52
BITMAP
0400
3F00
7F80
7FC0
FFC0
FFC0
FFC0
7FC0
3F80
1F00
ENDCHAR
STARTCHAR 02DA
ENCODING 730
SWIDTH 195 0
DWIDTH 13 0
BBX 13 13 0 51
BITMAP
0F80
3FE0
7FF0
7CF8
F078
E038
E038
E038
F038
7878
7FF0
3FF0
1FC0
ENDCHAR
STARTCHAR 02DB
ENCODING 731
SWIDTH 195 0
DWIDTH 13 0
BBX 13 13 0 -12
BITMAP
07C0
1F00
3C00
7800
7000
F000
F000
F000
F020
F870
7FF8
3FF0
1FC0
ENDCHAR
STARTCHAR 02DC
ENCODING 732
SWIDTH 225 0
DWIDTH 15 0
BBX 16 6 0 53
BITMAP
3E00
FFC7
FFFF
FFFF
C1FF
003C
ENDCHAR
STARTCHAR 02DD
ENCODING 733
SWIDTH 315 0
DWIDTH 21 0
BBX 21 8 0 51
BITMAP
07C0F8
0F81F0
1F01F0
1F03E0
3E03C0
3C0780
780F80
F80F00
ENDCHAR
STARTCHAR 0300
ENCODING 768
SWIDTH 0 0
DWIDTH 0 0
BBX 10 8 -10 51
BITMAP
F800
7C00
3E00
3E00
1F00
0F00
0780
07C0
ENDCHAR
STARTCHAR 0301
ENCODING 769
SWIDTH 0 0
DWIDTH 0 0
BBX 10 8 -10 51
BITMAP
0FC0
0F80
1F00
3E00
3C00
7C00
7800
F000
ENDCHAR
STARTCHAR 0302
ENCODING 770
SWIDTH 0 0
DWIDTH 0 0
BBX 20 8 -20 51
BITMAP
03FC00
07FE00
0FFF00
1F9F00
1F0F80
3E0FC0
7E07E0
FC03F0
ENDCHAR
STARTCHAR 0303
ENCODING 771
SWIDTH 0 0
DWIDTH 0 0
BBX 16 6 -16 53
BITMAP
3E00
FFE7
FFFF
FFFF
C1FF
003C
ENDCHAR
STARTCHAR 0304
ENCODING 772
SWIDTH 0 0
DWIDTH 0 0
BBX 19 5 -19 53
BITMAP
FFFFE0
FFFFE0
FFFFE0
FFFFE0
FFFFE0
ENDCHAR
STARTCHAR 0306
ENCODING 774
SWIDTH 0 0
DWIDTH 0 0
BBX 18 8 -18 51
BITMAP
F003C0
F007C0
F80780
7C0F80
7F7F00
3FFF00
1FFE00
07F800
ENDCHAR
STARTCHAR 0307
ENCODING 775
SWIDTH 0 0
DWIDTH 0 0
BBX 10 10 -10 52
BITMAP
0400
3F80
7F80
7FC0
7FC0
FFC0
7FC0
7FC0
3F80
1F00
ENDCHAR
STARTCHAR 0308
ENCODING 776
SWIDTH 0 0
DWIDTH 0 0
BBX 24 10 -24 50
BITMAP
000010
3F00FC
7F81FE
FF81FF
FFC1FF
FFC3FF
FF81FF
FF81FF
7F00FE
3E007C
ENDCHAR
STARTCHAR 0309
ENCODING 777
SWIDTH 0 0
DWIDTH 0 0
BBX 6 12 -6 51
BITMAP
78
3C
3C
3C
3C
78
78
F0
F0
F0
F8
78
ENDCHAR
STARTCHAR 030A
ENCODING 778
SWIDTH 0 0
DWIDTH 0 0
BBX 13 13 -13 51
BITMAP
0F80
3FE0
7FF0
F9F0
F078
E078
E038
E038
E078
F0F0
7FF0
7FE0
1FC0
ENDCHAR
STARTCHAR 030B
ENCODING 779
SWIDTH 0 0
DWIDTH 0 0
BBX 21 8 -21 51
BITMAP
0F81F8
1F01F0
1F03E0
3E07C0
3C0780
780F80
F80F00
F01E00
ENDCHAR
STARTCHAR 030C
ENCODING 780
SWIDTH 0 0
DWIDTH 0 0
BBX 20 9 -20 51
BITMAP
FC03F0
7C07E0
3E07C0
1F0F80
1F9F00
0FFF00
07FE00
03FC00
03F800
ENDCHAR
STARTCHAR 031B
ENCODING 795
SWIDTH 0 0
DWIDTH 0 0
BBX 8 9 -8 44
BITMAP
0F
0F
0F
1F
1E
1E
FC
F8
F0
ENDCHAR
STARTCHAR 0323
ENCODING 803
SWIDTH 0 0
DWIDTH 0 0
BBX 10 10 -10 -18
BITMAP
1E00
3F00
7F80
FFC0
FFC0
FFC0
FFC0
7F80
3F80
1E00
ENDCHAR
STARTCHAR 0326
ENCODING 806
SWIDTH 0 0
DWIDTH 0 0
BBX 9 11 -9 -15
BITMAP
1F80
1F00
1F00
3E00
3E00
3C00
7C00
7800
F800
F000
F000
ENDCHAR
STARTCHAR 0327
ENCODING 807
SWIDTH 0 0
DWIDTH 0 0
BBX 14 14 -14 -14
BITMAP
01C0
03C0
03C0
03F0
01F8
0038
003C
001C
601C
F03C
F87C
7FF8
3FF0
0FE0
ENDCHAR
STARTCHAR 0328
ENCODING 808
SWIDTH 0 0
DWIDTH 0 0
BBX 13 13 -13 -12
BITMAP
07C0
1F00
3C00
7800
7000
F000
F000
F000
F020
F870
7FF8
3FF0
1FC0
ENDCHAR
STARTCHAR 0335
ENCODING 821
SWIDTH 0 0
DWIDTH 0 0
BBX 22 5 -22 12
BITMAP
FFFFFC
FFFFFC
FFFFFC
FFFFFC
FFFFFC
ENDCHAR
STARTCHAR 1EA0
ENCODING 7840
SWIDTH 555 0
DWIDTH 37 0
BBX 33 66 3 -18
BITMAP
000F800000
007FF00000
01FFFC0000
07FFFE0000
0FFFFF0000
0FFFFF8000
1FF07FC000
3FC01FE000
3F800FE000
7F0007E000
7F0007F000
7E0007F000
7E0003F000
FE0003F000
FE0003F000
FE0003F800
FE0003F800
FE0003F800
FE0003F800
FE0003F800
FE0003F800
FE0003F800
FE0003F800
FE0003F800
FE0003F800
FE0003F800
FE0003F800
FE0003F800
FE0003F800
FE0003F800
FE0003F800
FE0003F800
FE0003F800
FE0003F800
FE0003F800
FE0003F800
FE0003F800
FE0003F800
FE0003F800
FE0003F800
FE0003F800
FE0003F800
FFFFFFFF80
FFFFFFFF80
FFFFFFFF80
FFFFFFFF80
FFFFFFFF80
FFFFFFFF80
0000000000
0000000000
0000000000
0000000000
0000000000
0000000000
0000000000
0000000000
0007000000
001FC00000
003FE00000
003FE00000
003FE00000
003FE00000
003FE00000
003FE00000
001FC00000
000F800000
ENDCHAR
STARTCHAR 1EA1
ENCODING 7841
SWIDTH 555 0
DWIDTH 37 0
BBX 33 66 3 -18
BITMAP
000F800000
007FF00000
01FFFC0000
07FFFE0000
0FFFFF0000
0FFFFF8000
1FF07FC000
3FC01FE000
3F800FE000
7F0007E000
7F0007F000
7E0007F000
7E0003F000
FE0003F000
FE0003F000
FE0003F800
FE0003F800
FE0003F800
FE0003F800
FE0003F800
FE0003F800
FE0003F800
FE0003F800
FE0003F800
FE0003F800
FE0003F800
FE0003F800
FE0003F800
FE0003F800
FE0003F800
FE0003F800
FE0003F800
FE0003F800
FE0003F800
FE0003F800
FE0003F800
FE0003F800
FE0003F800
FE0003F800
FE0003F800
FE0003F800
FE0003F800
FFFFFFFF80
FFFFFFFF80
FFFFFFFF80
FFFFFFFF80
FFFFFFFF80
FFFFFFFF80
0000000000
0000000000
0000000000
0000000000
0000000000
0000000000
0000000000
0000000000
0007000000
001FC00000
003FE00000
003FE00000
003FE00000
003FE00000
003FE00000
003FE00000
001FC00000
000F800000
ENDCHAR
STARTCHAR 1EA2
ENCODING 7842
SWIDTH 555 0
DWIDTH 37 0
BBX 33 63 3 0
BITMAP
0007800000
0007800000
0007800000
0007800000
0007800000
000F000000
000F000000
000F000000
001F000000
001F000000
000F000000
000F000000
0000000000
0000000000
0000000000
000F800000
007FF00000
01FFFC0000
07FFFE0000
0FFFFF0000
0FFFFF8000
1FF07FC000
3FC01FE000
3F800FE000
7F0007E000
7F0007F000
7E0007F000
7E0003F000
FE0003F000
FE0003F000
FE0003F800
FE0003F800
FE0003F800
FE0003F800
FE0003F800
FE0003F800
FE0003F800
FE0003F800
FE0003F800
FE0003F800
FE0003F800
FE0003F800
FE0003F800
FE0003F800
FE0003F800
FE0003F800
FE0003F800
FE0003F800
FE0003F800
FE0003F800
FE0003F800
FE0003F800
FE0003F800
FE0003F800
FE0003F800
FE0003F800
FE0003F800
FFFFFFFF80
FFFFFFFF80
FFFFFFFF80
FFFFFFFF80
FFFFFFFF80
FFFFFFFF80
ENDCHAR
STARTCHAR 1EA3
ENCODING 7843
SWIDTH 555 0
DWIDTH 37 0
BBX 33 63 3 0
BITMAP
0007800000
0007800000
0007800000
0007800000
0007800000
000F000000
000F000000
000F000000
001F000000
001F000000
000F000000
000F000000
0000000000
0000000000
0000000000
000F800000
007FF00000
01FFFC0000
07FFFE0000
0FFFFF0000
0FFFFF8000
1FF07FC000
3FC01FE000
3F800FE000
7F0007E000
7F0007F000
7E0007F000
7E0003F000
FE0003F000
FE0003F000
FE0003F800
FE0003F800
FE0003F800
FE0003F800
FE0003F800
FE0003F800
FE0003F800
FE0003F800
FE0003F800
FE0003F800
FE0003F800
FE0003F800
FE0003F800
FE0003F800
FE0003F800
FE0003F800
FE0003F800
FE0003F800
FE0003F800
FE0003F800
FE0003F800
FE0003F800
FE0003F800
FE0003F800
FE0003F800
FE0003F800
FE0003F800
FFFFFFFF80
FFFFFFFF80
FFFFFFFF80
FFFFFFFF80
FFFFFFFF80
FFFFFFFF80
ENDCHAR
STARTCHAR 1EA4
ENCODING 7844
SWIDTH 555 0
DWIDTH 37 0
BBX 33 65 3 0
BITMAP
0000001F00
0000003E00
0000003E00
0000007C00
0000007800
000000F800
003FE0F000
003FE1E000
007FF00000
00FDF80000
01F8FC0000
03F07C0000
03E03E0000
07C01F0000
0000000000
0000000000
0000000000
000F800000
007FF00000
01FFFC0000
07FFFE0000
0FFFFF0000
0FFFFF8000
1FF07FC000
3FC01FE000
3F800FE000
7F0007E000
7F0007F000
7E0007F000
7E0003F000
FE0003F000
FE0003F000
FE0003F800
FE0003F800
FE0003F800
FE0003F800
FE0003F800
FE0003F800
FE0003F800
FE0003F800
FE0003F800
FE0003F800
FE0003F800
FE0003F800
FE0003F800
FE0003F800
FE0003F800
FE0003F800
FE0003F800
FE0003F800
FE0003F800
FE0003F800
FE0003F800
FE0003F800
FE0003F800
FE0003F800
FE0003F800
FE0003F800
FE0003F800
FFFFFFFF80
FFFFFFFF80
FFFFFFFF80
FFFFFFFF80
FFFFFFFF80
FFFFFFFF80
ENDCHAR
STARTCHAR 1EA5
ENCODING 7845
SWIDTH 555 0
DWIDTH 37 0
BBX 33 65 3 0
BITMAP
0000001F00
0000003E00
0000003E00
0000007C00
0000007800
000000F800
003FE0F000
003FE1E000
007FF00000
00FDF80000
01F8FC0000
03F07C0000
03E03E0000
07C01F0000
0000000000
0000000000
0000000000
000F800000
007FF00000
01FFFC0000
07FFFE0000
0FFFFF0000
0FFFFF8000
1FF07FC000
3FC01FE000
3F800FE000
7F0007E000
7F0007F000
7E0007F000
7E0003F000
FE0003F000
FE0003F000
FE0003F800
FE0003F800
FE0003F800
FE0003F800
FE0003F800
FE0003F800
FE0003F800
FE0003F800
FE0003F800
FE0003F800
FE0003F800
FE0003F800
FE0003F800
FE0003F800
FE0003F800
FE0003F800
FE0003F800
FE0003F800
FE0003F800
FE0003F800
FE0003F800
FE0003F800
FE0003F800
FE0003F800
FE0003F800
FE0003F800
FE0003F800
FFFFFFFF80
FFFFFFFF80
FFFFFFFF80
FFFFFFFF80
FFFFFFFF80
FFFFFFFF80
ENDCHAR
STARTCHAR 1EA6
ENCODING 7846
SWIDTH 555 0
DWIDTH 37 0
BBX 38 65 -2 0
BITMAP
FC00000000
7C00000000
3E00000000
1E00000000
1F00000000
0F00000000
0781FF0000
03C1FF0000
0003FF8000
0007EFC000
000FC7E000
001F83E000
001F01F000
003E00F800
0000000000
0000000000
0000000000
00007C0000
0003FF8000
000FFFE000
003FFFF000
007FFFF800
007FFFFC00
00FF83FE00
01FE00FF00
01FC007F00
03F8003F00
03F8003F80
03F0003F80
03F0001F80
07F0001F80
07F0001F80
07F0001FC0
07F0001FC0
07F0001FC0
07F0001FC0
07F0001FC0
07F0001FC0
07F0001FC0
07F0001FC0
07F0001FC0
07F0001FC0
07F0001FC0
07F0001FC0
07F0001FC0
07F0001FC0
07F0001FC0
07F0001FC0
07F0001FC0
07F0001FC0
07F0001FC0
07F0001FC0
07F0001FC0
07F0001FC0
07F0001FC0
07F0001FC0
07F0001FC0
07F0001FC0
07F0001FC0
07FFFFFFFC
07FFFFFFFC
07FFFFFFFC
07FFFFFFFC
07FFFFFFFC
07FFFFFFFC
ENDCHAR
STARTCHAR 1EA7
ENCODING 7847
SWIDTH 555 0
DWIDTH 37 0
BBX 38 65 -2 0
BITMAP
FC00000000
7C00000000
3E00000000
1E00000000
1F00000000
0F00000000
0781FF0000
03C1FF0000
0003FF8000
0007EFC000
000FC7E000
001F83E000
001F01F000
003E00F800
0000000000
0000000000
0000000000
00007C0000
0003FF8000
000FFFE000
003FFFF000
007FFFF800
007FFFFC00
00FF83FE00
01FE00FF00
01FC007F00
03F8003F00
03F8003F80
03F0003F80
03F0001F80
07F0001F80
07F0001F80
07F0001FC0
07F0001FC0
07F0001FC0
07F0001FC0
07F0001FC0
07F0001FC0
07F0001FC0
07F0001FC0
07F0001FC0
07F0001FC0
07F0001FC0
07F0001FC0
07F0001FC0
07F0001FC0
07F0001FC0
07F0001FC0
07F0001FC0
07F0001FC0
07F0001FC0
07F0001FC0
07F0001FC0
07F0001FC0
07F0001FC0
07F0001FC0
07F0001FC0
07F0001FC0
07F0001FC0
07FFFFFFFC
07FFFFFFFC
07FFFFFFFC
07FFFFFFFC
07FFFFFFFC
07FFFFFFFC
ENDCHAR
STARTCHAR 1EA8
ENCODING 7848
SWIDTH 555 0
DWIDTH 37 0
BBX 33 69 3 0
BITMAP
000001E000
000000F000
000000F000
000000F000
000000F000
000001F000
000001E000
000001E000
000003C000
000003C000
003FE3E000
003FE1E000
007FF1E000
00FDF80000
01F8FC0000
03F07C0000
03E03E0000
07C01F0000
0000000000
0000000000
0000000000
000F800000
007FF00000
01FFFC0000
07FFFE0000
0FFFFF0000
0FFFFF8000
1FF07FC000
3FC01FE000
3F800FE000
7F0007E000
7F0007F000
7E0007F000
7E0003F000
FE0003F000
FE0003F000
FE0003F800
FE0003F800
FE0003F800
FE0003F800
FE0003F800
FE0003F800
FE0003F800
FE0003F800
FE0003F800
FE0003F800
FE0003F800
FE0003F800
FE0003F800
FE0003F800
FE0003F800
FE0003F800
FE0003F800
FE0003F800
FE0003F800
FE0003F800
FE0003F800
FE0003F800
FE0003F800
FE0003F800
FE0003F800
FE0003F800
FE0003F800
FFFFFFFF80
FFFFFFFF80
FFFFFFFF80
FFFFFFFF80
FFFFFFFF80
FFFFFFFF80
ENDCHAR
STARTCHAR 1EA9
ENCODING 7849
SWIDTH 555 0
DWIDTH 37 0
BBX 33 69 3 0
BITMAP
000001E000
000000F000
000000F000
000000F000
000000F000
000001F000
000001E000
000001E000
000003C000
000003C000
003FE3E000
003FE1E000
007FF1E000
00FDF80000
01F8FC0000
03F07C0000
03E03E0000
07C01F0000
0000000000
0000000000
0000000000
000F800000
007FF00000
01FFFC0000
07FFFE0000
0FFFFF0000
0FFFFF8000
1FF07FC000
3FC01FE000
3F800FE000
7F0007E000
7F0007F000
7E0007F000
7E0003F000
FE0003F000
FE0003F000
FE0003F800
FE0003F800
FE0003F800
FE0003F800
FE0003F800
FE0003F800
FE0003F800
FE0003F800
FE0003F800
FE0003F800
FE0003F800
FE0003F800
FE0003F800
FE0003F800
FE0003F800
FE0003F800
FE0003F800
FE0003F800
FE0003F800
FE0003F800
FE0003F800
FE0003F800
FE0003F800
FE0003F800
FE0003F800
FE0003F800
FE0003F800
FFFFFFFF80
FFFFFFFF80
FFFFFFFF80
FFFFFFFF80
FFFFFFFF80
FFFFFFFF80
ENDCHAR
STARTCHAR 1EAA
ENCODING 7850
SWIDTH 555 0
DWIDTH 37 0
BBX 33 67 3 0
BITMAP
0000700000
0003FE0400
0003FFFC00
0003FFFC00
0003DFFC00
000001F800
0000000000
0000000000
003FE00000
003FE00000
007FF00000
00FDF80000
01F8FC0000
03F07C0000
03E03E0000
07C01F0000
0000000000
0000000000
0000000000
000F800000
007FF00000
01FFFC0000
07FFFE0000
0FFFFF0000
0FFFFF8000
1FF07FC000
3FC01FE000
3F800FE000
7F0007E000
7F0007F000
7E0007F000
7E0003F000
FE0003F000
FE0003F000
FE0003F800
FE0003F800
FE0003F800
FE0003F800
FE0003F800
FE0003F800
FE0003F800
FE0003F800
FE0003F800
FE0003F800
FE0003F800
FE0003F800
FE0003F800
FE0003F800
FE0003F800
FE0003F800
FE0003F800
FE0003F800
FE0003F800
FE0003F800
FE0003F800
FE0003F800
FE0003F800
FE0003F800
FE0003F800
FE0003F800
FE0003F800
FFFFFFFF80
FFFFFFFF80
FFFFFFFF80
FFFFFFFF80
FFFFFFFF80
FFFFFFFF80
ENDCHAR
STARTCHAR 1EAB
ENCODING 7851
SWIDTH 555 0
DWIDTH 37 0
BBX 33 67 3 0
BITMAP
0000700000
0003FE0400
0003FFFC00
0003FFFC00
0003DFFC00
000001F800
0000000000
0000000000
003FE00000
003FE00000
007FF00000
00FDF80000
01F8FC0000
03F07C0000
03E03E0000
07C01F0000
0000000000
0000000000
0000000000
000F800000
007FF00000
01FFFC0000
07FFFE0000
0FFFFF0000
0FFFFF8000
1FF07FC000
3FC01FE000
3F800FE000
7F0007E000
7F0007F000
7E0007F000
7E0003F000
FE0003F000
FE0003F000
FE0003F800
FE0003F800
FE0003F800
FE0003F800
FE0003F800
FE0003F800
FE0003F800
FE0003F800
FE0003F800
FE0003F800
FE0003F800
FE0003F800
FE0003F800
FE0003F800
FE0003F800
FE0003F800
FE0003F800
FE0003F800
FE0003F800
FE0003F800
FE0003F800
FE0003F800
FE0003F800
FE0003F800
FE0003F800
FE0003F800
FE0003F800
FFFFFFFF80
FFFFFFFF80
FFFFFFFF80
FFFFFFFF80
FFFFFFFF80
FFFFFFFF80
ENDCHAR
STARTCHAR 1EAC
ENCODING 7852
SWIDTH 555 0
DWIDTH 37 0
BBX 33 77 3 -18
BITMAP
003FE00000
003FE00000
007FF00000
00FDF80000
01F8FC0000
03F07C0000
03E03E0000
07C01F0000
0000000000
0000000000
0000000000
000F800000
007FF00000
01FFFC0000
07FFFE0000
0FFFFF0000
0FFFFF8000
1FF07FC000
3FC01FE000
3F800FE000
7F0007E000
7F0007F000
7E0007F000
7E0003F000
FE0003F000
FE0003F000
FE0003F800
FE0003F800
FE0003F800
FE0003F800
FE0003F800
FE0003F800
FE0003F800
FE0003F800
FE0003F800
FE0003F800
FE0003F800
FE0003F800
FE0003F800
FE0003F800
FE0003F800
FE0003F800
FE0003F800
FE0003F800
FE0003F800
FE0003F800
FE0003F800
FE0003F800
FE0003F800
FE0003F800
FE0003F800
FE0003F800
FE0003F800
FFFFFFFF80
FFFFFFFF80
FFFFFFFF80
FFFFFFFF80
FFFFFFFF80
FFFFFFFF80
0000000000
0000000000
0000000000
0000000000
0000000000
0000000000
0000000000
0000000000
0007000000
001FC00000
003FE00000
003FE00000
003FE00000
003FE00000
003FE00000
003FE00000
001FC00000
000F800000
ENDCHAR
STARTCHAR 1EAD
ENCODING 7853
SWIDTH 555 0
DWIDTH 37 0
BBX 33 77 3 -18
BITMAP
003FE00000
003FE00000
007FF00000
00FDF80000
01F8FC0000
03F07C0000
03E03E0000
07C01F0000
0000000000
0000000000
0000000000
000F800000
007FF00000
01FFFC0000
07FFFE0000
0FFFFF0000
0FFFFF8000
1FF07FC000
3FC01FE000
3F800FE000
7F0007E000
7F0007F000
7E0007F000
7E0003F000
FE0003F000
FE0003F000
FE0003F800
FE0003F800
FE0003F800
FE0003F800
FE0003F800
FE0003F800
FE0003F800
FE0003F800
FE0003F800
FE0003F800
FE0003F800
FE0003F800
FE0003F800
FE0003F800
FE0003F800
FE0003F800
FE0003F800
FE0003F800
FE0003F800
FE0003F800
FE0003F800
FE0003F800
FE0003F800
FE0003F800
FE0003F800
FE0003F800
FE0003F800
FFFFFFFF80
FFFFFFFF80
FFFFFFFF80
FFFFFFFF80
FFFFFFFF80
FFFFFFFF80
0000000000
0000000000
0000000000
0000000000
0000000000
0000000000
0000000000
0000000000
0007000000
001FC00000
003FE00000
003FE00000
003FE00000
003FE00000
003FE00000
003FE00000
001FC00000
000F800000
ENDCHAR
STARTCHAR 1EAE
ENCODING 7854
SWIDTH 555 0
DWIDTH 37 0
BBX 33 68 3 0
BITMAP
00007C0000
0000FC0000
0000F80000
0001F00000
0001E00000
0003E00000
0003C00000
0007800000
000F000000
07C01F0000
03C01E0000
03C03E0000
03E03E0000
01FDFC0000
00FFF80000
007FF00000
003FC00000
0000000000
0000000000
0000000000
000F800000
007FF00000
01FFFC0000
07FFFE0000
0FFFFF0000
0FFFFF8000
1FF07FC000
3FC01FE000
3F800FE000
7F0007E000
7F0007F000
7E0007F000
7E0003F000
FE0003F000
FE0003F000
FE0003F800
FE0003F800
FE0003F800
FE0003F800
FE0003F800
FE0003F800
FE0003F800
FE0003F800
FE0003F800
FE0003F800
FE0003F800
FE0003F800
FE0003F800
FE0003F800
FE0003F800
FE0003F800
FE0003F800
FE0003F800
FE0003F800
FE0003F800
FE0003F800
FE0003F800
FE0003F800
FE0003F800
FE0003F800
FE0003F800
FE0003F800
FFFFFFFF80
FFFFFFFF80
FFFFFFFF80
FFFFFFFF80
FFFFFFFF80
FFFFFFFF80
ENDCHAR
STARTCHAR 1EAF
ENCODING 7855
SWIDTH 555 0
DWIDTH 37 0
BBX 33 68 3 0
BITMAP
00007C0000
0000FC0000
0000F80000
0001F00000
0001E00000
0003E00000
0003C00000
0007800000
000F000000
07C01F0000
03C01E0000
03C03E0000
03E03E0000
01FDFC0000
00FFF80000
007FF00000
003FC00000
0000000000
0000000000
0000000000
000F800000
007FF00000
01FFFC0000
07FFFE0000
0FFFFF0000
0FFFFF8000
1FF07FC000
3FC01FE000
3F800FE000
7F0007E000
7F0007F000
7E0007F000
7E0003F000
FE0003F000
FE0003F000
FE0003F800
FE0003F800
FE0003F800
FE0003F800
FE0003F800
FE0003F800
FE0003F800
FE0003F800
FE0003F800
FE0003F800
FE0003F800
FE0003F800
FE0003F800
FE0003F800
FE0003F800
FE0003F800
FE0003F800
FE0003F800
FE0003F800
FE0003F800
FE0003F800
FE0003F800
FE0003F800
FE0003F800
FE0003F800
FE0003F800
FE0003F800
FFFFFFFF80
FFFFFFFF80
FFFFFFFF80
FFFFFFFF80
FFFFFFFF80
FFFFFFFF80
ENDCHAR
STARTCHAR 1EB0
ENCODING 7856
SWIDTH 555 0
DWIDTH 37 0
BBX 33 68 3 0
BITMAP
03E0000000
03E0000000
01F0000000
00F8000000
00F8000000
007C000000
003C000000
001E000000
001E000000
07C01F0000
07C01E0000
03C03E0000
03E07E0000
01FDFC0000
00FFF80000
007FF00000
001FC00000
0000000000
0000000000
0000000000
000F800000
007FF00000
01FFFC0000
07FFFE0000
0FFFFF0000
0FFFFF8000
1FF07FC000
3FC01FE000
3F800FE000
7F0007E000
7F0007F000
7E0007F000
7E0003F000
FE0003F000
FE0003F000
FE0003F800
FE0003F800
FE0003F800
FE0003F800
FE0003F800
FE0003F800
FE0003F800
FE0003F800
FE0003F800
FE0003F800
FE0003F800
FE0003F800
FE0003F800
FE0003F800
FE0003F800
FE0003F800
FE0003F800
FE0003F800
FE0003F800
FE0003F800
FE0003F800
FE0003F800
FE0003F800
FE0003F800
FE0003F800
FE0003F800
FE0003F800
FFFFFFFF80
FFFFFFFF80
FFFFFFFF80
FFFFFFFF80
FFFFFFFF80
FFFFFFFF80
ENDCHAR
STARTCHAR 1EB1
ENCODING 7857
SWIDTH 555 0
DWIDTH 37 0
BBX 33 68 3 0
BITMAP
03E0000000
03E0000000
01F0000000
00F8000000
00F8000000
007C000000
003C000000
001E000000
001E000000
07C01F0000
07C01E0000
03C03E0000
03E07E0000
01FDFC0000
00FFF80000
007FF00000
001FC00000
0000000000
0000000000
0000000000
000F800000
007FF00000
01FFFC0000
07FFFE0000
0FFFFF0000
0FFFFF8000
1FF07FC000
3FC01FE000
3F800FE000
7F0007E000
7F0007F000
7E0007F000
7E0003F000
FE0003F000
FE0003F000
FE0003F800
FE0003F800
FE0003F800
FE0003F800
FE0003F800
FE0003F800
FE0003F800
FE0003F800
FE0003F800
FE0003F800
FE0003F800
FE0003F800
FE0003F800
FE0003F800
FE0003F800
FE0003F800
FE0003F800
FE0003F800
FE0003F800
FE0003F800
FE0003F800
FE0003F800
FE0003F800
FE0003F800
FE0003F800
FE0003F800
FE0003F800
FFFFFFFF80
FFFFFFFF80
FFFFFFFF80
FFFFFFFF80
FFFFFFFF80
FFFFFFFF80
ENDCHAR
STARTCHAR 1EB2
ENCODING 7858
SWIDTH 555 0
DWIDTH 37 0
BBX 33 70 3 0
BITMAP
0007800000
0003C00000
0003C00000
0003C00000
0003C00000
0007800000
0007800000
000F800000
000F000000
000F000000
000F000000
07C79F0000
03C79E0000
03C03E0000
03E03E0000
01FDFC0000
00FFF80000
007FF00000
003FC00000
0000000000
0000000000
0000000000
000F800000
007FF00000
01FFFC0000
07FFFE0000
0FFFFF0000
0FFFFF8000
1FF07FC000
3FC01FE000
3F800FE000
7F0007E000
7F0007F000
7E0007F000
7E0003F000
FE0003F000
FE0003F000
FE0003F800
FE0003F800
FE0003F800
FE0003F800
FE0003F800
FE0003F800
FE0003F800
FE0003F800
FE0003F800
FE0003F800
FE0003F800
FE0003F800
FE0003F800
FE0003F800
FE0003F800
FE0003F800
FE0003F800
FE0003F800
FE0003F800
FE0003F800
FE0003F800
FE0003F800
FE0003F800
FE0003F800
FE0003F800
FE0003F800
FE0003F800
FFFFFFFF80
FFFFFFFF80
FFFFFFFF80
FFFFFFFF80
FFFFFFFF80
FFFFFFFF80
ENDCHAR
STARTCHAR 1EB3
ENCODING 7859
SWIDTH 555 0
DWIDTH 37 0
BBX 33 70 3 0
BITMAP
0007800000
0003C00000
0003C00000
0003C00000
0003C00000
0007800000
0007800000
000F800000
000F000000
000F000000
000F000000
07C79F0000
03C79E0000
03C03E0000
03E03E0000
01FDFC0000
00FFF80000
007FF00000
003FC00000
0000000000
0000000000
0000000000
000F800000
007FF00000
01FFFC0000
07FFFE0000
0FFFFF0000
0FFFFF8000
1FF07FC000
3FC01FE000
3F800FE000
7F0007E000
7F0007F000
7E0007F000
7E0003F000
FE0003F000
FE0003F000
FE0003F800
FE0003F800
FE0003F800
FE0003F800
FE0003F800
FE0003F800
FE0003F800
FE0003F800
FE0003F800
FE0003F800
FE0003F800
FE0003F800
FE0003F800
FE0003F800
FE0003F800
FE0003F800
FE0003F800
FE0003F800
FE0003F800
FE0003F800
FE0003F800
FE0003F800
FE0003F800
FE0003F800
FE0003F800
FE0003F800
FE0003F800
FFFFFFFF80
FFFFFFFF80
FFFFFFFF80
FFFFFFFF80
FFFFFFFF80
FFFFFFFF80
ENDCHAR
STARTCHAR 1EB4
ENCODING 7860
SWIDTH 555 0
DWIDTH 37 0
BBX 33 67 3 0
BITMAP
00FC000000
01FFFC0000
01FFFC0000
01FFFC0000
0107FC0000
0000700000
0000000000
0000000000
07C01F0000
03C01E0000
03C03E0000
03E03E0000
01FDFC0000
00FFF80000
007FF00000
003FC00000
0000000000
0000000000
0000000000
000F800000
007FF00000
01FFFC0000
07FFFE0000
0FFFFF0000
0FFFFF8000
1FF07FC000
3FC01FE000
3F800FE000
7F0007E000
7F0007F000
7E0007F000
7E0003F000
FE0003F000
FE0003F000
FE0003F800
FE0003F800
FE0003F800
FE0003F800
FE0003F800
FE0003F800
FE0003F800
FE0003F800
FE0003F800
FE0003F800
FE0003F800
FE0003F800
FE0003F800
FE0003F800
FE0003F800
FE0003F800
FE0003F800
FE0003F800
FE0003F800
FE0003F800
FE0003F800
FE0003F800
FE0003F800
FE0003F800
FE0003F800
FE0003F800
FE0003F800
FFFFFFFF80
FFFFFFFF80
FFFFFFFF80
FFFFFFFF80
FFFFFFFF80
FFFFFFFF80
ENDCHAR
STARTCHAR 1EB5
ENCODING 7861
SWIDTH 555 0
DWIDTH 37 0
BBX 33 67 3 0
BITMAP
00FC000000
01FFFC0000
01FFFC0000
01FFFC0000
0107FC0000
0000700000
0000000000
0000000000
07C01F0000
03C01E0000
03C03E0000
03E03E0000
01FDFC0000
00FFF80000
007FF00000
003FC00000
0000000000
0000000000
0000000000
000F800000
007FF00000
01FFFC0000
07FFFE0000
0FFFFF0000
0FFFFF8000
1FF07FC000
3FC01FE000
3F800FE000
7F0007E000
7F0007F000
7E0007F000
7E0003F000
FE0003F000
FE0003F000
FE0003F800
FE0003F800
FE0003F800
FE0003F800
FE0003F800
FE0003F800
FE0003F800
FE0003F800
FE0003F800
FE0003F800
FE0003F800
FE0003F800
FE0003F800
FE0003F800
FE0003F800
FE0003F800
FE0003F800
FE0003F800
FE0003F800
FE0003F800
FE0003F800
FE0003F800
FE0003F800
FE0003F800
FE0003F800
FE0003F800
FE0003F800
FFFFFFFF80
FFFFFFFF80
FFFFFFFF80
FFFFFFFF80
FFFFFFFF80
FFFFFFFF80
ENDCHAR
STARTCHAR 1EB6
ENCODING 7862
SWIDTH 555 0
DWIDTH 37 0
BBX 33 77 3 -18
BITMAP
07C01F0000
03C01E0000
03C03E0000
03E03E0000
01FDFC0000
00FFF80000
007FF00000
003FC00000
0000000000
0000000000
0000000000
000F800000
007FF00000
01FFFC0000
07FFFE0000
0FFFFF0000
0FFFFF8000
1FF07FC000
3FC01FE000
3F800FE000
7F0007E000
7F0007F000
7E0007F000
7E0003F000
FE0003F000
FE0003F000
FE0003F800
FE0003F800
FE0003F800
FE0003F800
FE0003F800
FE0003F800
FE0003F800
FE0003F800
FE0003F800
FE0003F800
FE0003F800
FE0003F800
FE0003F800
FE0003F800
FE0003F800
FE0003F800
FE0003F800
FE0003F800
FE0003F800
FE0003F800
FE0003F800
FE0003F800
FE0003F800
FE0003F800
FE0003F800
FE0003F800
FE0003F800
FFFFFFFF80
FFFFFFFF80
FFFFFFFF80
FFFFFFFF80
FFFFFFFF80
FFFFFFFF80
0000000000
0000000000
0000000000
0000000000
0000000000
0000000000
0000000000
0000000000
0007000000
001FC00000
003FE00000
003FE00000
003FE00000
003FE00000
003FE00000
003FE00000
001FC00000
000F800000
ENDCHAR
STARTCHAR 1EB7
ENCODING 7863
SWIDTH 555 0
DWIDTH 37 0
BBX 33 77 3 -18
BITMAP
07C01F0000
03C01E0000
03C03E0000
03E03E0000
01FDFC0000
00FFF80000
007FF00000
003FC00000
0000000000
0000000000
0000000000
000F800000
007FF00000
01FFFC0000
07FFFE0000
0FFFFF0000
0FFFFF8000
1FF07FC000
3FC01FE000
3F800FE000
7F0007E000
7F0007F000
7E0007F000
7E0003F000
FE0003F000
FE0003F000
FE0003F800
FE0003F800
FE0003F800
FE0003F800
FE0003F800
FE0003F800
FE0003F800
FE0003F800
FE0003F800
FE0003F800
FE0003F800
FE0003F800
FE0003F800
FE0003F800
FE0003F800
FE0003F800
FE0003F800
FE0003F800
FE0003F800
FE0003F800
FE0003F800
FE0003F800
FE0003F800
FE0003F800
FE0003F800
FE0003F800
FE0003F800
FFFFFFFF80
FFFFFFFF80
FFFFFFFF80
FFFFFFFF80
FFFFFFFF80
FFFFFFFF80
0000000000
0000000000
0000000000
0000000000
0000000000
0000000000
0000000000
0000000000
0007000000
001FC00000
003FE00000
003FE00000
003FE00000
003FE00000
003FE00000
003FE00000
001FC00000
000F800000
ENDCHAR
STARTCHAR 1EB8
ENCODING 7864
SWIDTH 495 0
DWIDTH 33 0
BBX 31 65 2 -18
BITMAP
0FFFFE00
0FFFFE00
0FFFFE00
0FFFFE00
0FFFFE00
0FFFFE00
0FC00000
0FC00000
0FC00000
0FC00000
0FC00000
0FC00000
0FC00000
0FC00000
0FC00000
0FC00000
0FC00000
0FC00000
0FC00000
0FC00000
0FC00000
FFFFFFC0
FFFFFFC0
FFFFFFC0
FFFFFFC0
FFFFFFC0
0FC00000
0FC00000
0FC00000
0FC00000
0FC00000
0FC00000
0FC00000
0FC00000
0FC00000
0FC00000
0FC00000
0FC00000
0FC00000
0FC00000
0FC00000
0FFFFFFE
0FFFFFFE
0FFFFFFE
0FFFFFFE
0FFFFFFE
0FFFFFFE
00000000
00000000
00000000
00000000
00000000
00000000
00000000
00000000
00007000
0001FC00
0003FC00
0007FE00
0007FE00
0007FE00
0007FE00
0003FC00
0001FC00
0000F000
ENDCHAR
STARTCHAR 1EB9
ENCODING 7865
SWIDTH 495 0
DWIDTH 33 0
BBX 31 65 2 -18
BITMAP
0FFFFE00
0FFFFE00
0FFFFE00
0FFFFE00
0FFFFE00
0FFFFE00
0FC00000
0FC00000
0FC00000
0FC00000
0FC00000
0FC00000
0FC00000
0FC00000
0FC00000
0FC00000
0FC00000
0FC00000
0FC00000
0FC00000
0FC00000
FFFFFFC0
FFFFFFC0
FFFFFFC0
FFFFFFC0
FFFFFFC0
0FC00000
0FC00000
0FC00000
0FC00000
0FC00000
0FC00000
0FC00000
0FC00000
0FC00000
0FC00000
0FC00000
0FC00000
0FC00000
0FC00000
0FC00000
0FFFFFFE
0FFFFFFE
0FFFFFFE
0FFFFFFE
0FFFFFFE
0FFFFFFE
00000000
00000000
00000000
00000000
00000000
00000000
00000000
00000000
00007000
0001FC00
0003FC00
0007FE00
0007FE00
0007FE00
0007FE00
0003FC00
0001FC00
0000F000
ENDCHAR
STARTCHAR 1EBA
ENCODING 7866
SWIDTH 495 0
DWIDTH 33 0
BBX 31 63 2 0
BITMAP
000F0000
000F0000
000F0000
000F0000
000F0000
001F0000
001E0000
001E0000
003E0000
003E0000
001E0000
001E0000
00000000
00000000
00000000
00000000
0FFFFE00
0FFFFE00
0FFFFE00
0FFFFE00
0FFFFE00
0FFFFE00
0FC00000
0FC00000
0FC00000
0FC00000
0FC00000
0FC00000
0FC00000
0FC00000
0FC00000
0FC00000
0FC00000
0FC00000
0FC00000
0FC00000
0FC00000
FFFFFFC0
FFFFFFC0
FFFFFFC0
FFFFFFC0
FFFFFFC0
0FC00000
0FC00000
0FC00000
0FC00000
0FC00000
0FC00000
0FC00000
0FC00000
0FC00000
0FC00000
0FC00000
0FC00000
0FC00000
0FC00000
0FC00000
0FFFFFFE
0FFFFFFE
0FFFFFFE
0FFFFFFE
0FFFFFFE
0FFFFFFE
ENDCHAR
STARTCHAR 1EBB
ENCODING 7867
SWIDTH 495 0
DWIDTH 33 0
BBX 31 63 2 0
BITMAP
000F0000
000F0000
000F0000
000F0000
000F0000
001F0000
001E0000
001E0000
003E0000
003E0000
001E0000
001E0000
00000000
00000000
00000000
00000000
0FFFFE00
0FFFFE00
0FFFFE00
0FFFFE00
0FFFFE00
0FFFFE00
0FC00000
0FC00000
0FC00000
0FC00000
0FC00000
0FC00000
0FC00000
0FC00000
0FC00000
0FC00000
0FC00000
0FC00000
0FC00000
0FC00000
0FC00000
FFFFFFC0
FFFFFFC0
FFFFFFC0
FFFFFFC0
FFFFFFC0
0FC00000
0FC00000
0FC00000
0FC00000
0FC00000
0FC00000
0FC00000
0FC00000
0FC00000
0FC00000
0FC00000
0FC00000
0FC00000
0FC00000
0FC00000
0FFFFFFE
0FFFFFFE
0FFFFFFE
0FFFFFFE
0FFFFFFE
0FFFFFFE
ENDCHAR
STARTCHAR 1EBC
ENCODING 7868
SWIDTH 495 0
DWIDTH 33 0
BBX 31 59 2 0
BITMAP
03F00000
07FE3800
07FFF800
07FFF800
041FF800
0001C000
00000000
00000000
00000000
00000000
00000000
00000000
0FFFFE00
0FFFFE00
0FFFFE00
0FFFFE00
0FFFFE00
0FFFFE00
0FC00000
0FC00000
0FC00000
0FC00000
0FC00000
0FC00000
0FC00000
0FC00000
0FC00000
0FC00000
0FC00000
0FC00000
0FC00000
0FC00000
0FC00000
FFFFFFC0
FFFFFFC0
FFFFFFC0
FFFFFFC0
FFFFFFC0
0FC00000
0FC00000
0FC00000
0FC00000
0FC00000
0FC00000
0FC00000
0FC00000
0FC00000
0FC00000
0FC00000
0FC00000
0FC00000
0FC00000
0FC00000
0FFFFFFE
0FFFFFFE
0FFFFFFE
0FFFFFFE
0FFFFFFE
0FFFFFFE
ENDCHAR
STARTCHAR 1EBD
ENCODING 7869
SWIDTH 495 0
DWIDTH 33 0
BBX 31 59 2 0
BITMAP
03F00000
07FE3800
07FFF800
07FFF800
041FF800
0001C000
00000000
00000000
00000000
00000000
00000000
00000000
0FFFFE00
0FFFFE00
0FFFFE00
0FFFFE00
0FFFFE00
0FFFFE00
0FC00000
0FC00000
0FC00000
0FC00000
0FC00000
0FC00000
0FC00000
0FC00000
0FC00000
0FC00000
0FC00000
0FC00000
0FC00000
0FC00000
0FC00000
FFFFFFC0
FFFFFFC0
FFFFFFC0
FFFFFFC0
FFFFFFC0
0FC00000
0FC00000
0FC00000
0FC00000
0FC00000
0FC00000
0FC00000
0FC00000
0FC00000
0FC00000
0FC00000
0FC00000
0FC00000
0FC00000
0FC00000
0FFFFFFE
0FFFFFFE
0FFFFFFE
0FFFFFFE
0FFFFFFE
0FFFFFFE
ENDCHAR
STARTCHAR 1EBE
ENCODING 7870
SWIDTH 495 0
DWIDTH 33 0
BBX 32 65 2 0
BITMAP
0000003F
0000003E
0000007C
000000F8
000000F0
000001F0
007FC1E0
007FC3C0
00FFE000
01FBF000
03F1F800
03E0FC00
07C07C00
0F803E00
00000000
00000000
00000000
00000000
0FFFFE00
0FFFFE00
0FFFFE00
0FFFFE00
0FFFFE00
0FFFFE00
0FC00000
0FC00000
0FC00000
0FC00000
0FC00000
0FC00000
0FC00000
0FC00000
0FC00000
0FC00000
0FC00000
0FC00000
0FC00000
0FC00000
0FC00000
FFFFFFC0
FFFFFFC0
FFFFFFC0
FFFFFFC0
FFFFFFC0
0FC00000
0FC00000
0FC00000
0FC00000
0FC00000
0FC00000
0FC00000
0FC00000
0FC00000
0FC00000
0FC00000
0FC00000
0FC00000
0FC00000
0FC00000
0FFFFFFE
0FFFFFFE
0FFFFFFE
0FFFFFFE
0FFFFFFE
0FFFFFFE
ENDCHAR
STARTCHAR 1EBF
ENCODING 7871
SWIDTH 495 0
DWIDTH 33 0
BBX 32 65 2 0
BITMAP
0000003F
0000003E
0000007C
000000F8
000000F0
000001F0
007FC1E0
007FC3C0
00FFE000
01FBF000
03F1F800
03E0FC00
07C07C00
0F803E00
00000000
00000000
00000000
00000000
0FFFFE00
0FFFFE00
0FFFFE00
0FFFFE00
0FFFFE00
0FFFFE00
0FC00000
0FC00000
0FC00000
0FC00000
0FC00000
0FC00000
0FC00000
0FC00000
0FC00000
0FC00000
0FC00000
0FC00000
0FC00000
0FC00000
0FC00000
FFFFFFC0
FFFFFFC0
FFFFFFC0
FFFFFFC0
FFFFFFC0
0FC00000
0FC00000
0FC00000
0FC00000
0FC00000
0FC00000
0FC00000
0FC00000
0FC00000
0FC00000
0FC00000
0FC00000
0FC00000
0FC00000
0FC00000
0FFFFFFE
0FFFFFFE
0FFFFFFE
0FFFFFFE
0FFFFFFE
0FFFFFFE
ENDCHAR
STARTCHAR 1EC0
ENCODING 7872
SWIDTH 495 0
DWIDTH 33 0
BBX 37 65 -4 0
BITMAP
FC00000000
7C00000000
3E00000000
1E00000000
1F00000000
0F80000000
0781FF0000
03C1FF0000
0003FF8000
0007EFC000
000FC7E000
000F83F000
001F01F000
003E00F800
0000000000
0000000000
0000000000
0000000000
003FFFF800
003FFFF800
003FFFF800
003FFFF800
003FFFF800
003FFFF800
003F000000
003F000000
003F000000
003F000000
003F000000
003F000000
003F000000
003F000000
003F000000
003F000000
003F000000
003F000000
003F000000
003F000000
003F000000
03FFFFFF00
03FFFFFF00
03FFFFFF00
03FFFFFF00
03FFFFFF00
003F000000
003F000000
003F000000
003F000000
003F000000
003F000000
003F000000
003F000000
003F000000
003F000000
003F000000
003F000000
003F000000
003F000000
003F000000
003FFFFFF8
003FFFFFF8
003FFFFFF8
003FFFFFF8
003FFFFFF8
003FFFFFF8
ENDCHAR
STARTCHAR 1EC1
ENCODING 7873
SWIDTH 495 0
DWIDTH 33 0
BBX 37 65 -4 0
BITMAP
FC00000000
7C00000000
3E00000000
1E00000000
1F00000000
0F80000000
0781FF0000
03C1FF0000
0003FF8000
0007EFC000
000FC7E000
000F83F000
001F01F000
003E00F800
0000000000
0000000000
0000000000
0000000000
003FFFF800
003FFFF800
003FFFF800
003FFFF800
003FFFF800
003FFFF800
003F000000
003F000000
003F000000
003F000000
003F000000
003F000000
003F000000
003F000000
003F000000
003F000000
003F000000
003F000000
003F000000
003F000000
003F000000
03FFFFFF00
03FFFFFF00
03FFFFFF00
03FFFFFF00
03FFFFFF00
003F000000
003F000000
003F000000
003F000000
003F000000
003F000000
003F000000
003F000000
003F000000
003F000000
003F000000
003F000000
003F000000
003F000000
003F000000
003FFFFFF8
003FFFFFF8
003FFFFFF8
003FFFFFF8
003FFFFFF8
003FFFFFF8
ENDCHAR
STARTCHAR 1EC2
ENCODING 7874
SWIDTH 495 0
DWIDTH 33 0
BBX 31 69 2 0
BITMAP
000003C0
000001E0
000001E0
000001E0
000001E0
000001E0
000003C0
000003C0
000003C0
000007C0
007FC3C0
007FC3C0
00FFE3C0
01FBF000
03F1F800
03E0FC00
07C07C00
0F803E00
00000000
00000000
00000000
00000000
0FFFFE00
0FFFFE00
0FFFFE00
0FFFFE00
0FFFFE00
0FFFFE00
0FC00000
0FC00000
0FC00000
0FC00000
0FC00000
0FC00000
0FC00000
0FC00000
0FC00000
0FC00000
0FC00000
0FC00000
0FC00000
0FC00000
0FC00000
FFFFFFC0
FFFFFFC0
FFFFFFC0
FFFFFFC0
FFFFFFC0
0FC00000
0FC00000
0FC00000
0FC00000
0FC00000
0FC00000
0FC00000
0FC00000
0FC00000
0FC00000
0FC00000
0FC00000
0FC00000
0FC00000
0FC00000
0FFFFFFE
0FFFFFFE
0FFFFFFE
0FFFFFFE
0FFFFFFE
0FFFFFFE
ENDCHAR
STARTCHAR 1EC3
ENCODING 7875
SWIDTH 495 0
DWIDTH 33 0
BBX 31 69 2 0
BITMAP
000003C0
000001E0
000001E0
000001E0
000001E0
000001E0
000003C0
000003C0
000003C0
000007C0
007FC3C0
007FC3C0
00FFE3C0
01FBF000
03F1F800
03E0FC00
07C07C00
0F803E00
00000000
00000000
00000000
00000000
0FFFFE00
0FFFFE00
0FFFFE00
0FFFFE00
0FFFFE00
0FFFFE00
0FC00000
0FC00000
0FC00000
0FC00000
0FC00000
0FC00000
0FC00000
0FC00000
0FC00000
0FC00000
0FC00000
0FC00000
0FC00000
0FC00000
0FC00000
FFFFFFC0
FFFFFFC0
FFFFFFC0
FFFFFFC0
FFFFFFC0
0FC00000
0FC00000
0FC00000
0FC00000
0FC00000
0FC00000
0FC00000
0FC00000
0FC00000
0FC00000
0FC00000
0FC00000
0FC00000
0FC00000
0FC00000
0FFFFFFE
0FFFFFFE
0FFFFFFE
0FFFFFFE
0FFFFFFE
0FFFFFFE
ENDCHAR
STARTCHAR 1EC4
ENCODING 7876
SWIDTH 495 0
DWIDTH 33 0
BBX 31 67 2 0
BITMAP
00004000
0007FC08
0007FFF8
0007FFF8
0007BFF8
000003F0
00000000
00000000
007FC000
007FC000
00FFE000
01FBF000
03F1F800
03E0FC00
07C07C00
0F803E00
00000000
00000000
00000000
00000000
0FFFFE00
0FFFFE00
0FFFFE00
0FFFFE00
0FFFFE00
0FFFFE00
0FC00000
0FC00000
0FC00000
0FC00000
0FC00000
0FC00000
0FC00000
0FC00000
0FC00000
0FC00000
0FC00000
0FC00000
0FC00000
0FC00000
0FC00000
FFFFFFC0
FFFFFFC0
FFFFFFC0
FFFFFFC0
FFFFFFC0
0FC00000
0FC00000
0FC00000
0FC00000
0FC00000
0FC00000
0FC00000
0FC00000
0FC00000
0FC00000
0FC00000
0FC00000
0FC00000
0FC00000
0FC00000
0FFFFFFE
0FFFFFFE
0FFFFFFE
0FFFFFFE
0FFFFFFE
0FFFFFFE
ENDCHAR
STARTCHAR 1EC5
ENCODING 7877
SWIDTH 495 0
DWIDTH 33 0
BBX 31 67 2 0
BITMAP
00004000
0007FC08
0007FFF8
0007FFF8
0007BFF8
000003F0
00000000
00000000
007FC000
007FC000
00FFE000
01FBF000
03F1F800
03E0FC00
07C07C00
0F803E00
00000000
00000000
00000000
00000000
0FFFFE00
0FFFFE00
0FFFFE00
0FFFFE00
0FFFFE00
0FFFFE00
0FC00000
0FC00000
0FC00000
0FC00000
0FC00000
0FC00000
0FC00000
0FC00000
0FC00000
0FC00000
0FC00000
0FC00000
0FC00000
0FC00000
0FC00000
FFFFFFC0
FFFFFFC0
FFFFFFC0
FFFFFFC0
FFFFFFC0
0FC00000
0FC00000
0FC00000
0FC00000
0FC00000
0FC00000
0FC00000
0FC00000
0FC00000
0FC00000
0FC00000
0FC00000
0FC00000
0FC00000
0FC00000
0FFFFFFE
0FFFFFFE
0FFFFFFE
0FFFFFFE
0FFFFFFE
0FFFFFFE
ENDCHAR
STARTCHAR 1EC6
ENCODING 7878
SWIDTH 495 0
DWIDTH 33 0
BBX 31 77 2 -18
BITMAP
007FC000
007FC000
00FFE000
01FBF000
03F1F800
03E0FC00
07C07C00
0F803E00
00000000
00000000
00000000
00000000
0FFFFE00
0FFFFE00
0FFFFE00
0FFFFE00
0FFFFE00
0FFFFE00
0FC00000
0FC00000
0FC00000
0FC00000
0FC00000
0FC00000
0FC00000
0FC00000
0FC00000
0FC00000
0FC00000
0FC00000
0FC00000
0FC00000
0FC00000
FFFFFFC0
FFFFFFC0
FFFFFFC0
FFFFFFC0
FFFFFFC0
0FC00000
0FC00000
0FC00000
0FC00000
0FC00000
0FC00000
0FC00000
0FC00000
0FC00000
0FC00000
0FC00000
0FC00000
0FC00000
0FC00000
0FC00000
0FFFFFFE
0FFFFFFE
0FFFFFFE
0FFFFFFE
0FFFFFFE
0FFFFFFE
00000000
00000000
00000000
00000000
00000000
00000000
00000000
00000000
00007000
0001FC00
0003FC00
0007FE00
0007FE00
0007FE00
0007FE00
0003FC00
0001FC00
0000F000
ENDCHAR
STARTCHAR 1EC7
ENCODING 7879
SWIDTH 495 0
DWIDTH 33 0
BBX 31 77 2 -18
BITMAP
007FC000
007FC000
00FFE000
01FBF000
03F1F800
03E0FC00
07C07C00
0F803E00
00000000
00000000
00000000
00000000
0FFFFE00
0FFFFE00
0FFFFE00
0FFFFE00
0FFFFE00
0FFFFE00
0FC00000
0FC00000
0FC00000
0FC00000
0FC00000
0FC00000
0FC00000
0FC00000
0FC00000
0FC00000
0FC00000
0FC00000
0FC00000
0FC00000
0FC00000
FFFFFFC0
FFFFFFC0
FFFFFFC0
FFFFFFC0
FFFFFFC0
0FC00000
0FC00000
0FC00000
0FC00000
0FC00000
0FC00000
0FC00000
0FC00000
0FC00000
0FC00000
0FC00000
0FC00000
0FC00000
0FC00000
0FC00000
0FFFFFFE
0FFFFFFE
0FFFFFFE
0FFFFFFE
0FFFFFFE
0FFFFFFE
00000000
00000000
00000000
00000000
00000000
00000000
00000000
00000000
00007000
0001FC00
0003FC00
0007FE00
0007FE00
0007FE00
0007FE00
0003FC00
0001FC00
0000F000
ENDCHAR
STARTCHAR 1EC8
ENCODING 7880
SWIDTH 195 0
DWIDTH 13 0
BBX 6 45 4 0
BITMAP
78
78
78
78
78
78
F0
F0
F0
F0
F0
F0
00
00
00
00
FC
FC
FC
FC
FC
FC
FC
FC
FC
FC
FC
FC
FC
FC
FC
FC
FC
FC
FC
FC
FC
FC
FC
FC
FC
FC
FC
FC
FC
ENDCHAR
STARTCHAR 1EC9
ENCODING 7881
SWIDTH 195 0
DWIDTH 13 0
BBX 6 45 4 0
BITMAP
78
78
78
78
78
78
F0
F0
F0
F0
F0
F0
00
00
00
00
FC
FC
FC
FC
FC
FC
FC
FC
FC
FC
FC
FC
FC
FC
FC
FC
FC
FC
FC
FC
FC
FC
FC
FC
FC
FC
FC
FC
FC
ENDCHAR
STARTCHAR 1ECA
ENCODING 7882
SWIDTH 180 0
DWIDTH 12 0
BBX 17 71 -2 -18
BITMAP
008000
008000
018000
01C000
01C000
03C000
FFFF80
7FFF00
3FFC00
0FF800
07F000
07F000
0FF000
0E7800
0C1800
180800
000400
000000
000000
000000
000000
000000
000000
000000
07F000
07F000
07F000
07F000
07F000
07F000
07F000
07F000
07F000
07F000
07F000
07F000
07F000
07F000
07F000
07F000
07F000
07F000
07F000
07F000
07F000
07F000
07F000
07F000
07F000
07F000
07F000
07F000
07F000
000000
000000
000000
000000
000000
000000
000000
000000
01C000
07F000
0FF800
0FF800
1FF800
1FF800
0FF800
0FF800
07F000
03C000
ENDCHAR
STARTCHAR 1ECB
ENCODING 7883
SWIDTH 180 0
DWIDTH 12 0
BBX 17 71 -2 -18
BITMAP
008000
008000
018000
01C000
01C000
03C000
FFFF80
7FFF00
3FFC00
0FF800
07F000
07F000
0FF000
0E7800
0C1800
180800
000400
000000
000000
000000
000000
000000
000000
000000
07F000
07F000
07F000
07F000
07F000
07F000
07F000
07F000
07F000
07F000
07F000
07F000
07F000
07F000
07F000
07F000
07F000
07F000
07F000
07F000
07F000
07F000
07F000
07F000
07F000
07F000
07F000
07F000
07F000
000000
000000
000000
000000
000000
000000
000000
000000
01C000
07F000
0FF800
0FF800
1FF800
1FF800
0FF800
0FF800
07F000
03C000
ENDCHAR
STARTCHAR 1ECC
ENCODING 7884
SWIDTH 810 0
DWIDTH 54 0
BBX 50 66 2 -18
BITMAP
000001F0000000
00007FFF800000
0001FFFFF00000
000FFFFFFC0000
001FFFFFFE0000
007FFFFFFF8000
00FFFC0FFFC000
01FFC000FFE000
03FF00001FF000
07FC00000FF800
07F8000007FC00
0FF0000001FC00
1FE0000001FE00
1FC0000000FF00
3F800000007F00
3F800000003F00
3F000000003F80
7F000000003F80
7E000000001F80
7E000000001FC0
7E000000001FC0
FE000000000FC0
FE000000000FC0
FE000000000FC0
FE000000000FC0
FE000000000FC0
FE000000000FC0
FE000000000FC0
FE000000001FC0
7E000000001FC0
7E000000001FC0
7F000000001F80
7F000000003F80
3F800000003F80
3F800000007F00
1FC0000000FF00
1FE0000000FE00
0FF0000001FE00
0FF0000003FC00
07FC000007F800
03FE00001FF000
01FF80007FF000
00FFF003FFE000
007FFFFFFF8000
003FFFFFFF0000
000FFFFFFC0000
0003FFFFF80000
0000FFFFC00000
00000FFC000000
00000000000000
00000000000000
00000000000000
00000000000000
00000000000000
00000000000000
00000000000000
000000E0000000
000003F8000000
000007F8000000
00000FFC000000
00000FFC000000
00000FFC000000
00000FFC000000
000007F8000000
000003F8000000
000001E0000000
ENDCHAR
STARTCHAR 1ECD
ENCODING 7885
SWIDTH 810 0
DWIDTH 54 0
BBX 50 66 2 -18
BITMAP
000001F0000000
00007FFF800000
0001FFFFF00000
000FFFFFFC0000
001FFFFFFE0000
007FFFFFFF8000
00FFFC0FFFC000
01FFC000FFE000
03FF00001FF000
07FC00000FF800
07F8000007FC00
0FF0000001FC00
1FE0000001FE00
1FC0000000FF00
3F800000007F00
3F800000003F00
3F000000003F80
7F000000003F80
7E000000001F80
7E000000001FC0
7E000000001FC0
FE000000000FC0
FE000000000FC0
FE000000000FC0
FE000000000FC0
FE000000000FC0
FE000000000FC0
FE000000000FC0
FE000000001FC0
7E000000001FC0
7E000000001FC0
7F000000001F80
7F000000003F80
3F800000003F80
3F800000007F00
1FC0000000FF00
1FE0000000FE00
0FF0000001FE00
0FF0000003FC00
07FC000007F800
03FE00001FF000
01FF80007FF000
00FFF003FFE000
007FFFFFFF8000
003FFFFFFF0000
000FFFFFFC0000
0003FFFFF80000
0000FFFFC00000
00000FFC000000
00000000000000
00000000000000
00000000000000
00000000000000
00000000000000
00000000000000
00000000000000
000000E0000000
000003F8000000
000007F8000000
00000FFC000000
00000FFC000000
00000FFC000000
00000FFC000000
000007F8000000
000003F8000000
000001E0000000
ENDCHAR
STARTCHAR 1ECE
ENCODING 7886
SWIDTH 810 0
DWIDTH 54 0
BBX 50 64 2 -1
BITMAP
000001E0000000
000000F0000000
000000F0000000
000000F0000000
000001F0000000
000001E0000000
000001E0000000
000003C0000000
000003C0000000
000003C0000000
000003C0000000
000001E0000000
00000000000000
00000000000000
00000000000000
000001F0000000
00007FFF800000
0001FFFFF00000
000FFFFFFC0000
001FFFFFFE0000
007FFFFFFF8000
00FFFC0FFFC000
01FFC000FFE000
03FF00001FF000
07FC00000FF800
07F8000007FC00
0FF0000001FC00
1FE0000001FE00
1FC0000000FF00
3F800000007F00
3F800000003F00
3F000000003F80
7F000000003F80
7E000000001F80
7E000000001FC0
7E000000001FC0
FE000000000FC0
FE000000000FC0
FE000000000FC0
FE000000000FC0
FE000000000FC0
FE000000000FC0
FE000000000FC0
FE000000001FC0
7E000000001FC0
7E000000001FC0
7F000000001F80
7F000000003F80
3F800000003F80
3F800000007F00
1FC0000000FF00
1FE0000000FE00
0FF0000001FE00
0FF0000003FC00
07FC000007F800
03FE00001FF000
01FF80007FF000
00FFF003FFE000
007FFFFFFF8000
003FFFFFFF0000
000FFFFFFC0000
0003FFFFF80000
0000FFFFC00000
00000FFC000000
ENDCHAR
STARTCHAR 1ECF
ENCODING 7887
SWIDTH 810 0
DWIDTH 54 0
BBX 50 64 2 -1
BITMAP
000001E0000000
000000F0000000
000000F0000000
000000F0000000
000001F0000000
000001E0000000
000001E0000000
000003C0000000
000003C0000000
000003C0000000
000003C0000000
000001E0000000
00000000000000
00000000000000
00000000000000
000001F0000000
00007FFF800000
0001FFFFF00000
000FFFFFFC0000
001FFFFFFE0000
007FFFFFFF8000
00FFFC0FFFC000
01FFC000FFE000
03FF00001FF000
07FC00000FF800
07F8000007FC00
0FF0000001FC00
1FE0000001FE00
1FC0000000FF00
3F800000007F00
3F800000003F00
3F000000003F80
7F000000003F80
7E000000001F80
7E000000001FC0
7E000000001FC0
FE000000000FC0
FE000000000FC0
FE000000000FC0
FE000000000FC0
FE000000000FC0
FE000000000FC0
FE000000000FC0
FE000000001FC0
7E000000001FC0
7E000000001FC0
7F000000001F80
7F000000003F80
3F800000003F80
3F800000007F00
1FC0000000FF00
1FE0000000FE00
0FF0000001FE00
0FF0000003FC00
07FC000007F800
03FE00001FF000
01FF80007FF000
00FFF003FFE000
007FFFFFFF8000
003FFFFFFF0000
000FFFFFFC0000
0003FFFFF80000
0000FFFFC00000
00000FFC000000
ENDCHAR
STARTCHAR 1ED0
ENCODING 7888
SWIDTH 810 0
DWIDTH 54 0
BBX 50 66 2 -1
BITMAP
0000000003E000
0000000007C000
0000000007C000
000000000F8000
000000000F0000
000000001E0000
000007F83E0000
00000FFC3C0000
00000FFE000000
00001F3F000000
00003F1F000000
00007E0F800000
00007C07C00000
0000F807E00000
00000000000000
00000000000000
00000000000000
000001F0000000
00007FFF800000
0001FFFFF00000
000FFFFFFC0000
001FFFFFFE0000
007FFFFFFF8000
00FFFC0FFFC000
01FFC000FFE000
03FF00001FF000
07FC00000FF800
07F8000007FC00
0FF0000001FC00
1FE0000001FE00
1FC0000000FF00
3F800000007F00
3F800000003F00
3F000000003F80
7F000000003F80
7E000000001F80
7E000000001FC0
7E000000001FC0
FE000000000FC0
FE000000000FC0
FE000000000FC0
FE000000000FC0
FE000000000FC0
FE000000000FC0
FE000000000FC0
FE000000001FC0
7E000000001FC0
7E000000001FC0
7F000000001F80
7F000000003F80
3F800000003F80
3F800000007F00
1FC0000000FF00
1FE0000000FE00
0FF0000001FE00
0FF0000003FC00
07FC000007F800
03FE00001FF000
01FF80007FF000
00FFF003FFE000
007FFFFFFF8000
003FFFFFFF0000
000FFFFFFC0000
0003FFFFF80000
0000FFFFC00000
00000FFC000000
ENDCHAR
ENDFONT
